<svg width="64" height="64" viewBox="0 0 64 64" fill="none" xmlns="http://www.w3.org/2000/svg">
<path d="M52 13H49.847L47.986 1.835C47.947 1.60168 47.8265 1.38976 47.646 1.23688C47.4654 1.084 47.2366 1.00007 47 1H17C16.7634 1.00007 16.5346 1.084 16.354 1.23688C16.1735 1.38976 16.053 1.60168 16.014 1.835L14.153 13H12C11.7348 13 11.4804 13.1054 11.2929 13.2929C11.1054 13.4804 11 13.7348 11 14V22C11 22.2652 11.1054 22.5196 11.2929 22.7071C11.4804 22.8946 11.7348 23 12 23H14.048L16 62.05C16.0128 62.3065 16.1238 62.5481 16.31 62.725C16.4962 62.9019 16.7432 63.0003 17 63H47C47.2568 63.0003 47.5038 62.9019 47.69 62.725C47.8762 62.5481 47.9872 62.3065 48 62.05L49.952 23H52C52.2652 23 52.5196 22.8946 52.7071 22.7071C52.8946 22.5196 53 22.2652 53 22V14C53 13.7348 52.8946 13.4804 52.7071 13.2929C52.5196 13.1054 52.2652 13 52 13ZM40 3V9H24V3H40ZM17.847 3H22V10C22 10.2652 22.1054 10.5196 22.2929 10.7071C22.4804 10.8946 22.7348 11 23 11H41C41.2652 11 41.5196 10.8946 41.7071 10.7071C41.8946 10.5196 42 10.2652 42 10V3H46.153L47.819 13H16.181L17.847 3ZM46.047 61H17.947L16.047 23H47.947L46.047 61ZM51 21H13V15H51V21Z" fill="#4D4C7D"/>
<path d="M20 37H44C44.2652 37 44.5196 36.8946 44.7071 36.7071C44.8946 36.5196 45 36.2652 45 36V27C45 26.7348 44.8946 26.4804 44.7071 26.2929C44.5196 26.1054 44.2652 26 44 26H20C19.7348 26 19.4804 26.1054 19.2929 26.2929C19.1054 26.4804 19 26.7348 19 27V36C19 36.2652 19.1054 36.5196 19.2929 36.7071C19.4804 36.8946 19.7348 37 20 37ZM21 28H43V35H21V28Z" fill="#4D4C7D"/>
<path d="M29 57H21C20.7348 57 20.4804 57.1054 20.2929 57.2929C20.1054 57.4804 20 57.7348 20 58C20 58.2652 20.1054 58.5196 20.2929 58.7071C20.4804 58.8946 20.7348 59 21 59H29C29.2652 59 29.5196 58.8946 29.7071 58.7071C29.8946 58.5196 30 58.2652 30 58C30 57.7348 29.8946 57.4804 29.7071 57.2929C29.5196 57.1054 29.2652 57 29 57Z" fill="#4D4C7D"/>
<path d="M33 57H32C31.7348 57 31.4804 57.1054 31.2929 57.2929C31.1054 57.4804 31 57.7348 31 58C31 58.2652 31.1054 58.5196 31.2929 58.7071C31.4804 58.8946 31.7348 59 32 59H33C33.2652 59 33.5196 58.8946 33.7071 58.7071C33.8946 58.5196 34 58.2652 34 58C34 57.7348 33.8946 57.4804 33.7071 57.2929C33.5196 57.1054 33.2652 57 33 57Z" fill="#4D4C7D"/>
</svg>
