<svg width="64" height="64" viewBox="0 0 64 64" fill="none" xmlns="http://www.w3.org/2000/svg">
<path d="M62 43H61C60.7348 43 60.4804 43.1054 60.2929 43.2929C60.1054 43.4804 60 43.7348 60 44C60 44.2652 60.1054 44.5196 60.2929 44.7071C60.4804 44.8946 60.7348 45 61 45H62C62.2652 45 62.5196 44.8946 62.7071 44.7071C62.8946 44.5196 63 44.2652 63 44C63 43.7348 62.8946 43.4804 62.7071 43.2929C62.5196 43.1054 62.2652 43 62 43Z" fill="#4D4C7D"/>
<path d="M35 32H29C28.7348 32 28.4804 32.1054 28.2929 32.2929C28.1054 32.4804 28 32.7348 28 33V36C28 36.2652 28.1054 36.5196 28.2929 36.7071C28.4804 36.8946 28.7348 37 29 37H35C35.2652 37 35.5196 36.8946 35.7071 36.7071C35.8946 36.5196 36 36.2652 36 36V33C36 32.7348 35.8946 32.4804 35.7071 32.2929C35.5196 32.1054 35.2652 32 35 32ZM34 35H30V34H34V35Z" fill="#4D4C7D"/>
<path d="M16 32H10C9.73478 32 9.48043 32.1054 9.29289 32.2929C9.10536 32.4804 9 32.7348 9 33V36C9 36.2652 9.10536 36.5196 9.29289 36.7071C9.48043 36.8946 9.73478 37 10 37H16C16.2652 37 16.5196 36.8946 16.7071 36.7071C16.8946 36.5196 17 36.2652 17 36V33C17 32.7348 16.8946 32.4804 16.7071 32.2929C16.5196 32.1054 16.2652 32 16 32ZM15 35H11V34H15V35Z" fill="#4D4C7D"/>
<path d="M60 26C60 25.7348 59.8946 25.4804 59.7071 25.2929C59.5196 25.1054 59.2652 25 59 25H58.847L57.986 19.835C57.947 19.6017 57.8265 19.3898 57.646 19.2369C57.4654 19.084 57.2366 19.0001 57 19H45C44.7634 19.0001 44.5346 19.084 44.354 19.2369C44.1735 19.3898 44.053 19.6017 44.014 19.835L43.153 25H43C42.7348 25 42.4804 25.1054 42.2929 25.2929C42.1054 25.4804 42 25.7348 42 26V30C42 30.2652 42.1054 30.5196 42.2929 30.7071C42.4804 30.8946 42.7348 31 43 31H43.069L43.926 43H39.074L39.931 31H40C40.2652 31 40.5196 30.8946 40.7071 30.7071C40.8946 30.5196 41 30.2652 41 30V26C41 25.7348 40.8946 25.4804 40.7071 25.2929C40.5196 25.1054 40.2652 25 40 25H39.847L38.986 19.835C38.947 19.6017 38.8265 19.3898 38.646 19.2369C38.4654 19.084 38.2366 19.0001 38 19H26C25.7634 19.0001 25.5346 19.084 25.354 19.2369C25.1735 19.3898 25.053 19.6017 25.014 19.835L24.153 25H24C23.7348 25 23.4804 25.1054 23.2929 25.2929C23.1054 25.4804 23 25.7348 23 26V30C23 30.2652 23.1054 30.5196 23.2929 30.7071C23.4804 30.8946 23.7348 31 24 31H24.069L24.926 43H20.074L20.931 31H21C21.2652 31 21.5196 30.8946 21.7071 30.7071C21.8946 30.5196 22 30.2652 22 30V26C22 25.7348 21.8946 25.4804 21.7071 25.2929C21.5196 25.1054 21.2652 25 21 25H20.847L19.986 19.835C19.947 19.6017 19.8265 19.3898 19.646 19.2369C19.4654 19.084 19.2366 19.0001 19 19H7C6.76344 19.0001 6.53456 19.084 6.35404 19.2369C6.17351 19.3898 6.05303 19.6017 6.014 19.835L5.153 25H5C4.73478 25 4.48043 25.1054 4.29289 25.2929C4.10536 25.4804 4 25.7348 4 26V30C4 30.2652 4.10536 30.5196 4.29289 30.7071C4.48043 30.8946 4.73478 31 5 31H5.069L5.926 43H2C1.73478 43 1.48043 43.1054 1.29289 43.2929C1.10536 43.4804 1 43.7348 1 44C1 44.2652 1.10536 44.5196 1.29289 44.7071C1.48043 44.8946 1.73478 45 2 45H58C58.2566 44.999 58.5028 44.8987 58.6872 44.7203C58.8716 44.5418 58.9798 44.299 58.9893 44.0425C58.9987 43.7861 58.9086 43.536 58.7378 43.3445C58.567 43.1529 58.3288 43.0349 58.073 43.015L58.931 31H59C59.2652 31 59.5196 30.8946 59.7071 30.7071C59.8946 30.5196 60 30.2652 60 30V26ZM44 27H58V29H44V27ZM52 21V22H50V21H52ZM45.847 21H48V23C48 23.2652 48.1054 23.5196 48.2929 23.7071C48.4804 23.8946 48.7348 24 49 24H53C53.2652 24 53.5196 23.8946 53.7071 23.7071C53.8946 23.5196 54 23.2652 54 23V21H56.153L56.819 25H45.181L45.847 21ZM25 27H39V29H25V27ZM33 21V22H31V21H33ZM26.847 21H29V23C29 23.2652 29.1054 23.5196 29.2929 23.7071C29.4804 23.8946 29.7348 24 30 24H34C34.2652 24 34.5196 23.8946 34.7071 23.7071C34.8946 23.5196 35 23.2652 35 23V21H37.153L37.819 25H26.181L26.847 21ZM6 27H20V29H6V27ZM14 21V22H12V21H14ZM7.847 21H10V23C10 23.2652 10.1054 23.5196 10.2929 23.7071C10.4804 23.8946 10.7348 24 11 24H15C15.2652 24 15.5196 23.8946 15.7071 23.7071C15.8946 23.5196 16 23.2652 16 23V21H18.153L18.819 25H7.181L7.847 21ZM7.931 43L7.074 31H18.926L18.069 43H7.931ZM26.931 43L26.074 31H37.926L37.069 43H26.931ZM56.069 43H45.931L45.074 31H56.926L56.069 43Z" fill="#4D4C7D"/>
<path d="M48 37H54C54.2652 37 54.5196 36.8946 54.7071 36.7071C54.8946 36.5196 55 36.2652 55 36V33C55 32.7348 54.8946 32.4804 54.7071 32.2929C54.5196 32.1054 54.2652 32 54 32H48C47.7348 32 47.4804 32.1054 47.2929 32.2929C47.1054 32.4804 47 32.7348 47 33V36C47 36.2652 47.1054 36.5196 47.2929 36.7071C47.4804 36.8946 47.7348 37 48 37ZM49 34H53V35H49V34Z" fill="#4D4C7D"/>
</svg>
