<svg width="64" height="64" viewBox="0 0 64 64" fill="none" xmlns="http://www.w3.org/2000/svg">
<path d="M53 12H48V11C48 10.2044 47.6839 9.44129 47.1213 8.87868C46.5587 8.31607 45.7957 8 45 8H42V6C41.9984 4.67441 41.4711 3.40356 40.5338 2.46622C39.5964 1.52888 38.3256 1.00159 37 1H27C25.6744 1.00159 24.4036 1.52888 23.4662 2.46622C22.5289 3.40356 22.0016 4.67441 22 6V8H19C18.2044 8 17.4413 8.31607 16.8787 8.87868C16.3161 9.44129 16 10.2044 16 11V12H11C10.2044 12 9.44129 12.3161 8.87868 12.8787C8.31607 13.4413 8 14.2044 8 15V21C8 21.2652 8.10536 21.5196 8.29289 21.7071C8.48043 21.8946 8.73478 22 9 22H11V60C11 60.7957 11.3161 61.5587 11.8787 62.1213C12.4413 62.6839 13.2044 63 14 63H50C50.7957 63 51.5587 62.6839 52.1213 62.1213C52.6839 61.5587 53 60.7957 53 60V22H55C55.2652 22 55.5196 21.8946 55.7071 21.7071C55.8946 21.5196 56 21.2652 56 21V15C56 14.2044 55.6839 13.4413 55.1213 12.8787C54.5587 12.3161 53.7957 12 53 12ZM24 6C24 5.20435 24.3161 4.44129 24.8787 3.87868C25.4413 3.31607 26.2044 3 27 3H37C37.7956 3 38.5587 3.31607 39.1213 3.87868C39.6839 4.44129 40 5.20435 40 6V8H24V6ZM18 11C18 10.7348 18.1054 10.4804 18.2929 10.2929C18.4804 10.1054 18.7348 10 19 10H45C45.2652 10 45.5196 10.1054 45.7071 10.2929C45.8946 10.4804 46 10.7348 46 11V12H18V11ZM51 60C51 60.2652 50.8946 60.5196 50.7071 60.7071C50.5196 60.8946 50.2652 61 50 61H14C13.7348 61 13.4804 60.8946 13.2929 60.7071C13.1054 60.5196 13 60.2652 13 60V22H51V60ZM54 20H10V15C10 14.7348 10.1054 14.4804 10.2929 14.2929C10.4804 14.1054 10.7348 14 11 14H53C53.2652 14 53.5196 14.1054 53.7071 14.2929C53.8946 14.4804 54 14.7348 54 15V20Z" fill="#4D4C7D"/>
<path d="M30 55H34C34.2652 55 34.5196 54.8946 34.7071 54.7071C34.8946 54.5196 35 54.2652 35 54V24C35 23.7348 34.8946 23.4804 34.7071 23.2929C34.5196 23.1054 34.2652 23 34 23H30C29.7348 23 29.4804 23.1054 29.2929 23.2929C29.1054 23.4804 29 23.7348 29 24V54C29 54.2652 29.1054 54.5196 29.2929 54.7071C29.4804 54.8946 29.7348 55 30 55ZM31 25H33V53H31V25Z" fill="#4D4C7D"/>
<path d="M19 55H23C23.2652 55 23.5196 54.8946 23.7071 54.7071C23.8946 54.5196 24 54.2652 24 54V24C24 23.7348 23.8946 23.4804 23.7071 23.2929C23.5196 23.1054 23.2652 23 23 23H19C18.7348 23 18.4804 23.1054 18.2929 23.2929C18.1054 23.4804 18 23.7348 18 24V54C18 54.2652 18.1054 54.5196 18.2929 54.7071C18.4804 54.8946 18.7348 55 19 55ZM20 25H22V53H20V25Z" fill="#4D4C7D"/>
<path d="M41 55H45C45.2652 55 45.5196 54.8946 45.7071 54.7071C45.8946 54.5196 46 54.2652 46 54V24C46 23.7348 45.8946 23.4804 45.7071 23.2929C45.5196 23.1054 45.2652 23 45 23H41C40.7348 23 40.4804 23.1054 40.2929 23.2929C40.1054 23.4804 40 23.7348 40 24V54C40 54.2652 40.1054 54.5196 40.2929 54.7071C40.4804 54.8946 40.7348 55 41 55ZM42 25H44V53H42V25Z" fill="#4D4C7D"/>
<path d="M16 59H24C24.2652 59 24.5196 58.8946 24.7071 58.7071C24.8946 58.5196 25 58.2652 25 58C25 57.7348 24.8946 57.4804 24.7071 57.2929C24.5196 57.1054 24.2652 57 24 57H16C15.7348 57 15.4804 57.1054 15.2929 57.2929C15.1054 57.4804 15 57.7348 15 58C15 58.2652 15.1054 58.5196 15.2929 58.7071C15.4804 58.8946 15.7348 59 16 59Z" fill="#4D4C7D"/>
<path d="M27 59H28C28.2652 59 28.5196 58.8946 28.7071 58.7071C28.8946 58.5196 29 58.2652 29 58C29 57.7348 28.8946 57.4804 28.7071 57.2929C28.5196 57.1054 28.2652 57 28 57H27C26.7348 57 26.4804 57.1054 26.2929 57.2929C26.1054 57.4804 26 57.7348 26 58C26 58.2652 26.1054 58.5196 26.2929 58.7071C26.4804 58.8946 26.7348 59 27 59Z" fill="#4D4C7D"/>
</svg>
