<svg width="64" height="64" viewBox="0 0 64 64" fill="none" xmlns="http://www.w3.org/2000/svg">
<path d="M62 43H61C60.7348 43 60.4804 43.1054 60.2929 43.2929C60.1054 43.4804 60 43.7348 60 44C60 44.2652 60.1054 44.5196 60.2929 44.7071C60.4804 44.8946 60.7348 45 61 45H62C62.2652 45 62.5196 44.8946 62.7071 44.7071C62.8946 44.5196 63 44.2652 63 44C63 43.7348 62.8946 43.4804 62.7071 43.2929C62.5196 43.1054 62.2652 43 62 43Z" fill="#4D4C7D"/>
<path d="M32 35C31.7348 35 31.4804 35.1054 31.2929 35.2929C31.1054 35.4804 31 35.7348 31 36V40C31 40.2652 31.1054 40.5196 31.2929 40.7071C31.4804 40.8946 31.7348 41 32 41C32.2652 41 32.5196 40.8946 32.7071 40.7071C32.8946 40.5196 33 40.2652 33 40V36C33 35.7348 32.8946 35.4804 32.7071 35.2929C32.5196 35.1054 32.2652 35 32 35Z" fill="#4D4C7D"/>
<path d="M29 35C28.7348 35 28.4804 35.1054 28.2929 35.2929C28.1054 35.4804 28 35.7348 28 36V40C28 40.2652 28.1054 40.5196 28.2929 40.7071C28.4804 40.8946 28.7348 41 29 41C29.2652 41 29.5196 40.8946 29.7071 40.7071C29.8946 40.5196 30 40.2652 30 40V36C30 35.7348 29.8946 35.4804 29.7071 35.2929C29.5196 35.1054 29.2652 35 29 35Z" fill="#4D4C7D"/>
<path d="M35 35C34.7348 35 34.4804 35.1054 34.2929 35.2929C34.1054 35.4804 34 35.7348 34 36V40C34 40.2652 34.1054 40.5196 34.2929 40.7071C34.4804 40.8946 34.7348 41 35 41C35.2652 41 35.5196 40.8946 35.7071 40.7071C35.8946 40.5196 36 40.2652 36 40V36C36 35.7348 35.8946 35.4804 35.7071 35.2929C35.5196 35.1054 35.2652 35 35 35Z" fill="#4D4C7D"/>
<path d="M13 35C12.7348 35 12.4804 35.1054 12.2929 35.2929C12.1054 35.4804 12 35.7348 12 36V40C12 40.2652 12.1054 40.5196 12.2929 40.7071C12.4804 40.8946 12.7348 41 13 41C13.2652 41 13.5196 40.8946 13.7071 40.7071C13.8946 40.5196 14 40.2652 14 40V36C14 35.7348 13.8946 35.4804 13.7071 35.2929C13.5196 35.1054 13.2652 35 13 35Z" fill="#4D4C7D"/>
<path d="M10 35C9.73478 35 9.48043 35.1054 9.29289 35.2929C9.10536 35.4804 9 35.7348 9 36V40C9 40.2652 9.10536 40.5196 9.29289 40.7071C9.48043 40.8946 9.73478 41 10 41C10.2652 41 10.5196 40.8946 10.7071 40.7071C10.8946 40.5196 11 40.2652 11 40V36C11 35.7348 10.8946 35.4804 10.7071 35.2929C10.5196 35.1054 10.2652 35 10 35Z" fill="#4D4C7D"/>
<path d="M16 35C15.7348 35 15.4804 35.1054 15.2929 35.2929C15.1054 35.4804 15 35.7348 15 36V40C15 40.2652 15.1054 40.5196 15.2929 40.7071C15.4804 40.8946 15.7348 41 16 41C16.2652 41 16.5196 40.8946 16.7071 40.7071C16.8946 40.5196 17 40.2652 17 40V36C17 35.7348 16.8946 35.4804 16.7071 35.2929C16.5196 35.1054 16.2652 35 16 35Z" fill="#4D4C7D"/>
<path d="M60 28C60 27.7348 59.8946 27.4804 59.7071 27.2929C59.5196 27.1054 59.2652 27 59 27H55V26C55 25.4696 54.7893 24.9609 54.4142 24.5858C54.0391 24.2107 53.5304 24 53 24H49C48.4696 24 47.9609 24.2107 47.5858 24.5858C47.2107 24.9609 47 25.4696 47 26V27H43C42.7348 27 42.4804 27.1054 42.2929 27.2929C42.1054 27.4804 42 27.7348 42 28V32C42 32.2652 42.1054 32.5196 42.2929 32.7071C42.4804 32.8946 42.7348 33 43 33H44V43H39V33H40C40.2652 33 40.5196 32.8946 40.7071 32.7071C40.8946 32.5196 41 32.2652 41 32V28C41 27.7348 40.8946 27.4804 40.7071 27.2929C40.5196 27.1054 40.2652 27 40 27H36V26C36 25.4696 35.7893 24.9609 35.4142 24.5858C35.0391 24.2107 34.5304 24 34 24H30C29.4696 24 28.9609 24.2107 28.5858 24.5858C28.2107 24.9609 28 25.4696 28 26V27H24C23.7348 27 23.4804 27.1054 23.2929 27.2929C23.1054 27.4804 23 27.7348 23 28V32C23 32.2652 23.1054 32.5196 23.2929 32.7071C23.4804 32.8946 23.7348 33 24 33H25V43H20V33H21C21.2652 33 21.5196 32.8946 21.7071 32.7071C21.8946 32.5196 22 32.2652 22 32V28C22 27.7348 21.8946 27.4804 21.7071 27.2929C21.5196 27.1054 21.2652 27 21 27H17V26C17 25.4696 16.7893 24.9609 16.4142 24.5858C16.0391 24.2107 15.5304 24 15 24H11C10.4696 24 9.96086 24.2107 9.58579 24.5858C9.21071 24.9609 9 25.4696 9 26V27H5C4.73478 27 4.48043 27.1054 4.29289 27.2929C4.10536 27.4804 4 27.7348 4 28V32C4 32.2652 4.10536 32.5196 4.29289 32.7071C4.48043 32.8946 4.73478 33 5 33H6V43H2C1.73478 43 1.48043 43.1054 1.29289 43.2929C1.10536 43.4804 1 43.7348 1 44C1 44.2652 1.10536 44.5196 1.29289 44.7071C1.48043 44.8946 1.73478 45 2 45H58C58.2652 45 58.5196 44.8946 58.7071 44.7071C58.8946 44.5196 59 44.2652 59 44C59 43.7348 58.8946 43.4804 58.7071 43.2929C58.5196 43.1054 58.2652 43 58 43V33H59C59.2652 33 59.5196 32.8946 59.7071 32.7071C59.8946 32.5196 60 32.2652 60 32V28ZM49 26H53V27H49V26ZM30 26H34V27H30V26ZM25 29H39V31H25V29ZM11 26H15V27H11V26ZM6 29H20V31H6V29ZM8 43V33H18V43H8ZM27 43V33H37V43H27ZM56 43H46V33H56V43ZM58 31H44V29H58V31Z" fill="#4D4C7D"/>
<path d="M51 41C51.2652 41 51.5196 40.8946 51.7071 40.7071C51.8946 40.5196 52 40.2652 52 40V36C52 35.7348 51.8946 35.4804 51.7071 35.2929C51.5196 35.1054 51.2652 35 51 35C50.7348 35 50.4804 35.1054 50.2929 35.2929C50.1054 35.4804 50 35.7348 50 36V40C50 40.2652 50.1054 40.5196 50.2929 40.7071C50.4804 40.8946 50.7348 41 51 41Z" fill="#4D4C7D"/>
<path d="M48 41C48.2652 41 48.5196 40.8946 48.7071 40.7071C48.8946 40.5196 49 40.2652 49 40V36C49 35.7348 48.8946 35.4804 48.7071 35.2929C48.5196 35.1054 48.2652 35 48 35C47.7348 35 47.4804 35.1054 47.2929 35.2929C47.1054 35.4804 47 35.7348 47 36V40C47 40.2652 47.1054 40.5196 47.2929 40.7071C47.4804 40.8946 47.7348 41 48 41Z" fill="#4D4C7D"/>
<path d="M54 41C54.2652 41 54.5196 40.8946 54.7071 40.7071C54.8946 40.5196 55 40.2652 55 40V36C55 35.7348 54.8946 35.4804 54.7071 35.2929C54.5196 35.1054 54.2652 35 54 35C53.7348 35 53.4804 35.1054 53.2929 35.2929C53.1054 35.4804 53 35.7348 53 36V40C53 40.2652 53.1054 40.5196 53.2929 40.7071C53.4804 40.8946 53.7348 41 54 41Z" fill="#4D4C7D"/>
</svg>
