<svg width="64" height="64" viewBox="0 0 64 64" fill="none" xmlns="http://www.w3.org/2000/svg">
<path d="M39 13.059V8C39 7.73478 38.8946 7.48043 38.7071 7.29289C38.5196 7.10536 38.2652 7 38 7H36V2C36 1.73478 35.8946 1.48043 35.7071 1.29289C35.5196 1.10536 35.2652 1 35 1H29C28.7348 1 28.4804 1.10536 28.2929 1.29289C28.1054 1.48043 28 1.73478 28 2V7H26C25.7348 7 25.4804 7.10536 25.2929 7.29289C25.1054 7.48043 25 7.73478 25 8V13.059C22.8013 13.307 20.7708 14.3554 19.2954 16.0043C17.8201 17.6532 17.003 19.7874 17 22V54C17.0026 56.3861 17.9517 58.6738 19.639 60.361C21.3262 62.0483 23.6139 62.9974 26 63H38C40.3861 62.9974 42.6738 62.0483 44.361 60.361C46.0483 58.6738 46.9974 56.3861 47 54V22C46.997 19.7874 46.1799 17.6532 44.7046 16.0043C43.2292 14.3554 41.1987 13.307 39 13.059ZM30 3H34V7H30V3ZM27 9H37V13H27V9ZM26 15H38C39.8559 15.0021 41.6351 15.7403 42.9474 17.0526C44.2597 18.3649 44.9979 20.1441 45 22V25H19V22C19.0021 20.1441 19.7403 18.3649 21.0526 17.0526C22.3649 15.7403 24.1441 15.0021 26 15ZM45 49H19V27H45V49ZM38 61H26C24.1441 60.9979 22.3649 60.2597 21.0526 58.9474C19.7403 57.6351 19.0021 55.8559 19 54V51H45V54C44.9979 55.8559 44.2597 57.6351 42.9474 58.9474C41.6351 60.2597 39.8559 60.9979 38 61Z" fill="#4D4C7D"/>
<path d="M31 57H24C23.7348 57 23.4804 57.1054 23.2929 57.2929C23.1054 57.4804 23 57.7348 23 58C23 58.2652 23.1054 58.5196 23.2929 58.7071C23.4804 58.8946 23.7348 59 24 59H31C31.2652 59 31.5196 58.8946 31.7071 58.7071C31.8946 58.5196 32 58.2652 32 58C32 57.7348 31.8946 57.4804 31.7071 57.2929C31.5196 57.1054 31.2652 57 31 57Z" fill="#4D4C7D"/>
<path d="M35 57H34C33.7348 57 33.4804 57.1054 33.2929 57.2929C33.1054 57.4804 33 57.7348 33 58C33 58.2652 33.1054 58.5196 33.2929 58.7071C33.4804 58.8946 33.7348 59 34 59H35C35.2652 59 35.5196 58.8946 35.7071 58.7071C35.8946 58.5196 36 58.2652 36 58C36 57.7348 35.8946 57.4804 35.7071 57.2929C35.5196 57.1054 35.2652 57 35 57Z" fill="#4D4C7D"/>
</svg>
