<svg width="64" height="64" viewBox="0 0 64 64" fill="none" xmlns="http://www.w3.org/2000/svg">
<path d="M7 60H14C14.2652 60 14.5196 59.8946 14.7071 59.7071C14.8946 59.5196 15 59.2652 15 59C15 58.7348 14.8946 58.4804 14.7071 58.2929C14.5196 58.1054 14.2652 58 14 58H7C6.73478 58 6.48043 58.1054 6.29289 58.2929C6.10536 58.4804 6 58.7348 6 59C6 59.2652 6.10536 59.5196 6.29289 59.7071C6.48043 59.8946 6.73478 60 7 60Z" fill="#4D4C7D"/>
<path d="M17 60H18C18.2652 60 18.5196 59.8946 18.7071 59.7071C18.8946 59.5196 19 59.2652 19 59C19 58.7348 18.8946 58.4804 18.7071 58.2929C18.5196 58.1054 18.2652 58 18 58H17C16.7348 58 16.4804 58.1054 16.2929 58.2929C16.1054 58.4804 16 58.7348 16 59C16 59.2652 16.1054 59.5196 16.2929 59.7071C16.4804 59.8946 16.7348 60 17 60Z" fill="#4D4C7D"/>
<path d="M26 13H23V8C23 7.73478 22.8946 7.48043 22.7071 7.29289C22.5196 7.10536 22.2652 7 22 7H19V2C19 1.73478 18.8946 1.48043 18.7071 1.29289C18.5196 1.10536 18.2652 1 18 1H14C13.7348 1 13.4804 1.10536 13.2929 1.29289C13.1054 1.48043 13 1.73478 13 2V7H10C9.73479 7 9.48043 7.10536 9.2929 7.29289C9.10536 7.48043 9 7.73478 9 8V13H6C5.20435 13 4.44129 13.3161 3.87868 13.8787C3.31607 14.4413 3 15.2044 3 16V28.4C2.99944 28.994 3.17595 29.5748 3.507 30.068L4.426 31.442C4.53585 31.6064 4.59449 31.7997 4.59449 31.9975C4.59449 32.1953 4.53585 32.3886 4.426 32.553L3.5 33.942C3.17332 34.4332 2.99935 35.0101 3 35.6V60C3 60.7957 3.31607 61.5587 3.87868 62.1213C4.44129 62.6839 5.20435 63 6 63H26C26.7957 63 27.5587 62.6839 28.1213 62.1213C28.6839 61.5587 29 60.7957 29 60V35.6C29.0015 35.0081 28.8275 34.4291 28.5 33.936L27.577 32.551C27.4674 32.3867 27.4089 32.1935 27.4089 31.996C27.4089 31.7985 27.4674 31.6053 27.577 31.441L28.495 30.068C28.8255 29.5746 29.0013 28.9938 29 28.4V16C29 15.2044 28.6839 14.4413 28.1213 13.8787C27.5587 13.3161 26.7957 13 26 13ZM15 3H17V7H15V3ZM11 9H21V13H11V9ZM5 16C5 15.7348 5.10536 15.4804 5.2929 15.2929C5.48043 15.1054 5.73479 15 6 15H26C26.2652 15 26.5196 15.1054 26.7071 15.2929C26.8946 15.4804 27 15.7348 27 16V19H5V16ZM27 28.4C26.9999 28.598 26.9411 28.7915 26.831 28.956L25.912 30.329C25.5811 30.8218 25.4043 31.4019 25.4043 31.9955C25.4043 32.5891 25.5811 33.1692 25.912 33.662L26.835 35.046C26.9428 35.2106 27.0002 35.4032 27 35.6V41H5V35.6C5.00015 35.4028 5.0586 35.2101 5.168 35.046L6.091 33.662C6.42204 33.1691 6.59882 32.5888 6.59882 31.995C6.59882 31.4012 6.42204 30.8209 6.091 30.328L5.171 28.954C5.06054 28.7903 5.00104 28.5975 5 28.4V21H27V28.4ZM27 60C27 60.2652 26.8946 60.5196 26.7071 60.7071C26.5196 60.8946 26.2652 61 26 61H6C5.73479 61 5.48043 60.8946 5.2929 60.7071C5.10536 60.5196 5 60.2652 5 60V43H27V60Z" fill="#4D4C7D"/>
<path d="M53 13.059V8C53 7.73478 52.8946 7.48043 52.7071 7.29289C52.5196 7.10536 52.2652 7 52 7H50V2C50 1.73478 49.8946 1.48043 49.7071 1.29289C49.5196 1.10536 49.2652 1 49 1H43C42.7348 1 42.4804 1.10536 42.2929 1.29289C42.1054 1.48043 42 1.73478 42 2V7H40C39.7348 7 39.4804 7.10536 39.2929 7.29289C39.1054 7.48043 39 7.73478 39 8V13.059C36.8013 13.307 34.7708 14.3554 33.2954 16.0043C31.8201 17.6532 31.003 19.7874 31 22V54C31.0026 56.3861 31.9517 58.6738 33.639 60.361C35.3262 62.0483 37.6139 62.9974 40 63H52C54.3861 62.9974 56.6738 62.0483 58.361 60.361C60.0483 58.6738 60.9974 56.3861 61 54V22C60.997 19.7874 60.1799 17.6532 58.7046 16.0043C57.2292 14.3554 55.1987 13.307 53 13.059ZM44 3H48V7H44V3ZM41 9H51V13H41V9ZM40 15H52C53.8559 15.0021 55.6351 15.7403 56.9474 17.0526C58.2597 18.3649 58.9979 20.1441 59 22V25H33V22C33.0021 20.1441 33.7403 18.3649 35.0526 17.0526C36.3649 15.7403 38.1441 15.0021 40 15ZM59 49H33V27H59V49ZM52 61H40C38.1441 60.9979 36.3649 60.2597 35.0526 58.9474C33.7403 57.6351 33.0021 55.8559 33 54V51H59V54C58.9979 55.8559 58.2597 57.6351 56.9474 58.9474C55.6351 60.2597 53.8559 60.9979 52 61Z" fill="#4D4C7D"/>
<path d="M45 57H38C37.7348 57 37.4804 57.1054 37.2929 57.2929C37.1054 57.4804 37 57.7348 37 58C37 58.2652 37.1054 58.5196 37.2929 58.7071C37.4804 58.8946 37.7348 59 38 59H45C45.2652 59 45.5196 58.8946 45.7071 58.7071C45.8946 58.5196 46 58.2652 46 58C46 57.7348 45.8946 57.4804 45.7071 57.2929C45.5196 57.1054 45.2652 57 45 57Z" fill="#4D4C7D"/>
<path d="M49 57H48C47.7348 57 47.4804 57.1054 47.2929 57.2929C47.1054 57.4804 47 57.7348 47 58C47 58.2652 47.1054 58.5196 47.2929 58.7071C47.4804 58.8946 47.7348 59 48 59H49C49.2652 59 49.5196 58.8946 49.7071 58.7071C49.8946 58.5196 50 58.2652 50 58C50 57.7348 49.8946 57.4804 49.7071 57.2929C49.5196 57.1054 49.2652 57 49 57Z" fill="#4D4C7D"/>
</svg>
