<svg width="64" height="64" viewBox="0 0 64 64" fill="none" xmlns="http://www.w3.org/2000/svg">
<path d="M44.188 17.575C42.7894 16.0554 40.9916 14.9596 39 14.413V13C39 12.2044 38.6839 11.4413 38.1213 10.8787C37.5587 10.3161 36.7957 10 36 10H33V7H36C36.7957 7 37.5587 6.68393 38.1213 6.12132C38.6839 5.55871 39 4.79565 39 4C39 3.20435 38.6839 2.44129 38.1213 1.87868C37.5587 1.31607 36.7957 1 36 1H26C25.7348 1 25.4804 1.10536 25.2929 1.29289C25.1054 1.48043 25 1.73478 25 2V6C25 6.26522 25.1054 6.51957 25.2929 6.70711C25.4804 6.89464 25.7348 7 26 7H31V10H28C27.2044 10 26.4413 10.3161 25.8787 10.8787C25.3161 11.4413 25 12.2044 25 13V14.413C22.5183 15.0903 20.3541 16.6191 18.8863 18.7317C17.4185 20.8443 16.7409 23.406 16.972 25.968L19.68 58.442C19.7846 59.6888 20.3553 60.8504 21.2783 61.6952C22.2013 62.54 23.4088 63.0059 24.66 63H39.34C40.592 63.0058 41.8002 62.5392 42.7233 61.6934C43.6464 60.8476 44.2166 59.6847 44.32 58.437L47.028 25.974C47.1619 24.4537 46.9786 22.9221 46.4898 21.4763C46.0009 20.0306 45.2171 18.7021 44.188 17.575ZM27 5V3H36C36.2652 3 36.5196 3.10536 36.7071 3.29289C36.8947 3.48043 37 3.73478 37 4C37 4.26522 36.8947 4.51957 36.7071 4.70711C36.5196 4.89464 36.2652 5 36 5H27ZM27 14V13C27 12.7348 27.1054 12.4804 27.2929 12.2929C27.4804 12.1054 27.7348 12 28 12H36C36.2652 12 36.5196 12.1054 36.7071 12.2929C36.8947 12.4804 37 12.7348 37 13V14H27ZM45.036 25.8L42.328 58.266C42.2649 59.0139 41.9224 59.7106 41.3686 60.2173C40.8149 60.7239 40.0906 61.0034 39.34 61H24.66C23.9102 61.0035 23.1866 60.7247 22.633 60.2191C22.0794 59.7135 21.7363 59.018 21.672 58.271L18.964 25.8C18.853 24.5556 19.0022 23.3016 19.4023 22.118C19.8024 20.9344 20.4445 19.8471 21.2878 18.9252C22.1311 18.0034 23.1571 17.2672 24.3005 16.7636C25.4439 16.26 26.6796 15.9999 27.929 16H36.071C37.3204 15.9999 38.5561 16.26 39.6995 16.7636C40.8429 17.2672 41.8689 18.0034 42.7122 18.9252C43.5555 19.8471 44.1976 20.9344 44.5977 22.118C44.9978 23.3016 45.1471 24.5556 45.036 25.8Z" fill="#4D4C7D"/>
<path d="M31 57H24C23.7348 57 23.4804 57.1054 23.2929 57.2929C23.1054 57.4804 23 57.7348 23 58C23 58.2652 23.1054 58.5196 23.2929 58.7071C23.4804 58.8946 23.7348 59 24 59H31C31.2652 59 31.5196 58.8946 31.7071 58.7071C31.8946 58.5196 32 58.2652 32 58C32 57.7348 31.8946 57.4804 31.7071 57.2929C31.5196 57.1054 31.2652 57 31 57Z" fill="#4D4C7D"/>
<path d="M35 57H34C33.7348 57 33.4804 57.1054 33.2929 57.2929C33.1054 57.4804 33 57.7348 33 58C33 58.2652 33.1054 58.5196 33.2929 58.7071C33.4804 58.8946 33.7348 59 34 59H35C35.2652 59 35.5196 58.8946 35.7071 58.7071C35.8946 58.5196 36 58.2652 36 58C36 57.7348 35.8946 57.4804 35.7071 57.2929C35.5196 57.1054 35.2652 57 35 57Z" fill="#4D4C7D"/>
</svg>
