<svg width="64" height="64" viewBox="0 0 64 64" fill="none" xmlns="http://www.w3.org/2000/svg">
<path d="M27 57H20C19.7348 57 19.4804 57.1054 19.2929 57.2929C19.1054 57.4804 19 57.7348 19 58C19 58.2652 19.1054 58.5196 19.2929 58.7071C19.4804 58.8946 19.7348 59 20 59H27C27.2652 59 27.5196 58.8946 27.7071 58.7071C27.8946 58.5196 28 58.2652 28 58C28 57.7348 27.8946 57.4804 27.7071 57.2929C27.5196 57.1054 27.2652 57 27 57Z" fill="#4D4C7D"/>
<path d="M31 57H30C29.7348 57 29.4804 57.1054 29.2929 57.2929C29.1054 57.4804 29 57.7348 29 58C29 58.2652 29.1054 58.5196 29.2929 58.7071C29.4804 58.8946 29.7348 59 30 59H31C31.2652 59 31.5196 58.8946 31.7071 58.7071C31.8946 58.5196 32 58.2652 32 58C32 57.7348 31.8946 57.4804 31.7071 57.2929C31.5196 57.1054 31.2652 57 31 57Z" fill="#4D4C7D"/>
<path d="M47.507 17.389C46.4836 16.3132 45.2513 15.4578 43.8857 14.875C42.52 14.2923 41.0498 13.9945 39.565 14H39V13C39 12.2044 38.6839 11.4413 38.1213 10.8787C37.5587 10.3161 36.7956 10 36 10H33V7H36C36.7956 7 37.5587 6.68393 38.1213 6.12132C38.6839 5.55871 39 4.79565 39 4C39 3.20435 38.6839 2.44129 38.1213 1.87868C37.5587 1.31607 36.7956 1 36 1H26C25.7348 1 25.4804 1.10536 25.2929 1.29289C25.1054 1.48043 25 1.73478 25 2V6C25 6.26522 25.1054 6.51957 25.2929 6.70711C25.4804 6.89464 25.7348 7 26 7H31V10H28C27.2043 10 26.4413 10.3161 25.8787 10.8787C25.3161 11.4413 25 12.2044 25 13V14H24.435C22.9511 14 21.4825 14.3003 20.1176 14.8827C18.7527 15.4651 17.5198 16.3177 16.4931 17.3891C15.4664 18.4605 14.667 19.7286 14.1432 21.117C13.6194 22.5054 13.3819 23.9854 13.445 25.468L14.838 58.212C14.89 59.5011 15.4393 60.7199 16.3706 61.6126C17.3019 62.5053 18.5429 63.0026 19.833 63H44.167C45.4571 63.0026 46.6981 62.5053 47.6294 61.6126C48.5607 60.7199 49.11 59.5011 49.162 58.212L50.555 25.468C50.624 23.9848 50.3892 22.5031 49.8651 21.1138C49.341 19.7245 48.5385 18.457 47.507 17.389ZM27 5V3H36C36.2652 3 36.5196 3.10536 36.7071 3.29289C36.8946 3.48043 37 3.73478 37 4C37 4.26522 36.8946 4.51957 36.7071 4.70711C36.5196 4.89464 36.2652 5 36 5H27ZM27 13C27 12.7348 27.1054 12.4804 27.2929 12.2929C27.4804 12.1054 27.7348 12 28 12H36C36.2652 12 36.5196 12.1054 36.7071 12.2929C36.8946 12.4804 37 12.7348 37 13V14H27V13ZM47.164 58.127C47.1327 58.9009 46.8027 59.6326 46.2433 60.1684C45.6838 60.7041 44.9386 61.0022 44.164 61H19.833C19.0584 61.0022 18.3132 60.7041 17.7537 60.1684C17.1943 59.6326 16.8643 58.9009 16.833 58.127L15.443 25.383C15.3913 24.1699 15.5856 22.959 16.0142 21.823C16.4428 20.687 17.0969 19.6495 17.9369 18.7729C18.777 17.8963 19.7858 17.1987 20.9025 16.7222C22.0192 16.2456 23.2208 16 24.435 16H39.565C40.7791 16 41.9808 16.2456 43.0975 16.7222C44.2142 17.1987 45.223 17.8963 46.0631 18.7729C46.9031 19.6495 47.5572 20.687 47.9858 21.823C48.4144 22.959 48.6087 24.1699 48.557 25.383L47.164 58.127Z" fill="#4D4C7D"/>
</svg>
