<svg width="64" height="64" viewBox="0 0 64 64" fill="none" xmlns="http://www.w3.org/2000/svg">
    <path
        d="M41 45H40V42C40 41.7348 39.8946 41.4804 39.7071 41.2929C39.5196 41.1054 39.2652 41 39 41H35V3C35 2.46957 34.7893 1.96086 34.4142 1.58579C34.0391 1.21071 33.5304 1 33 1H31C30.4696 1 29.9609 1.21071 29.5858 1.58579C29.2107 1.96086 29 2.46957 29 3V41H25C24.7348 41 24.4804 41.1054 24.2929 41.2929C24.1054 41.4804 24 41.7348 24 42V45H23C22.7348 45 22.4804 45.1054 22.2929 45.2929C22.1054 45.4804 22 45.7348 22 46V50C22 50.2652 22.1054 50.5196 22.2929 50.7071C22.4804 50.8946 22.7348 51 23 51H23.914L23 61.917C22.9885 62.0551 23.0058 62.1941 23.0509 62.3252C23.096 62.4563 23.1678 62.5766 23.2619 62.6784C23.3559 62.7802 23.4701 62.8614 23.5971 62.9168C23.7242 62.9721 23.8614 63.0005 24 63H40C40.1386 63.0005 40.2758 62.9721 40.4029 62.9168C40.5299 62.8614 40.6441 62.7802 40.7382 62.6784C40.8322 62.5766 40.904 62.4563 40.9491 62.3252C40.9942 62.1941 41.0115 62.0551 41 61.917L40.086 51H41C41.2652 51 41.5196 50.8946 41.7071 50.7071C41.8946 50.5196 42 50.2652 42 50V46C42 45.7348 41.8946 45.4804 41.7071 45.2929C41.5196 45.1054 41.2652 45 41 45ZM31 3H33V41H31V3ZM26 43H38V45H26V43ZM24 47H40V49H24V47ZM38.913 61H37V55C37 54.7348 36.8946 54.4804 36.7071 54.2929C36.5196 54.1054 36.2652 54 36 54C35.7348 54 35.4804 54.1054 35.2929 54.2929C35.1054 54.4804 35 54.7348 35 55V61H33V57C33 56.7348 32.8946 56.4804 32.7071 56.2929C32.5196 56.1054 32.2652 56 32 56C31.7348 56 31.4804 56.1054 31.2929 56.2929C31.1054 56.4804 31 56.7348 31 57V61H29V56C29 55.7348 28.8946 55.4804 28.7071 55.2929C28.5196 55.1054 28.2652 55 28 55C27.7348 55 27.4804 55.1054 27.2929 55.2929C27.1054 55.4804 27 55.7348 27 56V61H25.087L25.92 51H38.08L38.913 61Z"
        fill="#4D4C7D" />
    <path
        d="M32 55C32.2652 55 32.5196 54.8946 32.7071 54.7071C32.8946 54.5196 33 54.2652 33 54V53C33 52.7348 32.8946 52.4804 32.7071 52.2929C32.5196 52.1054 32.2652 52 32 52C31.7348 52 31.4804 52.1054 31.2929 52.2929C31.1054 52.4804 31 52.7348 31 53V54C31 54.2652 31.1054 54.5196 31.2929 54.7071C31.4804 54.8946 31.7348 55 32 55Z"
        fill="#4D4C7D" />
</svg>
