<svg width="64" height="64" viewBox="0 0 64 64" fill="none" xmlns="http://www.w3.org/2000/svg">
<path d="M30 45H29V42C29 41.7348 28.8946 41.4804 28.7071 41.2929C28.5196 41.1054 28.2652 41 28 41H24V3C24 2.46957 23.7893 1.96086 23.4142 1.58579C23.0391 1.21071 22.5304 1 22 1H20C19.4696 1 18.9609 1.21071 18.5858 1.58579C18.2107 1.96086 18 2.46957 18 3V41H14C13.7348 41 13.4804 41.1054 13.2929 41.2929C13.1054 41.4804 13 41.7348 13 42V45H12C11.7348 45 11.4804 45.1054 11.2929 45.2929C11.1054 45.4804 11 45.7348 11 46V50C11 50.2652 11.1054 50.5196 11.2929 50.7071C11.4804 50.8946 11.7348 51 12 51H12.914L12 61.917C11.9885 62.0551 12.0058 62.1941 12.0509 62.3252C12.096 62.4563 12.1678 62.5766 12.2618 62.6784C12.3559 62.7802 12.4701 62.8614 12.5971 62.9168C12.7242 62.9721 12.8614 63.0005 13 63H29C29.1386 63.0005 29.2758 62.9721 29.4029 62.9168C29.5299 62.8614 29.6441 62.7802 29.7381 62.6784C29.8322 62.5766 29.904 62.4563 29.9491 62.3252C29.9942 62.1941 30.0115 62.0551 30 61.917L29.086 51H30C30.2652 51 30.5196 50.8946 30.7071 50.7071C30.8946 50.5196 31 50.2652 31 50V46C31 45.7348 30.8946 45.4804 30.7071 45.2929C30.5196 45.1054 30.2652 45 30 45ZM20 3H22V41H20V3ZM15 43H27V45H15V43ZM13 47H29V49H13V47ZM27.913 61H26V55C26 54.7348 25.8946 54.4804 25.7071 54.2929C25.5196 54.1054 25.2652 54 25 54C24.7348 54 24.4804 54.1054 24.2929 54.2929C24.1054 54.4804 24 54.7348 24 55V61H22V57C22 56.7348 21.8946 56.4804 21.7071 56.2929C21.5196 56.1054 21.2652 56 21 56C20.7348 56 20.4804 56.1054 20.2929 56.2929C20.1054 56.4804 20 56.7348 20 57V61H18V56C18 55.7348 17.8946 55.4804 17.7071 55.2929C17.5196 55.1054 17.2652 55 17 55C16.7348 55 16.4804 55.1054 16.2929 55.2929C16.1054 55.4804 16 55.7348 16 56V61H14.087L14.92 51H27.08L27.913 61Z" fill="#4D4C7D"/>
<path d="M21 55C21.2652 55 21.5196 54.8946 21.7071 54.7071C21.8946 54.5196 22 54.2652 22 54V53C22 52.7348 21.8946 52.4804 21.7071 52.2929C21.5196 52.1054 21.2652 52 21 52C20.7348 52 20.4804 52.1054 20.2929 52.2929C20.1054 52.4804 20 52.7348 20 53V54C20 54.2652 20.1054 54.5196 20.2929 54.7071C20.4804 54.8946 20.7348 55 21 55Z" fill="#4D4C7D"/>
<path d="M50.988 48.848C50.9517 48.612 50.8321 48.3967 50.6509 48.2412C50.4697 48.0856 50.2388 48.0001 50 48H46V42C46 41.4696 45.7893 40.9609 45.4142 40.5858C45.0391 40.2107 44.5304 40 44 40H42C41.4696 40 40.9608 40.2107 40.5858 40.5858C40.2107 40.9609 40 41.4696 40 42V48H36C35.7612 48.0001 35.5303 48.0856 35.3491 48.2412C35.1679 48.3967 35.0483 48.612 35.012 48.848L33.012 61.848C32.9901 61.9905 32.9992 62.136 33.0388 62.2746C33.0784 62.4132 33.1475 62.5416 33.2413 62.651C33.3351 62.7604 33.4515 62.8483 33.5825 62.9085C33.7134 62.9687 33.8558 62.9999 34 63H52C52.1441 62.9999 52.2866 62.9687 52.4175 62.9085C52.5485 62.8483 52.6648 62.7604 52.7587 62.651C52.8525 62.5416 52.9216 62.4132 52.9612 62.2746C53.0007 62.136 53.0099 61.9905 52.988 61.848L50.988 48.848ZM42 42H44V48H42V42ZM39.117 61L39.896 54H46.1L46.879 61H39.117ZM48.9 61L48 52.89C47.9728 52.6443 47.8556 52.4173 47.6709 52.253C47.4862 52.0886 47.2472 51.9985 47 52H39C38.7538 52 38.5163 52.0908 38.3329 52.255C38.1495 52.4192 38.0331 52.6453 38.006 52.89L37.1 61H35.166L36.858 50H49.142L50.834 61H48.9Z" fill="#4D4C7D"/>
</svg>
