<svg width="64" height="64" viewBox="0 0 64 64" fill="none" xmlns="http://www.w3.org/2000/svg">
<path d="M19 42C21.5712 42 24.0846 41.2376 26.2224 39.8091C28.3603 38.3807 30.0265 36.3503 31.0104 33.9749C31.9944 31.5995 32.2518 28.9856 31.7502 26.4638C31.2486 23.9421 30.0105 21.6257 28.1924 19.8076C26.3743 17.9895 24.0579 16.7514 21.5362 16.2498C19.0144 15.7482 16.4006 16.0056 14.0251 16.9896C11.6497 17.9735 9.61935 19.6398 8.1909 21.7776C6.76244 23.9154 6 26.4288 6 29C6.00397 32.4466 7.37488 35.7509 9.812 38.188C12.2491 40.6251 15.5534 41.996 19 42ZM19 18C21.1756 18 23.3023 18.6451 25.1113 19.8538C26.9202 21.0625 28.3301 22.7805 29.1627 24.7905C29.9952 26.8005 30.2131 29.0122 29.7886 31.146C29.3642 33.2798 28.3166 35.2398 26.7782 36.7782C25.2398 38.3166 23.2798 39.3642 21.146 39.7886C19.0122 40.2131 16.8005 39.9952 14.7905 39.1627C12.7805 38.3301 11.0625 36.9202 9.85383 35.1113C8.64514 33.3023 8 31.1756 8 29C8.00344 26.0837 9.16347 23.2878 11.2256 21.2256C13.2878 19.1635 16.0837 18.0034 19 18Z" fill="#4D4C7D"/>
<path d="M12 29C12.0021 27.1441 12.7403 25.3649 14.0526 24.0526C15.3649 22.7403 17.1441 22.0021 19 22C19.2652 22 19.5196 21.8946 19.7071 21.7071C19.8946 21.5196 20 21.2652 20 21C20 20.7348 19.8946 20.4804 19.7071 20.2929C19.5196 20.1054 19.2652 20 19 20C16.6139 20.0029 14.3265 20.9521 12.6393 22.6393C10.9521 24.3265 10.0029 26.6139 10 29C10 29.2652 10.1054 29.5196 10.2929 29.7071C10.4804 29.8946 10.7348 30 11 30C11.2652 30 11.5196 29.8946 11.7071 29.7071C11.8946 29.5196 12 29.2652 12 29Z" fill="#4D4C7D"/>
<path d="M43 37C40.4288 37 37.9154 37.7624 35.7776 39.1909C33.6398 40.6194 31.9735 42.6497 30.9896 45.0251C30.0056 47.4006 29.7482 50.0144 30.2498 52.5362C30.7514 55.0579 31.9895 57.3743 33.8076 59.1924C35.6257 61.0105 37.9421 62.2486 40.4638 62.7502C42.9856 63.2518 45.5995 62.9944 47.9749 62.0104C50.3503 61.0265 52.3807 59.3603 53.8091 57.2224C55.2376 55.0846 56 52.5712 56 50C55.996 46.5534 54.6251 43.2491 52.188 40.812C49.7509 38.3749 46.4466 37.004 43 37ZM43 61C40.8244 61 38.6977 60.3549 36.8887 59.1462C35.0798 57.9375 33.6699 56.2195 32.8373 54.2095C32.0048 52.1995 31.7869 49.9878 32.2114 47.854C32.6358 45.7202 33.6835 43.7602 35.2218 42.2218C36.7602 40.6834 38.7202 39.6358 40.854 39.2114C42.9878 38.7869 45.1995 39.0048 47.2095 39.8373C49.2195 40.6699 50.9375 42.0798 52.1462 43.8887C53.3549 45.6977 54 47.8244 54 50C53.9966 52.9163 52.8365 55.7122 50.7744 57.7744C48.7122 59.8365 45.9163 60.9966 43 61Z" fill="#4D4C7D"/>
<path d="M43 41C40.6139 41.0029 38.3265 41.9521 36.6393 43.6393C34.9521 45.3265 34.0029 47.6139 34 50C34 50.2652 34.1054 50.5196 34.2929 50.7071C34.4804 50.8946 34.7348 51 35 51C35.2652 51 35.5196 50.8946 35.7071 50.7071C35.8946 50.5196 36 50.2652 36 50C36.0021 48.1441 36.7403 46.3649 38.0526 45.0526C39.3649 43.7403 41.1441 43.0021 43 43C43.2652 43 43.5196 42.8946 43.7071 42.7071C43.8946 42.5196 44 42.2652 44 42C44 41.7348 43.8946 41.4804 43.7071 41.2929C43.5196 41.1054 43.2652 41 43 41Z" fill="#4D4C7D"/>
<path d="M37 15C38.3845 15 39.7378 14.5895 40.889 13.8203C42.0401 13.0511 42.9373 11.9579 43.4672 10.6788C43.997 9.3997 44.1356 7.99224 43.8655 6.63437C43.5954 5.2765 42.9287 4.02922 41.9497 3.05026C40.9708 2.07129 39.7235 1.4046 38.3656 1.13451C37.0078 0.86441 35.6003 1.00303 34.3212 1.53285C33.0421 2.06266 31.9489 2.95987 31.1797 4.11101C30.4105 5.26216 30 6.61553 30 8C30.0021 9.85587 30.7403 11.6351 32.0526 12.9474C33.3649 14.2597 35.1441 14.9979 37 15ZM37 3C37.9889 3 38.9556 3.29325 39.7779 3.84265C40.6001 4.39206 41.241 5.17296 41.6194 6.08659C41.9978 7.00022 42.0969 8.00555 41.9039 8.97545C41.711 9.94536 41.2348 10.8363 40.5355 11.5355C39.8363 12.2348 38.9454 12.711 37.9755 12.9039C37.0055 13.0969 36.0002 12.9978 35.0866 12.6194C34.173 12.241 33.3921 11.6001 32.8427 10.7779C32.2932 9.95561 32 8.98891 32 8C32.0016 6.67441 32.5289 5.40356 33.4662 4.46622C34.4036 3.52889 35.6744 3.00159 37 3Z" fill="#4D4C7D"/>
<path d="M35 8C35 7.46957 35.2107 6.96086 35.5858 6.58579C35.9609 6.21071 36.4696 6 37 6C37.2652 6 37.5196 5.89464 37.7071 5.70711C37.8946 5.51957 38 5.26522 38 5C38 4.73478 37.8946 4.48043 37.7071 4.29289C37.5196 4.10536 37.2652 4 37 4C35.9391 4 34.9217 4.42143 34.1716 5.17157C33.4214 5.92172 33 6.93913 33 8C33 8.26522 33.1054 8.51957 33.2929 8.70711C33.4804 8.89464 33.7348 9 34 9C34.2652 9 34.5196 8.89464 34.7071 8.70711C34.8946 8.51957 35 8.26522 35 8Z" fill="#4D4C7D"/>
<path d="M28 51C28 49.6155 27.5895 48.2622 26.8203 47.111C26.0511 45.9599 24.9579 45.0627 23.6788 44.5328C22.3997 44.003 20.9922 43.8644 19.6344 44.1345C18.2765 44.4046 17.0292 45.0713 16.0503 46.0503C15.0713 47.0292 14.4046 48.2765 14.1345 49.6344C13.8644 50.9922 14.003 52.3997 14.5328 53.6788C15.0627 54.9579 15.9599 56.0511 17.111 56.8203C18.2622 57.5895 19.6155 58 21 58C22.8559 57.9979 24.6351 57.2597 25.9474 55.9474C27.2597 54.6351 27.9979 52.8559 28 51ZM21 56C20.0111 56 19.0444 55.7068 18.2222 55.1574C17.3999 54.6079 16.759 53.8271 16.3806 52.9134C16.0022 51.9998 15.9031 50.9945 16.0961 50.0246C16.289 49.0546 16.7652 48.1637 17.4645 47.4645C18.1637 46.7652 19.0546 46.289 20.0246 46.0961C20.9945 45.9032 21.9998 46.0022 22.9134 46.3806C23.8271 46.759 24.6079 47.3999 25.1574 48.2222C25.7068 49.0444 26 50.0111 26 51C25.9984 52.3256 25.4711 53.5964 24.5338 54.5338C23.5964 55.4711 22.3256 55.9984 21 56Z" fill="#4D4C7D"/>
<path d="M21 47C19.9391 47 18.9217 47.4214 18.1716 48.1716C17.4214 48.9217 17 49.9391 17 51C17 51.2652 17.1054 51.5196 17.2929 51.7071C17.4804 51.8946 17.7348 52 18 52C18.2652 52 18.5196 51.8946 18.7071 51.7071C18.8946 51.5196 19 51.2652 19 51C19 50.4696 19.2107 49.9609 19.5858 49.5858C19.9609 49.2107 20.4696 49 21 49C21.2652 49 21.5196 48.8946 21.7071 48.7071C21.8946 48.5196 22 48.2652 22 48C22 47.7348 21.8946 47.4804 21.7071 47.2929C21.5196 47.1054 21.2652 47 21 47Z" fill="#4D4C7D"/>
<path d="M40 26C40 27.78 40.5278 29.5201 41.5168 31.0001C42.5057 32.4802 43.9113 33.6337 45.5559 34.3149C47.2004 34.9961 49.01 35.1743 50.7558 34.8271C52.5016 34.4798 54.1053 33.6226 55.364 32.364C56.6226 31.1053 57.4798 29.5016 57.8271 27.7558C58.1743 26.01 57.9961 24.2004 57.3149 22.5558C56.6337 20.9113 55.4802 19.5057 54.0001 18.5168C52.5201 17.5278 50.78 17 49 17C46.6139 17.0029 44.3265 17.9521 42.6393 19.6393C40.9521 21.3265 40.0029 23.6139 40 26ZM49 19C50.3845 19 51.7378 19.4105 52.889 20.1797C54.0401 20.9489 54.9373 22.0421 55.4672 23.3212C55.997 24.6003 56.1356 26.0078 55.8655 27.3656C55.5954 28.7235 54.9287 29.9708 53.9497 30.9497C52.9708 31.9287 51.7235 32.5954 50.3656 32.8655C49.0078 33.1356 47.6003 32.997 46.3212 32.4672C45.0421 31.9373 43.9489 31.0401 43.1797 29.889C42.4105 28.7378 42 27.3845 42 26C42.0021 24.1441 42.7403 22.3649 44.0526 21.0526C45.3649 19.7403 47.1441 19.0021 49 19Z" fill="#4D4C7D"/>
<path d="M45 27C45.2652 27 45.5196 26.8946 45.7071 26.7071C45.8946 26.5196 46 26.2652 46 26C46 25.2044 46.3161 24.4413 46.8787 23.8787C47.4413 23.3161 48.2044 23 49 23C49.2652 23 49.5196 22.8946 49.7071 22.7071C49.8946 22.5196 50 22.2652 50 22C50 21.7348 49.8946 21.4804 49.7071 21.2929C49.5196 21.1054 49.2652 21 49 21C47.6744 21.0016 46.4036 21.5289 45.4662 22.4662C44.5289 23.4036 44.0016 24.6744 44 26C44 26.2652 44.1054 26.5196 44.2929 26.7071C44.4804 26.8946 44.7348 27 45 27Z" fill="#4D4C7D"/>
<path d="M24 14C24.5933 14 25.1734 13.8241 25.6667 13.4944C26.1601 13.1648 26.5446 12.6962 26.7716 12.1481C26.9987 11.5999 27.0581 10.9967 26.9424 10.4147C26.8266 9.83279 26.5409 9.29824 26.1213 8.87868C25.7018 8.45912 25.1672 8.1734 24.5853 8.05765C24.0033 7.94189 23.4001 8.0013 22.8519 8.22836C22.3038 8.45543 21.8352 8.83994 21.5056 9.33329C21.1759 9.82664 21 10.4067 21 11C21 11.7957 21.3161 12.5587 21.8787 13.1213C22.4413 13.6839 23.2044 14 24 14ZM24 10C24.1978 10 24.3911 10.0587 24.5556 10.1685C24.72 10.2784 24.8482 10.4346 24.9239 10.6173C24.9996 10.8 25.0194 11.0011 24.9808 11.1951C24.9422 11.3891 24.847 11.5673 24.7071 11.7071C24.5673 11.847 24.3891 11.9422 24.1951 11.9808C24.0011 12.0194 23.8 11.9996 23.6173 11.9239C23.4346 11.8482 23.2784 11.72 23.1685 11.5556C23.0586 11.3911 23 11.1978 23 11C23 10.7348 23.1054 10.4804 23.2929 10.2929C23.4804 10.1054 23.7348 10 24 10Z" fill="#4D4C7D"/>
<path d="M39 20C39 19.4067 38.8241 18.8266 38.4944 18.3333C38.1648 17.8399 37.6962 17.4554 37.148 17.2284C36.5999 17.0013 35.9967 16.9419 35.4147 17.0576C34.8328 17.1734 34.2982 17.4591 33.8787 17.8787C33.4591 18.2982 33.1734 18.8328 33.0576 19.4147C32.9419 19.9967 33.0013 20.5999 33.2284 21.1481C33.4554 21.6962 33.8399 22.1648 34.3333 22.4944C34.8266 22.8241 35.4067 23 36 23C36.7957 23 37.5587 22.6839 38.1213 22.1213C38.6839 21.5587 39 20.7957 39 20ZM35 20C35 19.8022 35.0586 19.6089 35.1685 19.4444C35.2784 19.28 35.4346 19.1518 35.6173 19.0761C35.8 19.0004 36.0011 18.9806 36.1951 19.0192C36.3891 19.0578 36.5673 19.153 36.7071 19.2929C36.847 19.4327 36.9422 19.6109 36.9808 19.8049C37.0194 19.9989 36.9996 20.2 36.9239 20.3827C36.8482 20.5654 36.72 20.7216 36.5556 20.8315C36.3911 20.9414 36.1978 21 36 21C35.7348 21 35.4804 20.8946 35.2929 20.7071C35.1054 20.5196 35 20.2652 35 20Z" fill="#4D4C7D"/>
<path d="M37 37C37.5933 37 38.1734 36.8241 38.6667 36.4944C39.1601 36.1648 39.5446 35.6962 39.7716 35.148C39.9987 34.5999 40.0581 33.9967 39.9424 33.4147C39.8266 32.8328 39.5409 32.2982 39.1213 31.8787C38.7018 31.4591 38.1672 31.1734 37.5853 31.0576C37.0033 30.9419 36.4001 31.0013 35.852 31.2284C35.3038 31.4554 34.8352 31.8399 34.5056 32.3333C34.1759 32.8266 34 33.4067 34 34C34 34.7957 34.3161 35.5587 34.8787 36.1213C35.4413 36.6839 36.2044 37 37 37ZM37 33C37.1978 33 37.3911 33.0586 37.5556 33.1685C37.72 33.2784 37.8482 33.4346 37.9239 33.6173C37.9996 33.8 38.0194 34.0011 37.9808 34.1951C37.9422 34.3891 37.847 34.5673 37.7071 34.7071C37.5673 34.847 37.3891 34.9422 37.1951 34.9808C37.0011 35.0194 36.8 34.9996 36.6173 34.9239C36.4346 34.8482 36.2784 34.72 36.1685 34.5556C36.0586 34.3911 36 34.1978 36 34C36 33.7348 36.1054 33.4804 36.2929 33.2929C36.4804 33.1054 36.7348 33 37 33Z" fill="#4D4C7D"/>
<path d="M11 42C10.4067 42 9.82664 42.1759 9.33329 42.5056C8.83994 42.8352 8.45543 43.3038 8.22836 43.852C8.0013 44.4001 7.94189 45.0033 8.05765 45.5853C8.1734 46.1672 8.45912 46.7018 8.87868 47.1213C9.29824 47.5409 9.83279 47.8266 10.4147 47.9424C10.9967 48.0581 11.5999 47.9987 12.1481 47.7716C12.6962 47.5446 13.1648 47.1601 13.4944 46.6667C13.8241 46.1734 14 45.5933 14 45C14 44.2044 13.6839 43.4413 13.1213 42.8787C12.5587 42.3161 11.7957 42 11 42ZM11 46C10.8022 46 10.6089 45.9414 10.4444 45.8315C10.28 45.7216 10.1518 45.5654 10.0761 45.3827C10.0004 45.2 9.98063 44.9989 10.0192 44.8049C10.0578 44.6109 10.153 44.4327 10.2929 44.2929C10.4327 44.153 10.6109 44.0578 10.8049 44.0192C10.9989 43.9806 11.2 44.0004 11.3827 44.0761C11.5654 44.1518 11.7216 44.28 11.8315 44.4444C11.9414 44.6089 12 44.8022 12 45C12 45.2652 11.8946 45.5196 11.7071 45.7071C11.5196 45.8946 11.2652 46 11 46Z" fill="#4D4C7D"/>
<path d="M28 57C27.4067 57 26.8266 57.1759 26.3333 57.5056C25.8399 57.8352 25.4554 58.3038 25.2284 58.852C25.0013 59.4001 24.9419 60.0033 25.0576 60.5853C25.1734 61.1672 25.4591 61.7018 25.8787 62.1213C26.2982 62.5409 26.8328 62.8266 27.4147 62.9424C27.9967 63.0581 28.5999 62.9987 29.1481 62.7716C29.6962 62.5446 30.1648 62.1601 30.4944 61.6667C30.8241 61.1734 31 60.5933 31 60C31 59.2044 30.6839 58.4413 30.1213 57.8787C29.5587 57.3161 28.7957 57 28 57ZM28 61C27.8022 61 27.6089 60.9414 27.4444 60.8315C27.28 60.7216 27.1518 60.5654 27.0761 60.3827C27.0004 60.2 26.9806 59.9989 27.0192 59.8049C27.0578 59.6109 27.153 59.4327 27.2929 59.2929C27.4327 59.153 27.6109 59.0578 27.8049 59.0192C27.9989 58.9806 28.2 59.0004 28.3827 59.0761C28.5654 59.1518 28.7216 59.28 28.8315 59.4444C28.9414 59.6089 29 59.8022 29 60C29 60.2652 28.8946 60.5196 28.7071 60.7071C28.5196 60.8946 28.2652 61 28 61Z" fill="#4D4C7D"/>
</svg>
