<svg width="64" height="64" viewBox="0 0 64 64" fill="none" xmlns="http://www.w3.org/2000/svg">
<path d="M35 7C32.4288 7 29.9154 7.76244 27.7776 9.1909C25.6398 10.6194 23.9735 12.6497 22.9896 15.0251C22.0056 17.4006 21.7482 20.0144 22.2498 22.5362C22.7514 25.0579 23.9895 27.3743 25.8076 29.1924C27.6257 31.0105 29.9421 32.2486 32.4638 32.7502C34.9856 33.2518 37.5995 32.9944 39.9749 32.0104C42.3503 31.0265 44.3807 29.3603 45.8091 27.2224C47.2376 25.0846 48 22.5712 48 20C47.996 16.5534 46.6251 13.2491 44.188 10.812C41.7509 8.37488 38.4466 7.00397 35 7ZM35 31C32.8244 31 30.6977 30.3549 28.8887 29.1462C27.0798 27.9375 25.6699 26.2195 24.8373 24.2095C24.0048 22.1995 23.7869 19.9878 24.2114 17.854C24.6358 15.7202 25.6835 13.7602 27.2218 12.2218C28.7602 10.6834 30.7202 9.6358 32.854 9.21136C34.9878 8.78692 37.1995 9.00476 39.2095 9.83733C41.2195 10.6699 42.9375 12.0798 44.1462 13.8887C45.3549 15.6977 46 17.8244 46 20C45.9966 22.9163 44.8365 25.7122 42.7744 27.7744C40.7122 29.8365 37.9163 30.9966 35 31Z" fill="#4D4C7D"/>
<path d="M35 11C34.7348 11 34.4804 11.1054 34.2929 11.2929C34.1054 11.4804 34 11.7348 34 12C34 12.2652 34.1054 12.5196 34.2929 12.7071C34.4804 12.8946 34.7348 13 35 13C36.8559 13.0021 38.6351 13.7403 39.9474 15.0526C41.2597 16.3649 41.9979 18.1441 42 20C42 20.2652 42.1054 20.5196 42.2929 20.7071C42.4804 20.8946 42.7348 21 43 21C43.2652 21 43.5196 20.8946 43.7071 20.7071C43.8946 20.5196 44 20.2652 44 20C43.9971 17.6139 43.0479 15.3265 41.3607 13.6393C39.6735 11.9521 37.3861 11.0029 35 11Z" fill="#4D4C7D"/>
<path d="M27 44C27 41.4288 26.2376 38.9154 24.8091 36.7776C23.3807 34.6398 21.3503 32.9735 18.9749 31.9896C16.5995 31.0056 13.9856 30.7482 11.4638 31.2498C8.94208 31.7514 6.6257 32.9895 4.80762 34.8076C2.98953 36.6257 1.75141 38.9421 1.2498 41.4638C0.748189 43.9856 1.00563 46.5995 1.98957 48.9749C2.97351 51.3503 4.63975 53.3807 6.77759 54.8091C8.91543 56.2376 11.4288 57 14 57C17.4466 56.996 20.7509 55.6251 23.188 53.188C25.6251 50.7509 26.996 47.4466 27 44ZM14 55C11.8244 55 9.69767 54.3549 7.88873 53.1462C6.07979 51.9375 4.66989 50.2195 3.83733 48.2095C3.00477 46.1995 2.78693 43.9878 3.21137 41.854C3.63581 39.7202 4.68345 37.7602 6.22183 36.2218C7.76021 34.6835 9.72022 33.6358 11.854 33.2114C13.9878 32.7869 16.1995 33.0048 18.2095 33.8373C20.2195 34.6699 21.9375 36.0798 23.1462 37.8887C24.3549 39.6977 25 41.8244 25 44C24.9966 46.9163 23.8365 49.7122 21.7744 51.7744C19.7122 53.8365 16.9163 54.9966 14 55Z" fill="#4D4C7D"/>
<path d="M14 35C13.7348 35 13.4804 35.1054 13.2929 35.2929C13.1054 35.4804 13 35.7348 13 36C13 36.2652 13.1054 36.5196 13.2929 36.7071C13.4804 36.8946 13.7348 37 14 37C15.8559 37.0021 17.6351 37.7403 18.9474 39.0526C20.2597 40.3649 20.9979 42.1441 21 44C21 44.2652 21.1054 44.5196 21.2929 44.7071C21.4804 44.8946 21.7348 45 22 45C22.2652 45 22.5196 44.8946 22.7071 44.7071C22.8946 44.5196 23 44.2652 23 44C22.9971 41.6139 22.0479 39.3265 20.3607 37.6393C18.6735 35.9521 16.3861 35.0029 14 35Z" fill="#4D4C7D"/>
<path d="M56 45C57.3845 45 58.7378 44.5895 59.889 43.8203C61.0401 43.0511 61.9373 41.9579 62.4672 40.6788C62.997 39.3997 63.1356 37.9922 62.8655 36.6344C62.5954 35.2765 61.9287 34.0292 60.9497 33.0503C59.9708 32.0713 58.7235 31.4046 57.3656 31.1345C56.0078 30.8644 54.6003 31.003 53.3212 31.5328C52.0421 32.0627 50.9489 32.9599 50.1797 34.111C49.4105 35.2622 49 36.6155 49 38C49.0021 39.8559 49.7403 41.6351 51.0526 42.9474C52.3649 44.2597 54.1441 44.9979 56 45ZM56 33C56.9889 33 57.9556 33.2932 58.7779 33.8427C59.6001 34.3921 60.241 35.173 60.6194 36.0866C60.9978 37.0002 61.0969 38.0056 60.9039 38.9755C60.711 39.9454 60.2348 40.8363 59.5355 41.5355C58.8363 42.2348 57.9454 42.711 56.9755 42.9039C56.0055 43.0969 55.0002 42.9978 54.0866 42.6194C53.173 42.241 52.3921 41.6001 51.8427 40.7779C51.2932 39.9556 51 38.9889 51 38C51.0016 36.6744 51.5289 35.4036 52.4662 34.4662C53.4036 33.5289 54.6744 33.0016 56 33Z" fill="#4D4C7D"/>
<path d="M56 36C56.5304 36 57.0391 36.2107 57.4142 36.5858C57.7893 36.9609 58 37.4696 58 38C58 38.2652 58.1054 38.5196 58.2929 38.7071C58.4804 38.8946 58.7348 39 59 39C59.2652 39 59.5196 38.8946 59.7071 38.7071C59.8946 38.5196 60 38.2652 60 38C60 36.9391 59.5786 35.9217 58.8284 35.1716C58.0783 34.4214 57.0609 34 56 34C55.7348 34 55.4804 34.1054 55.2929 34.2929C55.1054 34.4804 55 34.7348 55 35C55 35.2652 55.1054 35.5196 55.2929 35.7071C55.4804 35.8946 55.7348 36 56 36Z" fill="#4D4C7D"/>
<path d="M13 29C14.3845 29 15.7378 28.5895 16.889 27.8203C18.0401 27.0511 18.9373 25.9579 19.4672 24.6788C19.997 23.3997 20.1356 21.9922 19.8655 20.6344C19.5954 19.2765 18.9287 18.0292 17.9497 17.0503C16.9708 16.0713 15.7235 15.4046 14.3656 15.1345C13.0078 14.8644 11.6003 15.003 10.3212 15.5328C9.04213 16.0627 7.94888 16.9599 7.17971 18.111C6.41054 19.2622 6 20.6155 6 22C6.00212 23.8559 6.7403 25.6351 8.05259 26.9474C9.36489 28.2597 11.1441 28.9979 13 29ZM13 17C13.9889 17 14.9556 17.2932 15.7779 17.8427C16.6001 18.3921 17.241 19.173 17.6194 20.0866C17.9978 21.0002 18.0969 22.0056 17.9039 22.9755C17.711 23.9454 17.2348 24.8363 16.5355 25.5355C15.8363 26.2348 14.9454 26.711 13.9755 26.9039C13.0055 27.0969 12.0002 26.9978 11.0866 26.6194C10.173 26.241 9.39206 25.6001 8.84265 24.7779C8.29325 23.9556 8 22.9889 8 22C8.00159 20.6744 8.52888 19.4036 9.46622 18.4662C10.4036 17.5289 11.6744 17.0016 13 17Z" fill="#4D4C7D"/>
<path d="M13 20C13.5304 20 14.0391 20.2107 14.4142 20.5858C14.7893 20.9609 15 21.4696 15 22C15 22.2652 15.1054 22.5196 15.2929 22.7071C15.4804 22.8946 15.7348 23 16 23C16.2652 23 16.5196 22.8946 16.7071 22.7071C16.8946 22.5196 17 22.2652 17 22C17 20.9391 16.5786 19.9217 15.8284 19.1716C15.0783 18.4214 14.0609 18 13 18C12.7348 18 12.4804 18.1054 12.2929 18.2929C12.1054 18.4804 12 18.7348 12 19C12 19.2652 12.1054 19.5196 12.2929 19.7071C12.4804 19.8946 12.7348 20 13 20Z" fill="#4D4C7D"/>
<path d="M38 41C36.22 41 34.4799 41.5278 32.9999 42.5168C31.5198 43.5057 30.3663 44.9113 29.6851 46.5559C29.0039 48.2004 28.8257 50.01 29.1729 51.7558C29.5202 53.5016 30.3774 55.1053 31.636 56.364C32.8947 57.6226 34.4984 58.4798 36.2442 58.8271C37.99 59.1743 39.7996 58.9961 41.4442 58.3149C43.0887 57.6337 44.4943 56.4802 45.4832 55.0001C46.4722 53.5201 47 51.78 47 50C46.9971 47.6139 46.0479 45.3265 44.3607 43.6393C42.6736 41.9521 40.3861 41.0029 38 41ZM38 57C36.6155 57 35.2622 56.5895 34.111 55.8203C32.9599 55.0511 32.0627 53.9579 31.5328 52.6788C31.003 51.3997 30.8644 49.9922 31.1345 48.6344C31.4046 47.2765 32.0713 46.0292 33.0503 45.0503C34.0292 44.0713 35.2765 43.4046 36.6344 43.1345C37.9922 42.8644 39.3997 43.003 40.6788 43.5328C41.9579 44.0627 43.0511 44.9599 43.8203 46.111C44.5895 47.2622 45 48.6155 45 50C44.9979 51.8559 44.2597 53.6351 42.9474 54.9474C41.6351 56.2597 39.8559 56.9979 38 57Z" fill="#4D4C7D"/>
<path d="M38 45C37.7348 45 37.4804 45.1054 37.2929 45.2929C37.1054 45.4804 37 45.7348 37 46C37 46.2652 37.1054 46.5196 37.2929 46.7071C37.4804 46.8946 37.7348 47 38 47C38.7956 47 39.5587 47.3161 40.1213 47.8787C40.6839 48.4413 41 49.2044 41 50C41 50.2652 41.1054 50.5196 41.2929 50.7071C41.4804 50.8946 41.7348 51 42 51C42.2652 51 42.5196 50.8946 42.7071 50.7071C42.8946 50.5196 43 50.2652 43 50C42.9984 48.6744 42.4711 47.4036 41.5338 46.4662C40.5964 45.5289 39.3256 45.0016 38 45Z" fill="#4D4C7D"/>
<path d="M50 25C50 25.5933 50.1759 26.1734 50.5056 26.6667C50.8352 27.1601 51.3038 27.5446 51.852 27.7716C52.4001 27.9987 53.0033 28.0581 53.5853 27.9424C54.1672 27.8266 54.7018 27.5409 55.1213 27.1213C55.5409 26.7018 55.8266 26.1672 55.9424 25.5853C56.0581 25.0033 55.9987 24.4001 55.7716 23.8519C55.5446 23.3038 55.1601 22.8352 54.6667 22.5056C54.1734 22.1759 53.5933 22 53 22C52.2044 22 51.4413 22.3161 50.8787 22.8787C50.3161 23.4413 50 24.2044 50 25ZM54 25C54 25.1978 53.9414 25.3911 53.8315 25.5556C53.7216 25.72 53.5654 25.8482 53.3827 25.9239C53.2 25.9996 52.9989 26.0194 52.8049 25.9808C52.6109 25.9422 52.4327 25.847 52.2929 25.7071C52.153 25.5673 52.0578 25.3891 52.0192 25.1951C51.9806 25.0011 52.0004 24.8 52.0761 24.6173C52.1518 24.4346 52.28 24.2784 52.4444 24.1685C52.6089 24.0586 52.8022 24 53 24C53.2652 24 53.5196 24.1054 53.7071 24.2929C53.8946 24.4804 54 24.7348 54 25Z" fill="#4D4C7D"/>
<path d="M44 34C43.4067 34 42.8266 34.1759 42.3333 34.5056C41.8399 34.8352 41.4554 35.3038 41.2284 35.852C41.0013 36.4001 40.9419 37.0033 41.0576 37.5853C41.1734 38.1672 41.4591 38.7018 41.8787 39.1213C42.2982 39.5409 42.8328 39.8266 43.4147 39.9424C43.9967 40.0581 44.5999 39.9987 45.148 39.7716C45.6962 39.5446 46.1648 39.1601 46.4944 38.6667C46.8241 38.1734 47 37.5933 47 37C47 36.2044 46.6839 35.4413 46.1213 34.8787C45.5587 34.3161 44.7957 34 44 34ZM44 38C43.8022 38 43.6089 37.9414 43.4444 37.8315C43.28 37.7216 43.1518 37.5654 43.0761 37.3827C43.0004 37.2 42.9806 36.9989 43.0192 36.8049C43.0578 36.6109 43.153 36.4327 43.2929 36.2929C43.4327 36.153 43.6109 36.0578 43.8049 36.0192C43.9989 35.9806 44.2 36.0004 44.3827 36.0761C44.5654 36.1518 44.7216 36.28 44.8315 36.4444C44.9414 36.6089 45 36.8022 45 37C45 37.2652 44.8946 37.5196 44.7071 37.7071C44.5196 37.8946 44.2652 38 44 38Z" fill="#4D4C7D"/>
<path d="M33 38C33 37.4067 32.8241 36.8266 32.4944 36.3333C32.1648 35.8399 31.6962 35.4554 31.1481 35.2284C30.5999 35.0013 29.9967 34.9419 29.4147 35.0576C28.8328 35.1734 28.2982 35.4591 27.8787 35.8787C27.4591 36.2982 27.1734 36.8328 27.0576 37.4147C26.9419 37.9967 27.0013 38.5999 27.2284 39.148C27.4554 39.6962 27.8399 40.1648 28.3333 40.4944C28.8266 40.8241 29.4067 41 30 41C30.7957 41 31.5587 40.6839 32.1213 40.1213C32.6839 39.5587 33 38.7957 33 38ZM29 38C29 37.8022 29.0586 37.6089 29.1685 37.4444C29.2784 37.28 29.4346 37.1518 29.6173 37.0761C29.8 37.0004 30.0011 36.9806 30.1951 37.0192C30.3891 37.0578 30.5673 37.153 30.7071 37.2929C30.847 37.4327 30.9422 37.6109 30.9808 37.8049C31.0194 37.9989 30.9996 38.2 30.9239 38.3827C30.8482 38.5654 30.72 38.7216 30.5556 38.8315C30.3911 38.9414 30.1978 39 30 39C29.7348 39 29.4804 38.8946 29.2929 38.7071C29.1054 38.5196 29 38.2652 29 38Z" fill="#4D4C7D"/>
<path d="M16 12C16 12.5933 16.1759 13.1734 16.5056 13.6667C16.8352 14.1601 17.3038 14.5446 17.8519 14.7716C18.4001 14.9987 19.0033 15.0581 19.5853 14.9424C20.1672 14.8266 20.7018 14.5409 21.1213 14.1213C21.5409 13.7018 21.8266 13.1672 21.9424 12.5853C22.0581 12.0033 21.9987 11.4001 21.7716 10.8519C21.5446 10.3038 21.1601 9.83524 20.6667 9.50559C20.1734 9.17595 19.5933 9 19 9C18.2044 9 17.4413 9.31607 16.8787 9.87868C16.3161 10.4413 16 11.2044 16 12ZM20 12C20 12.1978 19.9414 12.3911 19.8315 12.5556C19.7216 12.72 19.5654 12.8482 19.3827 12.9239C19.2 12.9996 18.9989 13.0194 18.8049 12.9808C18.6109 12.9422 18.4327 12.847 18.2929 12.7071C18.153 12.5673 18.0578 12.3891 18.0192 12.1951C17.9806 12.0011 18.0004 11.8 18.0761 11.6173C18.1518 11.4346 18.28 11.2784 18.4444 11.1685C18.6089 11.0586 18.8022 11 19 11C19.2652 11 19.5196 11.1054 19.7071 11.2929C19.8946 11.4804 20 11.7348 20 12Z" fill="#4D4C7D"/>
<path d="M4 32C4.59334 32 5.17336 31.8241 5.66671 31.4944C6.16006 31.1648 6.54458 30.6962 6.77164 30.1481C6.9987 29.5999 7.05811 28.9967 6.94236 28.4147C6.8266 27.8328 6.54088 27.2982 6.12132 26.8787C5.70176 26.4591 5.16721 26.1734 4.58527 26.0576C4.00333 25.9419 3.40013 26.0013 2.85195 26.2284C2.30377 26.4554 1.83524 26.8399 1.50559 27.3333C1.17595 27.8266 1 28.4067 1 29C1 29.7957 1.31607 30.5587 1.87868 31.1213C2.44129 31.6839 3.20435 32 4 32ZM4 28C4.19778 28 4.39112 28.0586 4.55557 28.1685C4.72002 28.2784 4.84819 28.4346 4.92388 28.6173C4.99957 28.8 5.01937 29.0011 4.98079 29.1951C4.9422 29.3891 4.84696 29.5673 4.70711 29.7071C4.56725 29.847 4.38907 29.9422 4.19509 29.9808C4.00111 30.0194 3.80004 29.9996 3.61732 29.9239C3.43459 29.8482 3.27841 29.72 3.16853 29.5556C3.05865 29.3911 3 29.1978 3 29C3 28.7348 3.10536 28.4804 3.29289 28.2929C3.48043 28.1054 3.73478 28 4 28Z" fill="#4D4C7D"/>
<path d="M10 8H12V10C12 10.2652 12.1054 10.5196 12.2929 10.7071C12.4804 10.8946 12.7348 11 13 11C13.2652 11 13.5196 10.8946 13.7071 10.7071C13.8946 10.5196 14 10.2652 14 10V8H16C16.2652 8 16.5196 7.89464 16.7071 7.70711C16.8946 7.51957 17 7.26522 17 7C17 6.73478 16.8946 6.48043 16.7071 6.29289C16.5196 6.10536 16.2652 6 16 6H14V4C14 3.73478 13.8946 3.48043 13.7071 3.29289C13.5196 3.10536 13.2652 3 13 3C12.7348 3 12.4804 3.10536 12.2929 3.29289C12.1054 3.48043 12 3.73478 12 4V6H10C9.73478 6 9.48043 6.10536 9.29289 6.29289C9.10536 6.48043 9 6.73478 9 7C9 7.26522 9.10536 7.51957 9.29289 7.70711C9.48043 7.89464 9.73478 8 10 8Z" fill="#4D4C7D"/>
<path d="M19 8H20C20.2652 8 20.5196 7.89464 20.7071 7.70711C20.8946 7.51957 21 7.26522 21 7C21 6.73478 20.8946 6.48043 20.7071 6.29289C20.5196 6.10536 20.2652 6 20 6H19C18.7348 6 18.4804 6.10536 18.2929 6.29289C18.1054 6.48043 18 6.73478 18 7C18 7.26522 18.1054 7.51957 18.2929 7.70711C18.4804 7.89464 18.7348 8 19 8Z" fill="#4D4C7D"/>
<path d="M60 50H58V48C58 47.7348 57.8946 47.4804 57.7071 47.2929C57.5196 47.1054 57.2652 47 57 47C56.7348 47 56.4804 47.1054 56.2929 47.2929C56.1054 47.4804 56 47.7348 56 48V50H54C53.7348 50 53.4804 50.1054 53.2929 50.2929C53.1054 50.4804 53 50.7348 53 51C53 51.2652 53.1054 51.5196 53.2929 51.7071C53.4804 51.8946 53.7348 52 54 52H56V54C56 54.2652 56.1054 54.5196 56.2929 54.7071C56.4804 54.8946 56.7348 55 57 55C57.2652 55 57.5196 54.8946 57.7071 54.7071C57.8946 54.5196 58 54.2652 58 54V52H60C60.2652 52 60.5196 51.8946 60.7071 51.7071C60.8946 51.5196 61 51.2652 61 51C61 50.7348 60.8946 50.4804 60.7071 50.2929C60.5196 50.1054 60.2652 50 60 50Z" fill="#4D4C7D"/>
<path d="M51 50H50C49.7348 50 49.4804 50.1054 49.2929 50.2929C49.1054 50.4804 49 50.7348 49 51C49 51.2652 49.1054 51.5196 49.2929 51.7071C49.4804 51.8946 49.7348 52 50 52H51C51.2652 52 51.5196 51.8946 51.7071 51.7071C51.8946 51.5196 52 51.2652 52 51C52 50.7348 51.8946 50.4804 51.7071 50.2929C51.5196 50.1054 51.2652 50 51 50Z" fill="#4D4C7D"/>
<path d="M50 18H51V19C51 19.2652 51.1054 19.5196 51.2929 19.7071C51.4804 19.8946 51.7348 20 52 20C52.2652 20 52.5196 19.8946 52.7071 19.7071C52.8946 19.5196 53 19.2652 53 19V18H54C54.2652 18 54.5196 17.8946 54.7071 17.7071C54.8946 17.5196 55 17.2652 55 17C55 16.7348 54.8946 16.4804 54.7071 16.2929C54.5196 16.1054 54.2652 16 54 16H53V15C53 14.7348 52.8946 14.4804 52.7071 14.2929C52.5196 14.1054 52.2652 14 52 14C51.7348 14 51.4804 14.1054 51.2929 14.2929C51.1054 14.4804 51 14.7348 51 15V16H50C49.7348 16 49.4804 16.1054 49.2929 16.2929C49.1054 16.4804 49 16.7348 49 17C49 17.2652 49.1054 17.5196 49.2929 17.7071C49.4804 17.8946 49.7348 18 50 18Z" fill="#4D4C7D"/>
<path d="M28 58H27V57C27 56.7348 26.8946 56.4804 26.7071 56.2929C26.5196 56.1054 26.2652 56 26 56C25.7348 56 25.4804 56.1054 25.2929 56.2929C25.1054 56.4804 25 56.7348 25 57V58H24C23.7348 58 23.4804 58.1054 23.2929 58.2929C23.1054 58.4804 23 58.7348 23 59C23 59.2652 23.1054 59.5196 23.2929 59.7071C23.4804 59.8946 23.7348 60 24 60H25V61C25 61.2652 25.1054 61.5196 25.2929 61.7071C25.4804 61.8946 25.7348 62 26 62C26.2652 62 26.5196 61.8946 26.7071 61.7071C26.8946 61.5196 27 61.2652 27 61V60H28C28.2652 60 28.5196 59.8946 28.7071 59.7071C28.8946 59.5196 29 59.2652 29 59C29 58.7348 28.8946 58.4804 28.7071 58.2929C28.5196 58.1054 28.2652 58 28 58Z" fill="#4D4C7D"/>
</svg>
