<svg width="64" height="64" viewBox="0 0 64 64" fill="none" xmlns="http://www.w3.org/2000/svg">
<path d="M62 6C62 5.73478 61.8946 5.48043 61.7071 5.29289C61.5196 5.10536 61.2652 5 61 5H57V2C57 1.73478 56.8946 1.48043 56.7071 1.29289C56.5196 1.10536 56.2652 1 56 1H7.99998C7.73477 1 7.48041 1.10536 7.29288 1.29289C7.10534 1.48043 6.99998 1.73478 6.99998 2V5H2.99998C2.73477 5 2.48041 5.10536 2.29288 5.29289C2.10534 5.48043 1.99998 5.73478 1.99998 6V25C1.87511 31.3657 4.25115 37.5266 8.61798 42.16L8.99998 62.019C9.00496 62.2809 9.11251 62.5304 9.29951 62.7139C9.48651 62.8973 9.73803 63 9.99998 63H54C54.2619 63 54.5135 62.8973 54.7005 62.7139C54.8875 62.5304 54.995 62.2809 55 62.019L55.382 42.16C59.7488 37.5266 62.1249 31.3657 62 25V6ZM53.4 41.415C49.6603 44.8831 45.014 47.2198 40 48.154V47C40 46.7348 39.8946 46.4804 39.7071 46.2929C39.5196 46.1054 39.2652 46 39 46H25C24.7348 46 24.4804 46.1054 24.2929 46.2929C24.1053 46.4804 24 46.7348 24 47V48.154C18.9878 47.2189 14.3432 44.8823 10.605 41.415L10.02 11H53.98L53.4 41.415ZM38 48V52H26V48H38ZM8.99998 3H55V9H8.99998V3ZM3.99998 25V7H6.99998V10C6.99998 10.2652 7.10534 10.5196 7.29288 10.7071C7.48041 10.8946 7.73477 11 7.99998 11H8.01898L8.55999 39.135C5.49736 35.0683 3.89128 30.0898 3.99998 25ZM10.981 61L10.656 44.061C14.5228 47.1876 19.1098 49.2979 24 50.2V53C24 53.2652 24.1053 53.5196 24.2929 53.7071C24.4804 53.8946 24.7348 54 25 54H39C39.2652 54 39.5196 53.8946 39.7071 53.7071C39.8946 53.5196 40 53.2652 40 53V50.2C44.8899 49.2988 49.4769 47.1895 53.344 44.064L53.019 61H10.981ZM60 25C60.1087 30.0898 58.5026 35.0683 55.44 39.135L55.981 11H56C56.2652 11 56.5196 10.8946 56.7071 10.7071C56.8946 10.5196 57 10.2652 57 10V7H60V25Z" fill="#4D4C7D"/>
<path d="M23 57H14C13.7348 57 13.4804 57.1054 13.2929 57.2929C13.1054 57.4804 13 57.7348 13 58C13 58.2652 13.1054 58.5196 13.2929 58.7071C13.4804 58.8946 13.7348 59 14 59H23C23.2652 59 23.5196 58.8946 23.7071 58.7071C23.8946 58.5196 24 58.2652 24 58C24 57.7348 23.8946 57.4804 23.7071 57.2929C23.5196 57.1054 23.2652 57 23 57Z" fill="#4D4C7D"/>
<path d="M28 57H26C25.7348 57 25.4804 57.1054 25.2929 57.2929C25.1054 57.4804 25 57.7348 25 58C25 58.2652 25.1054 58.5196 25.2929 58.7071C25.4804 58.8946 25.7348 59 26 59H28C28.2652 59 28.5196 58.8946 28.7071 58.7071C28.8946 58.5196 29 58.2652 29 58C29 57.7348 28.8946 57.4804 28.7071 57.2929C28.5196 57.1054 28.2652 57 28 57Z" fill="#4D4C7D"/>
</svg>
