<svg width="64" height="64" viewBox="0 0 64 64" fill="none" xmlns="http://www.w3.org/2000/svg">
<path d="M62 9H57V6C57 5.73478 56.8947 5.48043 56.7071 5.29289C56.5196 5.10536 56.2652 5 56 5H8.00001C7.73479 5 7.48044 5.10536 7.2929 5.29289C7.10537 5.48043 7.00001 5.73478 7.00001 6V9H2.00001C1.73479 9 1.48044 9.10536 1.2929 9.29289C1.10537 9.48043 1.00001 9.73478 1.00001 10V18C0.974105 21.2789 1.62706 24.5277 2.9178 27.5421C4.20854 30.5564 6.10913 33.2709 8.50001 35.515L9.00001 57.023C9.00602 57.2842 9.11402 57.5327 9.30091 57.7153C9.4878 57.8979 9.73873 58.0001 10 58H54C54.2613 58.0001 54.5122 57.8979 54.6991 57.7153C54.886 57.5327 54.994 57.2842 55 57.023L55.5 35.515C57.8909 33.2709 59.7915 30.5564 61.0822 27.5421C62.373 24.5277 63.0259 21.2789 63 18V10C63 9.73478 62.8947 9.48043 62.7071 9.29289C62.5196 9.10536 62.2652 9 62 9ZM53.517 34.76C49.6544 38.0502 44.9916 40.2625 40 41.173V40C40 39.7348 39.8947 39.4804 39.7071 39.2929C39.5196 39.1054 39.2652 39 39 39H25C24.7348 39 24.4804 39.1054 24.2929 39.2929C24.1054 39.4804 24 39.7348 24 40V41.173C19.0084 40.2625 14.3456 38.0502 10.483 34.76L10.023 15H53.977L53.517 34.76ZM38 41V45H26V41H38ZM9.00001 7H55V13H9.00001V7ZM3.00001 18V11H7.00001V14C7.00001 14.2652 7.10537 14.5196 7.2929 14.7071C7.48044 14.8946 7.73479 15 8.00001 15H8.02301L8.43401 32.691C4.91066 28.6093 2.98084 23.392 3.00001 18ZM53.023 56H10.977L10.541 37.277C14.5105 40.263 19.1169 42.2902 24 43.2V46C24 46.2652 24.1054 46.5196 24.2929 46.7071C24.4804 46.8946 24.7348 47 25 47H39C39.2652 47 39.5196 46.8946 39.7071 46.7071C39.8947 46.5196 40 46.2652 40 46V43.2C44.8829 42.2911 49.4893 40.2649 53.459 37.28L53.023 56ZM61 18C61.0192 23.392 59.0894 28.6093 55.566 32.691L55.977 15H56C56.2652 15 56.5196 14.8946 56.7071 14.7071C56.8947 14.5196 57 14.2652 57 14V11H61V18Z" fill="#4D4C7D"/>
<path d="M23 52H14C13.7348 52 13.4804 52.1054 13.2929 52.2929C13.1054 52.4804 13 52.7348 13 53C13 53.2652 13.1054 53.5196 13.2929 53.7071C13.4804 53.8946 13.7348 54 14 54H23C23.2652 54 23.5196 53.8946 23.7071 53.7071C23.8946 53.5196 24 53.2652 24 53C24 52.7348 23.8946 52.4804 23.7071 52.2929C23.5196 52.1054 23.2652 52 23 52Z" fill="#4D4C7D"/>
<path d="M28 52H26C25.7348 52 25.4804 52.1054 25.2929 52.2929C25.1054 52.4804 25 52.7348 25 53C25 53.2652 25.1054 53.5196 25.2929 53.7071C25.4804 53.8946 25.7348 54 26 54H28C28.2652 54 28.5196 53.8946 28.7071 53.7071C28.8946 53.5196 29 53.2652 29 53C29 52.7348 28.8946 52.4804 28.7071 52.2929C28.5196 52.1054 28.2652 52 28 52Z" fill="#4D4C7D"/>
</svg>
