<svg width="64" height="64" viewBox="0 0 64 64" fill="none" xmlns="http://www.w3.org/2000/svg">
<path d="M61 14H57V11C57 10.7348 56.8946 10.4804 56.7071 10.2929C56.5196 10.1054 56.2652 10 56 10H53.958C53.973 9.833 54 9.669 54 9.5C53.9984 8.0418 53.4184 6.64378 52.3873 5.61267C51.3562 4.58156 49.9582 4.00159 48.5 4C47.4562 3.99709 46.4335 4.294 45.5535 4.85542C44.6735 5.41685 43.9733 6.21917 43.536 7.167C42.8555 6.66805 42.0774 6.31823 41.2526 6.14041C40.4277 5.96258 39.5746 5.96074 38.749 6.135C38.4179 4.93854 37.7747 3.85163 36.8851 2.98572C35.9955 2.11981 34.8917 1.50604 33.6867 1.20735C32.4818 0.908655 31.2191 0.935778 30.0281 1.28594C28.837 1.6361 27.7606 2.29669 26.909 3.2C26.0548 2.62248 25.0834 2.2411 24.0644 2.08319C23.0454 1.92529 22.0042 1.99478 21.0152 2.28667C20.0263 2.57857 19.1141 3.08564 18.3442 3.77155C17.5743 4.45745 16.9657 5.30519 16.562 6.254C16.0585 6.08561 15.531 5.99983 15 6C13.8478 6.00146 12.7313 6.40009 11.8388 7.12872C10.9462 7.85735 10.3321 8.87142 10.1 10H8C7.73479 10 7.48043 10.1054 7.29289 10.2929C7.10536 10.4804 7 10.7348 7 11V14H3C2.73479 14 2.48043 14.1054 2.29289 14.2929C2.10536 14.4804 2 14.7348 2 15V23C1.87644 29.3027 4.20261 35.4076 8.489 40.03L8.955 60.07C8.9778 60.852 9.30335 61.5945 9.86301 62.1411C10.4227 62.6877 11.1727 62.9957 11.955 63H52.046C52.8283 62.9957 53.5783 62.6877 54.138 62.1411C54.6977 61.5945 55.0232 60.852 55.046 60.07L55.512 40.03C59.798 35.4075 62.1238 29.3026 62 23V15C62 14.7348 61.8946 14.4804 61.7071 14.2929C61.5196 14.1054 61.2652 14 61 14ZM53.528 39.281C49.7723 42.8236 45.0758 45.2097 40 46.154V45C40 44.7348 39.8946 44.4804 39.7071 44.2929C39.5196 44.1054 39.2652 44 39 44H25C24.7348 44 24.4804 44.1054 24.2929 44.2929C24.1054 44.4804 24 44.7348 24 45V46.154C18.9242 45.2097 14.2277 42.8236 10.472 39.281L10.023 20H53.977L53.528 39.281ZM38 46V50H26V46H38ZM45.038 9.173C45.0764 8.70582 45.2086 8.25117 45.4267 7.83624C45.6448 7.4213 45.9443 7.05461 46.3074 6.75806C46.6704 6.46151 47.0895 6.24121 47.5396 6.11032C47.9897 5.97943 48.4616 5.94064 48.9271 5.99626C49.3925 6.05189 49.842 6.20079 50.2486 6.43406C50.6552 6.66734 51.0105 6.9802 51.2935 7.35394C51.5764 7.72769 51.7811 8.15464 51.8953 8.60929C52.0094 9.06393 52.0308 9.53693 51.958 10H44.4C44.5729 9.93533 44.7242 9.82362 44.8369 9.67749C44.9497 9.53136 45.0193 9.35662 45.038 9.173ZM15 8C15.5748 8.00183 16.1368 8.16917 16.619 8.482C16.7538 8.5687 16.9075 8.62172 17.0671 8.6366C17.2267 8.65147 17.3875 8.62777 17.536 8.56748C17.6845 8.50719 17.8164 8.41209 17.9205 8.29018C18.0245 8.16827 18.0978 8.02314 18.134 7.867C18.3307 7.01513 18.7478 6.22991 19.3435 5.59C19.9392 4.95009 20.6927 4.47796 21.5283 4.22092C22.364 3.96388 23.2525 3.93094 24.1049 4.12542C24.9572 4.3199 25.7435 4.73495 26.385 5.329C26.4898 5.42654 26.6146 5.5002 26.7506 5.54491C26.8866 5.58963 27.0307 5.60433 27.173 5.588C27.3153 5.57235 27.4527 5.5263 27.5757 5.45298C27.6987 5.37965 27.8045 5.28077 27.886 5.163C28.469 4.31977 29.2971 3.67611 30.2581 3.31922C31.2192 2.96234 32.2666 2.90949 33.2587 3.16782C34.2508 3.42615 35.1395 3.98318 35.8044 4.76345C36.4693 5.54372 36.8783 6.50952 36.976 7.53C36.9908 7.68783 37.043 7.83987 37.1281 7.97358C37.2133 8.10729 37.329 8.21884 37.4657 8.29903C37.6025 8.37922 37.7563 8.42575 37.9146 8.43479C38.0729 8.44383 38.231 8.41511 38.376 8.351C39.2131 7.97974 40.1525 7.90779 41.0363 8.14724C41.9202 8.38669 42.6948 8.92296 43.23 9.666C43.3413 9.81585 43.4923 9.93155 43.666 10H12.184C12.3901 9.4171 12.7712 8.9121 13.2753 8.55409C13.7794 8.19609 14.3817 8.00257 15 8ZM9 12H55V18H9V12ZM4 23V16H7V19C7 19.2652 7.10536 19.5196 7.29289 19.7071C7.48043 19.8946 7.73479 20 8 20H8.023L8.418 36.962C5.4466 32.9222 3.89342 28.0138 4 23ZM52.046 61H11.954C11.6923 61.0016 11.4404 60.8999 11.2532 60.717C11.066 60.5341 10.9585 60.2847 10.954 60.023L10.534 41.959C14.4236 45.1431 19.0563 47.2902 24 48.2V51C24 51.2652 24.1054 51.5196 24.2929 51.7071C24.4804 51.8946 24.7348 52 25 52H39C39.2652 52 39.5196 51.8946 39.7071 51.7071C39.8946 51.5196 40 51.2652 40 51V48.2C44.9434 47.2911 49.5761 45.1451 53.466 41.962L53.046 60.026C53.0407 60.2872 52.9329 60.5358 52.7457 60.7181C52.5586 60.9004 52.3072 61.0016 52.046 61ZM60 23C60.1066 28.0138 58.5534 32.9222 55.582 36.962L55.977 20H56C56.2652 20 56.5196 19.8946 56.7071 19.7071C56.8946 19.5196 57 19.2652 57 19V16H60V23Z" fill="#4D4C7D"/>
<path d="M23 57H14C13.7348 57 13.4804 57.1054 13.2929 57.2929C13.1054 57.4804 13 57.7348 13 58C13 58.2652 13.1054 58.5196 13.2929 58.7071C13.4804 58.8946 13.7348 59 14 59H23C23.2652 59 23.5196 58.8946 23.7071 58.7071C23.8946 58.5196 24 58.2652 24 58C24 57.7348 23.8946 57.4804 23.7071 57.2929C23.5196 57.1054 23.2652 57 23 57Z" fill="#4D4C7D"/>
<path d="M28 57H26C25.7348 57 25.4804 57.1054 25.2929 57.2929C25.1054 57.4804 25 57.7348 25 58C25 58.2652 25.1054 58.5196 25.2929 58.7071C25.4804 58.8946 25.7348 59 26 59H28C28.2652 59 28.5196 58.8946 28.7071 58.7071C28.8946 58.5196 29 58.2652 29 58C29 57.7348 28.8946 57.4804 28.7071 57.2929C28.5196 57.1054 28.2652 57 28 57Z" fill="#4D4C7D"/>
<path d="M4 6V8C4 8.26522 4.10536 8.51957 4.29289 8.70711C4.48043 8.89464 4.73478 9 5 9C5.26522 9 5.51957 8.89464 5.70711 8.70711C5.89464 8.51957 6 8.26522 6 8V6H8C8.26522 6 8.51957 5.89464 8.70711 5.70711C8.89464 5.51957 9 5.26522 9 5C9 4.73478 8.89464 4.48043 8.70711 4.29289C8.51957 4.10536 8.26522 4 8 4H6V2C6 1.73478 5.89464 1.48043 5.70711 1.29289C5.51957 1.10536 5.26522 1 5 1C4.73478 1 4.48043 1.10536 4.29289 1.29289C4.10536 1.48043 4 1.73478 4 2V4H2C1.73478 4 1.48043 4.10536 1.29289 4.29289C1.10536 4.48043 1 4.73478 1 5C1 5.26522 1.10536 5.51957 1.29289 5.70711C1.48043 5.89464 1.73478 6 2 6H4Z" fill="#4D4C7D"/>
<path d="M11 6H12C12.2652 6 12.5196 5.89464 12.7071 5.70711C12.8946 5.51957 13 5.26522 13 5C13 4.73478 12.8946 4.48043 12.7071 4.29289C12.5196 4.10536 12.2652 4 12 4H11C10.7348 4 10.4804 4.10536 10.2929 4.29289C10.1054 4.48043 10 4.73478 10 5C10 5.26522 10.1054 5.51957 10.2929 5.70711C10.4804 5.89464 10.7348 6 11 6Z" fill="#4D4C7D"/>
<path d="M57 8H58V9C58 9.26522 58.1054 9.51957 58.2929 9.70711C58.4804 9.89464 58.7348 10 59 10C59.2652 10 59.5196 9.89464 59.7071 9.70711C59.8946 9.51957 60 9.26522 60 9V8H61C61.2652 8 61.5196 7.89464 61.7071 7.70711C61.8946 7.51957 62 7.26522 62 7C62 6.73478 61.8946 6.48043 61.7071 6.29289C61.5196 6.10536 61.2652 6 61 6H60V5C60 4.73478 59.8946 4.48043 59.7071 4.29289C59.5196 4.10536 59.2652 4 59 4C58.7348 4 58.4804 4.10536 58.2929 4.29289C58.1054 4.48043 58 4.73478 58 5V6H57C56.7348 6 56.4804 6.10536 56.2929 6.29289C56.1054 6.48043 56 6.73478 56 7C56 7.26522 56.1054 7.51957 56.2929 7.70711C56.4804 7.89464 56.7348 8 57 8Z" fill="#4D4C7D"/>
</svg>
