<svg width="64" height="64" viewBox="0 0 64 64" fill="none" xmlns="http://www.w3.org/2000/svg">
<path d="M60 25H56.974C57.6358 24.1396 57.9963 23.0855 58 22C57.9984 20.6744 57.4711 19.4036 56.5338 18.4662C55.5964 17.5289 54.3256 17.0016 53 17H42.974C43.6389 16.1413 43.9997 15.086 43.9997 14C43.9997 12.914 43.6389 11.8587 42.974 11H46C47.3261 11 48.5979 10.4732 49.5355 9.53553C50.4732 8.59785 51 7.32608 51 6C51 4.67392 50.4732 3.40215 49.5355 2.46447C48.5979 1.52678 47.3261 1 46 1H18C16.6744 1.00159 15.4036 1.52888 14.4662 2.46622C13.5289 3.40356 13.0016 4.67441 13 6C13.0037 7.08547 13.3642 8.13961 14.026 9H11C9.67392 9 8.40215 9.52678 7.46447 10.4645C6.52678 11.4021 6 12.6739 6 14C6 15.3261 6.52678 16.5979 7.46447 17.5355C8.40215 18.4732 9.67392 19 11 19H11.026C10.3611 19.8587 10.0003 20.914 10.0003 22C10.0003 23.086 10.3611 24.1413 11.026 25H4C3.73478 25 3.48043 25.1054 3.29289 25.2929C3.10536 25.4804 3 25.7348 3 26V32C3 32.2652 3.10536 32.5196 3.29289 32.7071C3.48043 32.8946 3.73478 33 4 33H7.124L10.546 58.661C10.7091 59.8603 11.3005 60.9601 12.211 61.7576C13.1215 62.555 14.2897 62.9963 15.5 63H48.5C49.7107 62.9968 50.8793 62.5558 51.7902 61.7582C52.7012 60.9607 53.2928 59.8606 53.456 58.661L56.876 33H60C60.2652 33 60.5196 32.8946 60.7071 32.7071C60.8946 32.5196 61 32.2652 61 32V26C61 25.7348 60.8946 25.4804 60.7071 25.2929C60.5196 25.1054 60.2652 25 60 25ZM15 6C15 5.20435 15.3161 4.44129 15.8787 3.87868C16.4413 3.31607 17.2044 3 18 3H46C46.7957 3 47.5587 3.31607 48.1213 3.87868C48.6839 4.44129 49 5.20435 49 6C49 6.79565 48.6839 7.55871 48.1213 8.12132C47.5587 8.68393 46.7957 9 46 9H18C17.2044 9 16.4413 8.68393 15.8787 8.12132C15.3161 7.55871 15 6.79565 15 6ZM8 14C8 13.2044 8.31607 12.4413 8.87868 11.8787C9.44129 11.3161 10.2044 11 11 11H39C39.7957 11 40.5587 11.3161 41.1213 11.8787C41.6839 12.4413 42 13.2044 42 14C42 14.7956 41.6839 15.5587 41.1213 16.1213C40.5587 16.6839 39.7957 17 39 17H11C10.2044 17 9.44129 16.6839 8.87868 16.1213C8.31607 15.5587 8 14.7956 8 14ZM12 22C12 21.2044 12.3161 20.4413 12.8787 19.8787C13.4413 19.3161 14.2044 19 15 19H53C53.7957 19 54.5587 19.3161 55.1213 19.8787C55.6839 20.4413 56 21.2044 56 22C56 22.7956 55.6839 23.5587 55.1213 24.1213C54.5587 24.6839 53.7957 25 53 25H15C14.2044 25 13.4413 24.6839 12.8787 24.1213C12.3161 23.5587 12 22.7956 12 22ZM51.472 58.4C51.373 59.1187 51.0178 59.7775 50.4717 60.2552C49.9257 60.7329 49.2255 60.9974 48.5 61H15.5C14.7741 60.9979 14.0735 60.7336 13.527 60.2559C12.9806 59.7781 12.6251 59.1191 12.526 58.4L9.142 33H54.858L51.472 58.4ZM59 31H5V27H59V31Z" fill="#4D4C7D"/>
<path d="M26 43H38C39.0609 43 40.0783 42.5786 40.8284 41.8284C41.5786 41.0783 42 40.0609 42 39C42 37.9391 41.5786 36.9217 40.8284 36.1716C40.0783 35.4214 39.0609 35 38 35H26C24.9391 35 23.9217 35.4214 23.1716 36.1716C22.4214 36.9217 22 37.9391 22 39C22 40.0609 22.4214 41.0783 23.1716 41.8284C23.9217 42.5786 24.9391 43 26 43ZM26 37H38C38.5304 37 39.0391 37.2107 39.4142 37.5858C39.7893 37.9609 40 38.4696 40 39C40 39.5304 39.7893 40.0391 39.4142 40.4142C39.0391 40.7893 38.5304 41 38 41H26C25.4696 41 24.9609 40.7893 24.5858 40.4142C24.2107 40.0391 24 39.5304 24 39C24 38.4696 24.2107 37.9609 24.5858 37.5858C24.9609 37.2107 25.4696 37 26 37Z" fill="#4D4C7D"/>
<path d="M16 59H22C22.2652 59 22.5196 58.8946 22.7071 58.7071C22.8946 58.5196 23 58.2652 23 58C23 57.7348 22.8946 57.4804 22.7071 57.2929C22.5196 57.1054 22.2652 57 22 57H16C15.7348 57 15.4804 57.1054 15.2929 57.2929C15.1054 57.4804 15 57.7348 15 58C15 58.2652 15.1054 58.5196 15.2929 58.7071C15.4804 58.8946 15.7348 59 16 59Z" fill="#4D4C7D"/>
<path d="M26 57H25C24.7348 57 24.4804 57.1054 24.2929 57.2929C24.1054 57.4804 24 57.7348 24 58C24 58.2652 24.1054 58.5196 24.2929 58.7071C24.4804 58.8946 24.7348 59 25 59H26C26.2652 59 26.5196 58.8946 26.7071 58.7071C26.8946 58.5196 27 58.2652 27 58C27 57.7348 26.8946 57.4804 26.7071 57.2929C26.5196 57.1054 26.2652 57 26 57Z" fill="#4D4C7D"/>
<path d="M32 45C31.7348 45 31.4804 45.1054 31.2929 45.2929C31.1054 45.4804 31 45.7348 31 46V54C31 54.2652 31.1054 54.5196 31.2929 54.7071C31.4804 54.8946 31.7348 55 32 55C32.2652 55 32.5196 54.8946 32.7071 54.7071C32.8946 54.5196 33 54.2652 33 54V46C33 45.7348 32.8946 45.4804 32.7071 45.2929C32.5196 45.1054 32.2652 45 32 45Z" fill="#4D4C7D"/>
<path d="M22 55C22.2652 55 22.5196 54.8946 22.7071 54.7071C22.8946 54.5196 23 54.2652 23 54V46C23 45.7348 22.8946 45.4804 22.7071 45.2929C22.5196 45.1054 22.2652 45 22 45C21.7348 45 21.4804 45.1054 21.2929 45.2929C21.1054 45.4804 21 45.7348 21 46V54C21 54.2652 21.1054 54.5196 21.2929 54.7071C21.4804 54.8946 21.7348 55 22 55Z" fill="#4D4C7D"/>
<path d="M41 46V54C41 54.2652 41.1054 54.5196 41.2929 54.7071C41.4804 54.8946 41.7348 55 42 55C42.2652 55 42.5196 54.8946 42.7071 54.7071C42.8946 54.5196 43 54.2652 43 54V46C43 45.7348 42.8946 45.4804 42.7071 45.2929C42.5196 45.1054 42.2652 45 42 45C41.7348 45 41.4804 45.1054 41.2929 45.2929C41.1054 45.4804 41 45.7348 41 46Z" fill="#4D4C7D"/>
</svg>
