<svg width="64" height="64" viewBox="0 0 64 64" fill="none" xmlns="http://www.w3.org/2000/svg">
<path d="M60 25H53.974C54.6389 24.1413 54.9997 23.086 54.9997 22C54.9997 20.914 54.6389 19.8587 53.974 19H54C55.3261 19 56.5979 18.4732 57.5355 17.5355C58.4732 16.5979 59 15.3261 59 14C59 12.6739 58.4732 11.4021 57.5355 10.4645C56.5979 9.52678 55.3261 9 54 9H50.974C51.6358 8.13961 51.9963 7.08547 52 6C51.9984 4.67441 51.4711 3.40356 50.5338 2.46622C49.5964 1.52888 48.3256 1.00159 47 1H19C17.6739 1 16.4021 1.52678 15.4645 2.46447C14.5268 3.40215 14 4.67392 14 6C14 7.32608 14.5268 8.59785 15.4645 9.53553C16.4021 10.4732 17.6739 11 19 11H22.026C21.3611 11.8587 21.0003 12.914 21.0003 14C21.0003 15.086 21.3611 16.1413 22.026 17H12C10.6744 17.0016 9.40356 17.5289 8.46622 18.4662C7.52888 19.4036 7.00159 20.6744 7 22C7.00368 23.0855 7.36419 24.1396 8.026 25H4C3.73478 25 3.48043 25.1054 3.29289 25.2929C3.10536 25.4804 3 25.7348 3 26V32C3 32.2652 3.10536 32.5196 3.29289 32.7071C3.48043 32.8946 3.73478 33 4 33H7.124L10.546 58.661C10.7091 59.8603 11.3005 60.9601 12.211 61.7576C13.1215 62.555 14.2897 62.9963 15.5 63H48.5C49.7107 62.9968 50.8793 62.5558 51.7902 61.7582C52.7012 60.9607 53.2928 59.8606 53.456 58.661L56.876 33H60C60.2652 33 60.5196 32.8946 60.7071 32.7071C60.8946 32.5196 61 32.2652 61 32V26C61 25.7348 60.8946 25.4804 60.7071 25.2929C60.5196 25.1054 60.2652 25 60 25ZM16 6C16 5.20435 16.3161 4.44129 16.8787 3.87868C17.4413 3.31607 18.2044 3 19 3H47C47.7957 3 48.5587 3.31607 49.1213 3.87868C49.6839 4.44129 50 5.20435 50 6C50 6.79565 49.6839 7.55871 49.1213 8.12132C48.5587 8.68393 47.7957 9 47 9H19C18.2044 9 17.4413 8.68393 16.8787 8.12132C16.3161 7.55871 16 6.79565 16 6ZM23 14C23 13.2044 23.3161 12.4413 23.8787 11.8787C24.4413 11.3161 25.2044 11 26 11H54C54.7957 11 55.5587 11.3161 56.1213 11.8787C56.6839 12.4413 57 13.2044 57 14C57 14.7956 56.6839 15.5587 56.1213 16.1213C55.5587 16.6839 54.7957 17 54 17H26C25.2044 17 24.4413 16.6839 23.8787 16.1213C23.3161 15.5587 23 14.7956 23 14ZM9 22C9 21.2044 9.31607 20.4413 9.87868 19.8787C10.4413 19.3161 11.2044 19 12 19H50C50.7957 19 51.5587 19.3161 52.1213 19.8787C52.6839 20.4413 53 21.2044 53 22C53 22.7956 52.6839 23.5587 52.1213 24.1213C51.5587 24.6839 50.7957 25 50 25H12C11.2044 25 10.4413 24.6839 9.87868 24.1213C9.31607 23.5587 9 22.7956 9 22ZM51.472 58.4C51.373 59.1187 51.0178 59.7775 50.4717 60.2552C49.9257 60.7329 49.2255 60.9974 48.5 61H15.5C14.7741 60.9979 14.0735 60.7336 13.527 60.2559C12.9806 59.7781 12.6251 59.1191 12.526 58.4L9.142 33H54.858L51.472 58.4ZM59 31H5V27H59V31Z" fill="#4D4C7D"/>
<path d="M16 59H22C22.2652 59 22.5196 58.8946 22.7071 58.7071C22.8946 58.5196 23 58.2652 23 58C23 57.7348 22.8946 57.4804 22.7071 57.2929C22.5196 57.1054 22.2652 57 22 57H16C15.7348 57 15.4804 57.1054 15.2929 57.2929C15.1054 57.4804 15 57.7348 15 58C15 58.2652 15.1054 58.5196 15.2929 58.7071C15.4804 58.8946 15.7348 59 16 59Z" fill="#4D4C7D"/>
<path d="M24 58C24 58.2652 24.1054 58.5196 24.2929 58.7071C24.4804 58.8946 24.7348 59 25 59H26C26.2652 59 26.5196 58.8946 26.7071 58.7071C26.8946 58.5196 27 58.2652 27 58C27 57.7348 26.8946 57.4804 26.7071 57.2929C26.5196 57.1054 26.2652 57 26 57H25C24.7348 57 24.4804 57.1054 24.2929 57.2929C24.1054 57.4804 24 57.7348 24 58Z" fill="#4D4C7D"/>
<path d="M28 40H36C36.2652 40 36.5196 39.8946 36.7071 39.7071C36.8946 39.5196 37 39.2652 37 39V36C37 35.7348 36.8946 35.4804 36.7071 35.2929C36.5196 35.1054 36.2652 35 36 35H28C27.7348 35 27.4804 35.1054 27.2929 35.2929C27.1054 35.4804 27 35.7348 27 36V39C27 39.2652 27.1054 39.5196 27.2929 39.7071C27.4804 39.8946 27.7348 40 28 40ZM29 37H35V38H29V37Z" fill="#4D4C7D"/>
<path d="M16 40H24C24.2652 40 24.5196 39.8946 24.7071 39.7071C24.8946 39.5196 25 39.2652 25 39V36C25 35.7348 24.8946 35.4804 24.7071 35.2929C24.5196 35.1054 24.2652 35 24 35H16C15.7348 35 15.4804 35.1054 15.2929 35.2929C15.1054 35.4804 15 35.7348 15 36V39C15 39.2652 15.1054 39.5196 15.2929 39.7071C15.4804 39.8946 15.7348 40 16 40ZM17 37H23V38H17V37Z" fill="#4D4C7D"/>
<path d="M40 40H48C48.2652 40 48.5196 39.8946 48.7071 39.7071C48.8946 39.5196 49 39.2652 49 39V36C49 35.7348 48.8946 35.4804 48.7071 35.2929C48.5196 35.1054 48.2652 35 48 35H40C39.7348 35 39.4804 35.1054 39.2929 35.2929C39.1054 35.4804 39 35.7348 39 36V39C39 39.2652 39.1054 39.5196 39.2929 39.7071C39.4804 39.8946 39.7348 40 40 40ZM41 37H47V38H41V37Z" fill="#4D4C7D"/>
<path d="M28 47H36C36.2652 47 36.5196 46.8946 36.7071 46.7071C36.8946 46.5196 37 46.2652 37 46V43C37 42.7348 36.8946 42.4804 36.7071 42.2929C36.5196 42.1054 36.2652 42 36 42H28C27.7348 42 27.4804 42.1054 27.2929 42.2929C27.1054 42.4804 27 42.7348 27 43V46C27 46.2652 27.1054 46.5196 27.2929 46.7071C27.4804 46.8946 27.7348 47 28 47ZM29 44H35V45H29V44Z" fill="#4D4C7D"/>
<path d="M16 47H24C24.2652 47 24.5196 46.8946 24.7071 46.7071C24.8946 46.5196 25 46.2652 25 46V43C25 42.7348 24.8946 42.4804 24.7071 42.2929C24.5196 42.1054 24.2652 42 24 42H16C15.7348 42 15.4804 42.1054 15.2929 42.2929C15.1054 42.4804 15 42.7348 15 43V46C15 46.2652 15.1054 46.5196 15.2929 46.7071C15.4804 46.8946 15.7348 47 16 47ZM17 44H23V45H17V44Z" fill="#4D4C7D"/>
<path d="M40 47H48C48.2652 47 48.5196 46.8946 48.7071 46.7071C48.8946 46.5196 49 46.2652 49 46V43C49 42.7348 48.8946 42.4804 48.7071 42.2929C48.5196 42.1054 48.2652 42 48 42H40C39.7348 42 39.4804 42.1054 39.2929 42.2929C39.1054 42.4804 39 42.7348 39 43V46C39 46.2652 39.1054 46.5196 39.2929 46.7071C39.4804 46.8946 39.7348 47 40 47ZM41 44H47V45H41V44Z" fill="#4D4C7D"/>
<path d="M28 54H36C36.2652 54 36.5196 53.8946 36.7071 53.7071C36.8946 53.5196 37 53.2652 37 53V50C37 49.7348 36.8946 49.4804 36.7071 49.2929C36.5196 49.1054 36.2652 49 36 49H28C27.7348 49 27.4804 49.1054 27.2929 49.2929C27.1054 49.4804 27 49.7348 27 50V53C27 53.2652 27.1054 53.5196 27.2929 53.7071C27.4804 53.8946 27.7348 54 28 54ZM29 51H35V52H29V51Z" fill="#4D4C7D"/>
<path d="M16 54H24C24.2652 54 24.5196 53.8946 24.7071 53.7071C24.8946 53.5196 25 53.2652 25 53V50C25 49.7348 24.8946 49.4804 24.7071 49.2929C24.5196 49.1054 24.2652 49 24 49H16C15.7348 49 15.4804 49.1054 15.2929 49.2929C15.1054 49.4804 15 49.7348 15 50V53C15 53.2652 15.1054 53.5196 15.2929 53.7071C15.4804 53.8946 15.7348 54 16 54ZM17 51H23V52H17V51Z" fill="#4D4C7D"/>
<path d="M40 54H48C48.2652 54 48.5196 53.8946 48.7071 53.7071C48.8946 53.5196 49 53.2652 49 53V50C49 49.7348 48.8946 49.4804 48.7071 49.2929C48.5196 49.1054 48.2652 49 48 49H40C39.7348 49 39.4804 49.1054 39.2929 49.2929C39.1054 49.4804 39 49.7348 39 50V53C39 53.2652 39.1054 53.5196 39.2929 53.7071C39.4804 53.8946 39.7348 54 40 54ZM41 51H47V52H41V51Z" fill="#4D4C7D"/>
</svg>
