<svg width="64" height="64" viewBox="0 0 64 64" fill="none" xmlns="http://www.w3.org/2000/svg">
<path d="M49 15C48.7348 15 48.4804 15.1054 48.2929 15.2929C48.1054 15.4804 48 15.7348 48 16C48 16.2652 48.1054 16.5196 48.2929 16.7071C48.4804 16.8946 48.7348 17 49 17H51V19C51 19.2652 51.1054 19.5196 51.2929 19.7071C51.4804 19.8946 51.7348 20 52 20C52.2652 20 52.5196 19.8946 52.7071 19.7071C52.8946 19.5196 53 19.2652 53 19V17H55C55.2652 17 55.5196 16.8946 55.7071 16.7071C55.8946 16.5196 56 16.2652 56 16C56 15.7348 55.8946 15.4804 55.7071 15.2929C55.5196 15.1054 55.2652 15 55 15H53V13C53 12.7348 52.8946 12.4804 52.7071 12.2929C52.5196 12.1054 52.2652 12 52 12C51.7348 12 51.4804 12.1054 51.2929 12.2929C51.1054 12.4804 51 12.7348 51 13V15H49Z" fill="#4D4C7D"/>
<path d="M21 14C21 14.2652 21.1054 14.5196 21.2929 14.7071C21.4804 14.8946 21.7348 15 22 15C22.2652 15 22.5196 14.8946 22.7071 14.7071C22.8946 14.5196 23 14.2652 23 14C23 12.9391 22.5786 11.9217 21.8284 11.1716C21.0783 10.4214 20.0609 10 19 10C18.7348 10 18.4804 10.1054 18.2929 10.2929C18.1054 10.4804 18 10.7348 18 11C18 11.2652 18.1054 11.5196 18.2929 11.7071C18.4804 11.8946 18.7348 12 19 12C19.5304 12 20.0391 12.2107 20.4142 12.5858C20.7893 12.9609 21 13.4696 21 14Z" fill="#4D4C7D"/>
<path d="M43 15C44.3845 15 45.7378 14.5895 46.889 13.8203C48.0401 13.0511 48.9373 11.9579 49.4672 10.6788C49.997 9.3997 50.1356 7.99224 49.8655 6.63437C49.5954 5.2765 48.9287 4.02922 47.9497 3.05026C46.9708 2.07129 45.7235 1.4046 44.3656 1.13451C43.0078 0.86441 41.6003 1.00303 40.3212 1.53285C39.0421 2.06266 37.9489 2.95987 37.1797 4.11101C36.4105 5.26216 36 6.61553 36 8C36.0021 9.85587 36.7403 11.6351 38.0526 12.9474C39.3649 14.2597 41.1441 14.9979 43 15ZM43 3C43.9889 3 44.9556 3.29325 45.7779 3.84265C46.6001 4.39206 47.241 5.17296 47.6194 6.08659C47.9978 7.00022 48.0969 8.00555 47.9039 8.97545C47.711 9.94536 47.2348 10.8363 46.5355 11.5355C45.8363 12.2348 44.9454 12.711 43.9755 12.9039C43.0055 13.0969 42.0002 12.9978 41.0866 12.6194C40.173 12.241 39.3921 11.6001 38.8427 10.7779C38.2932 9.95561 38 8.98891 38 8C38.0016 6.67441 38.5289 5.40356 39.4662 4.46622C40.4036 3.52889 41.6744 3.00159 43 3Z" fill="#4D4C7D"/>
<path d="M43 6C43.5304 6 44.0391 6.21071 44.4142 6.58579C44.7893 6.96086 45 7.46957 45 8C45 8.26522 45.1054 8.51957 45.2929 8.70711C45.4804 8.89464 45.7348 9 46 9C46.2652 9 46.5196 8.89464 46.7071 8.70711C46.8946 8.51957 47 8.26522 47 8C47 6.93913 46.5786 5.92172 45.8284 5.17157C45.0783 4.42143 44.0609 4 43 4C42.7348 4 42.4804 4.10536 42.2929 4.29289C42.1054 4.48043 42 4.73478 42 5C42 5.26522 42.1054 5.51957 42.2929 5.70711C42.4804 5.89464 42.7348 6 43 6Z" fill="#4D4C7D"/>
<path d="M32 18C32.7911 18 33.5645 17.7654 34.2223 17.3259C34.8801 16.8864 35.3928 16.2616 35.6955 15.5307C35.9983 14.7998 36.0775 13.9956 35.9231 13.2196C35.7688 12.4437 35.3878 11.731 34.8284 11.1716C34.269 10.6122 33.5563 10.2312 32.7804 10.0769C32.0044 9.92252 31.2002 10.0017 30.4693 10.3045C29.7384 10.6072 29.1136 11.1199 28.6741 11.7777C28.2346 12.4355 28 13.2089 28 14C28 15.0609 28.4214 16.0783 29.1716 16.8284C29.9217 17.5786 30.9391 18 32 18ZM32 12C32.3956 12 32.7822 12.1173 33.1111 12.3371C33.44 12.5568 33.6964 12.8692 33.8478 13.2346C33.9991 13.6001 34.0387 14.0022 33.9616 14.3902C33.8844 14.7781 33.6939 15.1345 33.4142 15.4142C33.1345 15.6939 32.7781 15.8844 32.3902 15.9616C32.0022 16.0387 31.6001 15.9991 31.2346 15.8478C30.8692 15.6964 30.5568 15.44 30.3371 15.1111C30.1173 14.7822 30 14.3956 30 14C30 13.4696 30.2107 12.9609 30.5858 12.5858C30.9609 12.2107 31.4696 12 32 12Z" fill="#4D4C7D"/>
<path d="M41 41H23C22.7348 41 22.4804 41.1054 22.2929 41.2929C22.1054 41.4804 22 41.7348 22 42V48C22 48.2652 22.1054 48.5196 22.2929 48.7071C22.4804 48.8946 22.7348 49 23 49H41C41.2652 49 41.5196 48.8946 41.7071 48.7071C41.8946 48.5196 42 48.2652 42 48V42C42 41.7348 41.8946 41.4804 41.7071 41.2929C41.5196 41.1054 41.2652 41 41 41ZM40 47H24V43H40V47Z" fill="#4D4C7D"/>
<path d="M16 41C15.2089 41 14.4355 41.2346 13.7777 41.6741C13.1199 42.1136 12.6072 42.7384 12.3045 43.4693C12.0017 44.2002 11.9225 45.0044 12.0769 45.7804C12.2312 46.5563 12.6122 47.269 13.1716 47.8284C13.731 48.3878 14.4437 48.7688 15.2196 48.9231C15.9956 49.0775 16.7998 48.9983 17.5307 48.6955C18.2616 48.3928 18.8864 47.8801 19.3259 47.2223C19.7654 46.5645 20 45.7911 20 45C20 43.9391 19.5786 42.9217 18.8284 42.1716C18.0783 41.4214 17.0609 41 16 41ZM16 47C15.6044 47 15.2178 46.8827 14.8889 46.6629C14.56 46.4432 14.3036 46.1308 14.1522 45.7654C14.0009 45.3999 13.9613 44.9978 14.0384 44.6098C14.1156 44.2219 14.3061 43.8655 14.5858 43.5858C14.8655 43.3061 15.2219 43.1156 15.6098 43.0384C15.9978 42.9613 16.3999 43.0009 16.7654 43.1522C17.1308 43.3036 17.4432 43.56 17.6629 43.8889C17.8827 44.2178 18 44.6044 18 45C18 45.5304 17.7893 46.0391 17.4142 46.4142C17.0391 46.7893 16.5304 47 16 47Z" fill="#4D4C7D"/>
<path d="M44 45C44 45.7911 44.2346 46.5645 44.6741 47.2223C45.1136 47.8801 45.7384 48.3928 46.4693 48.6955C47.2002 48.9983 48.0044 49.0775 48.7804 48.9231C49.5563 48.7688 50.269 48.3878 50.8284 47.8284C51.3878 47.269 51.7688 46.5563 51.9231 45.7804C52.0775 45.0044 51.9983 44.2002 51.6955 43.4693C51.3928 42.7384 50.8801 42.1136 50.2223 41.6741C49.5645 41.2346 48.7911 41 48 41C46.9391 41 45.9217 41.4214 45.1716 42.1716C44.4214 42.9217 44 43.9391 44 45ZM50 45C50 45.3956 49.8827 45.7822 49.6629 46.1111C49.4432 46.44 49.1308 46.6964 48.7654 46.8478C48.3999 46.9991 47.9978 47.0387 47.6098 46.9616C47.2219 46.8844 46.8655 46.6939 46.5858 46.4142C46.3061 46.1345 46.1156 45.7781 46.0384 45.3902C45.9613 45.0022 46.0009 44.6001 46.1522 44.2346C46.3036 43.8692 46.56 43.5568 46.8889 43.3371C47.2178 43.1173 47.6044 43 48 43C48.5304 43 49.0391 43.2107 49.4142 43.5858C49.7893 43.9609 50 44.4696 50 45Z" fill="#4D4C7D"/>
<path d="M53 37H57C57.2652 37 57.5196 36.8946 57.7071 36.7071C57.8946 36.5196 58 36.2652 58 36V32C58 31.7348 57.8946 31.4804 57.7071 31.2929C57.5196 31.1054 57.2652 31 57 31H53C52.7348 31 52.4804 31.1054 52.2929 31.2929C52.1054 31.4804 52 31.7348 52 32V33H50.181L48.546 23.177C48.3549 22.0073 47.7529 20.9441 46.8481 20.1784C45.9434 19.4128 44.7952 18.995 43.61 19H43C43 18.2043 42.6839 17.4413 42.1213 16.8787C41.5587 16.3161 40.7957 16 40 16C39.2043 16 38.4413 16.3161 37.8787 16.8787C37.3161 17.4413 37 18.2043 37 19H23.889C24.9789 17.9353 25.6917 16.5441 25.9192 15.0375C26.1466 13.531 25.8763 11.9913 25.1493 10.6523C24.4222 9.31332 23.2781 8.24811 21.8907 7.61839C20.5033 6.98867 18.9483 6.82883 17.4618 7.16313C15.9752 7.49743 14.6384 8.30762 13.6541 9.4707C12.6699 10.6338 12.092 12.0862 12.0082 13.6076C11.9244 15.1289 12.3393 16.6361 13.1898 17.9002C14.0404 19.1643 15.2802 20.1165 16.721 20.612C16.0563 21.3239 15.6157 22.2155 15.454 23.176L13.819 33H12V32C12 31.7348 11.8946 31.4804 11.7071 31.2929C11.5196 31.1054 11.2652 31 11 31H7C6.73478 31 6.48043 31.1054 6.29289 31.2929C6.10536 31.4804 6 31.7348 6 32V36C6 36.2652 6.10536 36.5196 6.29289 36.7071C6.48043 36.8946 6.73478 37 7 37H11C11.2652 37 11.5196 36.8946 11.7071 36.7071C11.8946 36.5196 12 36.2652 12 36V35H13.486L13.144 37.053C10.538 37.309 9 38.736 9 41V50H7C6.73478 50 6.48043 50.1054 6.29289 50.2929C6.10536 50.4804 6 50.7348 6 51V56C6 56.2652 6.10536 56.5196 6.29289 56.7071C6.48043 56.8946 6.73478 57 7 57H10V60C10 60.7957 10.3161 61.5587 10.8787 62.1213C11.4413 62.6839 12.2044 63 13 63H15C15.7956 63 16.5587 62.6839 17.1213 62.1213C17.6839 61.5587 18 60.7957 18 60V57H46V60C46 60.7957 46.3161 61.5587 46.8787 62.1213C47.4413 62.6839 48.2043 63 49 63H51C51.7957 63 52.5587 62.6839 53.1213 62.1213C53.6839 61.5587 54 60.7957 54 60V57H57C57.2652 57 57.5196 56.8946 57.7071 56.7071C57.8946 56.5196 58 56.2652 58 56V51C58 50.7348 57.8946 50.4804 57.7071 50.2929C57.5196 50.1054 57.2652 50 57 50H55V41C55 38.736 53.462 37.309 50.856 37.053L50.514 35H52V36C52 36.2652 52.1054 36.5196 52.2929 36.7071C52.4804 36.8946 52.7348 37 53 37ZM54 33H56V35H54V33ZM10 35H8V33H10V35ZM40 18C40.1978 18 40.3911 18.0586 40.5556 18.1685C40.72 18.2784 40.8482 18.4346 40.9239 18.6173C40.9996 18.8 41.0194 19.0011 40.9808 19.1951C40.9422 19.3891 40.847 19.5673 40.7071 19.7071C40.5673 19.847 40.3891 19.9422 40.1951 19.9808C40.0011 20.0194 39.8 19.9996 39.6173 19.9239C39.4346 19.8482 39.2784 19.72 39.1685 19.5556C39.0586 19.3911 39 19.1978 39 19C39 18.7348 39.1054 18.4804 39.2929 18.2929C39.4804 18.1054 39.7348 18 40 18ZM37.78 21C38.0581 21.3144 38.3998 21.5661 38.7826 21.7385C39.1653 21.9109 39.5802 22.0001 40 22.0001C40.4198 22.0001 40.8347 21.9109 41.2174 21.7385C41.6002 21.5661 41.9419 21.3144 42.22 21H43.61C44.2315 20.9976 44.8383 21.1889 45.3461 21.5473C45.8538 21.9058 46.2372 22.4135 46.443 23H17.557C17.7627 22.4135 18.146 21.9056 18.6538 21.5472C19.1616 21.1887 19.7685 20.9974 20.39 21H37.78ZM14 14C14 13.0111 14.2932 12.0444 14.8427 11.2221C15.3921 10.3999 16.173 9.75904 17.0866 9.3806C18.0002 9.00216 19.0055 8.90315 19.9755 9.09607C20.9454 9.289 21.8363 9.7652 22.5355 10.4645C23.2348 11.1637 23.711 12.0546 23.9039 13.0245C24.0969 13.9945 23.9978 14.9998 23.6194 15.9134C23.241 16.827 22.6001 17.6079 21.7779 18.1573C20.9556 18.7068 19.9889 19 19 19C17.6744 18.9984 16.4036 18.4711 15.4662 17.5338C14.5289 16.5964 14.0016 15.3256 14 14ZM17.178 25H46.822L48.822 37H45.911C46.0616 36.1377 46.0218 35.2529 45.7942 34.4077C45.5666 33.5624 45.1569 32.7772 44.5937 32.1071C44.0305 31.437 43.3275 30.8983 42.534 30.5287C41.7406 30.1591 40.8758 29.9675 40.0005 29.9675C39.1252 29.9675 38.2604 30.1591 37.467 30.5287C36.6735 30.8983 35.9705 31.437 35.4073 32.1071C34.8441 32.7772 34.4344 33.5624 34.2068 34.4077C33.9792 35.2529 33.9394 36.1377 34.09 37H15.181L17.178 25ZM36.141 37C35.9788 36.4065 35.9557 35.7836 36.0735 35.1798C36.1912 34.5759 36.4467 34.0074 36.82 33.5184C37.1933 33.0293 37.6744 32.633 38.2259 32.3602C38.7773 32.0874 39.3843 31.9455 39.9995 31.9455C40.6147 31.9455 41.2217 32.0874 41.7731 32.3602C42.3246 32.633 42.8057 33.0293 43.179 33.5184C43.5523 34.0074 43.8078 34.5759 43.9255 35.1798C44.0433 35.7836 44.0202 36.4065 43.858 37H36.141ZM16 60C16 60.2652 15.8946 60.5196 15.7071 60.7071C15.5196 60.8946 15.2652 61 15 61H13C12.7348 61 12.4804 60.8946 12.2929 60.7071C12.1054 60.5196 12 60.2652 12 60V57H16V60ZM8 55V52H25V55H8ZM27 55V52H38V55H27ZM52 60C52 60.2652 51.8946 60.5196 51.7071 60.7071C51.5196 60.8946 51.2652 61 51 61H49C48.7348 61 48.4804 60.8946 48.2929 60.7071C48.1054 60.5196 48 60.2652 48 60V57H52V60ZM56 55H40V52H56V55ZM53 41V50H11V41C11 40.505 11 39 14 39H50C53 39 53 40.505 53 41Z" fill="#4D4C7D"/>
<path d="M9 7H10V8C10 8.26522 10.1054 8.51957 10.2929 8.70711C10.4804 8.89464 10.7348 9 11 9C11.2652 9 11.5196 8.89464 11.7071 8.70711C11.8946 8.51957 12 8.26522 12 8V7H13C13.2652 7 13.5196 6.89464 13.7071 6.70711C13.8946 6.51957 14 6.26522 14 6C14 5.73478 13.8946 5.48043 13.7071 5.29289C13.5196 5.10536 13.2652 5 13 5H12V4C12 3.73478 11.8946 3.48043 11.7071 3.29289C11.5196 3.10536 11.2652 3 11 3C10.7348 3 10.4804 3.10536 10.2929 3.29289C10.1054 3.48043 10 3.73478 10 4V5H9C8.73478 5 8.48043 5.10536 8.29289 5.29289C8.10536 5.48043 8 5.73478 8 6C8 6.26522 8.10536 6.51957 8.29289 6.70711C8.48043 6.89464 8.73478 7 9 7Z" fill="#4D4C7D"/>
</svg>
