<svg width="64" height="64" viewBox="0 0 64 64" fill="none" xmlns="http://www.w3.org/2000/svg">
<path d="M6 60H13C13.2652 60 13.5196 59.8946 13.7071 59.7071C13.8946 59.5196 14 59.2652 14 59C14 58.7348 13.8946 58.4804 13.7071 58.2929C13.5196 58.1054 13.2652 58 13 58H6C5.73478 58 5.48043 58.1054 5.29289 58.2929C5.10536 58.4804 5 58.7348 5 59C5 59.2652 5.10536 59.5196 5.29289 59.7071C5.48043 59.8946 5.73478 60 6 60Z" fill="#4D4C7D"/>
<path d="M16 60H17C17.2652 60 17.5196 59.8946 17.7071 59.7071C17.8946 59.5196 18 59.2652 18 59C18 58.7348 17.8946 58.4804 17.7071 58.2929C17.5196 58.1054 17.2652 58 17 58H16C15.7348 58 15.4804 58.1054 15.2929 58.2929C15.1054 58.4804 15 58.7348 15 59C15 59.2652 15.1054 59.5196 15.2929 59.7071C15.4804 59.8946 15.7348 60 16 60Z" fill="#4D4C7D"/>
<path d="M35 7C30.4715 6.99848 26.0104 8.0966 22 10.2V8C22 7.73478 21.8946 7.48043 21.7071 7.29289C21.5196 7.10536 21.2652 7 21 7H18V2C18 1.73478 17.8946 1.48043 17.7071 1.29289C17.5196 1.10536 17.2652 1 17 1H13C12.7348 1 12.4804 1.10536 12.2929 1.29289C12.1054 1.48043 12 1.73478 12 2V7H9C8.73479 7 8.48043 7.10536 8.2929 7.29289C8.10536 7.48043 8 7.73478 8 8V13H5C4.20435 13 3.44129 13.3161 2.87868 13.8787C2.31607 14.4413 2 15.2044 2 16V28.4C1.99944 28.994 2.17595 29.5748 2.507 30.068L3.426 31.442C3.53585 31.6064 3.59449 31.7997 3.59449 31.9975C3.59449 32.1953 3.53585 32.3886 3.426 32.553L2.5 33.942C2.17332 34.4332 1.99935 35.0101 2 35.6V60C2 60.7957 2.31607 61.5587 2.87868 62.1213C3.44129 62.6839 4.20435 63 5 63H25C25.4402 62.9989 25.8747 62.9004 26.2723 62.7116C26.67 62.5228 27.0209 62.2484 27.3 61.908C31.1528 63.0167 35.1989 63.2851 39.1644 62.695C43.1299 62.1049 46.9225 60.6701 50.2856 58.4876C53.6487 56.3052 56.5039 53.4259 58.658 50.0446C60.8122 46.6633 62.2151 42.8588 62.7719 38.8885C63.3287 34.9181 63.0263 30.8745 61.8853 27.0311C60.7443 23.1877 58.7912 19.6342 56.1582 16.6108C53.5251 13.5875 50.2735 11.1648 46.6232 9.50675C42.973 7.84867 39.0092 6.99381 35 7ZM14 3H16V7H14V3ZM10 9H20V13H10V9ZM4 16C4 15.7348 4.10536 15.4804 4.2929 15.2929C4.48043 15.1054 4.73479 15 5 15H25C25.2652 15 25.5196 15.1054 25.7071 15.2929C25.8946 15.4804 26 15.7348 26 16V19H4V16ZM4 35.6C4.00015 35.4028 4.0586 35.2101 4.168 35.046L5.091 33.662C5.42204 33.1691 5.59882 32.5888 5.59882 31.995C5.59882 31.4012 5.42204 30.8209 5.091 30.328L4.171 28.954C4.06054 28.7903 4.00104 28.5975 4 28.4V21H26V28.4C25.9999 28.598 25.9411 28.7915 25.831 28.956L24.912 30.329C24.5811 30.8218 24.4043 31.4019 24.4043 31.9955C24.4043 32.5891 24.5811 33.1692 24.912 33.662L25.835 35.046C25.9428 35.2106 26.0002 35.4032 26 35.6V41H4V35.6ZM27.5 33.936L26.577 32.551C26.4674 32.3867 26.4089 32.1935 26.4089 31.996C26.4089 31.7985 26.4674 31.6053 26.577 31.441L27.495 30.068C27.8255 29.5746 28.0013 28.9938 28 28.4V16C27.998 15.7498 27.9644 15.5008 27.9 15.259C30.1752 14.4286 32.578 14.0025 35 14C38.062 13.9939 41.0883 14.6574 43.8668 15.9441C46.6453 17.2308 49.1088 19.1096 51.0847 21.4487C53.0606 23.7879 54.5011 26.5308 55.3051 29.4854C56.1092 32.4399 56.2575 35.5345 55.7395 38.5524C55.2215 41.5702 54.0499 44.4383 52.3066 46.9556C50.5634 49.4729 48.2907 51.5786 45.6479 53.125C43.0051 54.6714 40.0561 55.6212 37.0076 55.9078C33.959 56.1944 30.8847 55.8108 28 54.784V35.6C28.0005 35.0098 27.8265 34.4326 27.5 33.941V33.936ZM26 60C26 60.2652 25.8946 60.5196 25.7071 60.7071C25.5196 60.8946 25.2652 61 25 61H5C4.73479 61 4.48043 60.8946 4.2929 60.7071C4.10536 60.5196 4 60.2652 4 60V43H26V60ZM35 61C32.6334 60.9949 30.2785 60.6679 28 60.028C28 60.018 28 60.01 28 60V56.893C31.5042 58.0213 35.2281 58.2919 38.8587 57.6821C42.4892 57.0723 45.9204 55.6 48.8637 53.3888C51.8071 51.1776 54.1766 48.2921 55.7733 44.975C57.3699 41.6578 58.147 38.0059 58.0391 34.3261C57.9313 30.6462 56.9417 27.0461 55.1536 23.8281C53.3654 20.6102 50.8309 17.8684 47.7631 15.8334C44.6953 13.7984 41.1839 12.5295 37.5238 12.1333C33.8638 11.7372 30.1622 12.2255 26.73 13.557C26.2255 13.1955 25.6206 13.0008 25 13H22V12.5C25.4535 10.5002 29.321 9.32227 33.3029 9.05736C37.2848 8.79246 41.2742 9.44771 44.9622 10.9724C48.6501 12.497 51.9376 14.8502 54.57 17.8495C57.2024 20.8489 59.1091 24.4139 60.1423 28.2686C61.1755 32.1232 61.3075 36.1639 60.5281 40.0778C59.7487 43.9916 58.0789 47.6736 55.6479 50.8383C53.2169 54.0031 50.09 56.5659 46.5094 58.328C42.9289 60.0901 38.9907 61.0044 35 61Z" fill="#4D4C7D"/>
<path d="M53 8H56V11C56 11.2652 56.1054 11.5196 56.2929 11.7071C56.4804 11.8946 56.7348 12 57 12C57.2652 12 57.5196 11.8946 57.7071 11.7071C57.8946 11.5196 58 11.2652 58 11V8H61C61.2652 8 61.5196 7.89464 61.7071 7.70711C61.8946 7.51957 62 7.26522 62 7C62 6.73478 61.8946 6.48043 61.7071 6.29289C61.5196 6.10536 61.2652 6 61 6H58V3C58 2.73478 57.8946 2.48043 57.7071 2.29289C57.5196 2.10536 57.2652 2 57 2C56.7348 2 56.4804 2.10536 56.2929 2.29289C56.1054 2.48043 56 2.73478 56 3V6H53C52.7348 6 52.4804 6.10536 52.2929 6.29289C52.1054 6.48043 52 6.73478 52 7C52 7.26522 52.1054 7.51957 52.2929 7.70711C52.4804 7.89464 52.7348 8 53 8Z" fill="#4D4C7D"/>
<path d="M49 8H50C50.2652 8 50.5196 7.89464 50.7071 7.70711C50.8946 7.51957 51 7.26522 51 7C51 6.73478 50.8946 6.48043 50.7071 6.29289C50.5196 6.10536 50.2652 6 50 6H49C48.7348 6 48.4804 6.10536 48.2929 6.29289C48.1054 6.48043 48 6.73478 48 7C48 7.26522 48.1054 7.51957 48.2929 7.70711C48.4804 7.89464 48.7348 8 49 8Z" fill="#4D4C7D"/>
<path d="M36 33H39V36C39 36.2652 39.1054 36.5196 39.2929 36.7071C39.4804 36.8946 39.7348 37 40 37C40.2652 37 40.5196 36.8946 40.7071 36.7071C40.8946 36.5196 41 36.2652 41 36V33H44C44.2652 33 44.5196 32.8946 44.7071 32.7071C44.8946 32.5196 45 32.2652 45 32C45 31.7348 44.8946 31.4804 44.7071 31.2929C44.5196 31.1054 44.2652 31 44 31H41V28C41 27.7348 40.8946 27.4804 40.7071 27.2929C40.5196 27.1054 40.2652 27 40 27C39.7348 27 39.4804 27.1054 39.2929 27.2929C39.1054 27.4804 39 27.7348 39 28V31H36C35.7348 31 35.4804 31.1054 35.2929 31.2929C35.1054 31.4804 35 31.7348 35 32C35 32.2652 35.1054 32.5196 35.2929 32.7071C35.4804 32.8946 35.7348 33 36 33Z" fill="#4D4C7D"/>
<path d="M40 26C40.2652 26 40.5196 25.8946 40.7071 25.7071C40.8946 25.5196 41 25.2652 41 25V24C41 23.7348 40.8946 23.4804 40.7071 23.2929C40.5196 23.1054 40.2652 23 40 23C39.7348 23 39.4804 23.1054 39.2929 23.2929C39.1054 23.4804 39 23.7348 39 24V25C39 25.2652 39.1054 25.5196 39.2929 25.7071C39.4804 25.8946 39.7348 26 40 26Z" fill="#4D4C7D"/>
<path d="M4 6H5V7C5 7.26522 5.10536 7.51957 5.29289 7.70711C5.48043 7.89464 5.73478 8 6 8C6.26522 8 6.51957 7.89464 6.70711 7.70711C6.89464 7.51957 7 7.26522 7 7V6H8C8.26522 6 8.51957 5.89464 8.70711 5.70711C8.89464 5.51957 9 5.26522 9 5C9 4.73478 8.89464 4.48043 8.70711 4.29289C8.51957 4.10536 8.26522 4 8 4H7V3C7 2.73478 6.89464 2.48043 6.70711 2.29289C6.51957 2.10536 6.26522 2 6 2C5.73478 2 5.48043 2.10536 5.29289 2.29289C5.10536 2.48043 5 2.73478 5 3V4H4C3.73478 4 3.48043 4.10536 3.29289 4.29289C3.10536 4.48043 3 4.73478 3 5C3 5.26522 3.10536 5.51957 3.29289 5.70711C3.48043 5.89464 3.73478 6 4 6Z" fill="#4D4C7D"/>
<path d="M45 42H44C43.7348 42 43.4804 42.1054 43.2929 42.2929C43.1054 42.4804 43 42.7348 43 43C43 43.2652 43.1054 43.5196 43.2929 43.7071C43.4804 43.8946 43.7348 44 44 44H45V45C45 45.2652 45.1054 45.5196 45.2929 45.7071C45.4804 45.8946 45.7348 46 46 46C46.2652 46 46.5196 45.8946 46.7071 45.7071C46.8946 45.5196 47 45.2652 47 45V44H48C48.2652 44 48.5196 43.8946 48.7071 43.7071C48.8946 43.5196 49 43.2652 49 43C49 42.7348 48.8946 42.4804 48.7071 42.2929C48.5196 42.1054 48.2652 42 48 42H47V41C47 40.7348 46.8946 40.4804 46.7071 40.2929C46.5196 40.1054 46.2652 40 46 40C45.7348 40 45.4804 40.1054 45.2929 40.2929C45.1054 40.4804 45 40.7348 45 41V42Z" fill="#4D4C7D"/>
</svg>
