<svg width="64" height="64" viewBox="0 0 64 64" fill="none" xmlns="http://www.w3.org/2000/svg">
<path d="M21 60H28C28.2652 60 28.5196 59.8946 28.7071 59.7071C28.8946 59.5196 29 59.2652 29 59C29 58.7348 28.8946 58.4804 28.7071 58.2929C28.5196 58.1054 28.2652 58 28 58H21C20.7348 58 20.4804 58.1054 20.2929 58.2929C20.1054 58.4804 20 58.7348 20 59C20 59.2652 20.1054 59.5196 20.2929 59.7071C20.4804 59.8946 20.7348 60 21 60Z" fill="#4D4C7D"/>
<path d="M31 60H32C32.2652 60 32.5196 59.8946 32.7071 59.7071C32.8946 59.5196 33 59.2652 33 59C33 58.7348 32.8946 58.4804 32.7071 58.2929C32.5196 58.1054 32.2652 58 32 58H31C30.7348 58 30.4804 58.1054 30.2929 58.2929C30.1054 58.4804 30 58.7348 30 59C30 59.2652 30.1054 59.5196 30.2929 59.7071C30.4804 59.8946 30.7348 60 31 60Z" fill="#4D4C7D"/>
<path d="M46.493 30.072C46.825 29.5777 47.0016 28.9954 47 28.4V16C47 15.2044 46.6839 14.4413 46.1213 13.8787C45.5587 13.3161 44.7957 13 44 13H39V8C39 7.73478 38.8946 7.48043 38.7071 7.29289C38.5196 7.10536 38.2652 7 38 7H35V2C35 1.73478 34.8946 1.48043 34.7071 1.29289C34.5196 1.10536 34.2652 1 34 1H30C29.7348 1 29.4804 1.10536 29.2929 1.29289C29.1054 1.48043 29 1.73478 29 2V7H26C25.7348 7 25.4804 7.10536 25.2929 7.29289C25.1054 7.48043 25 7.73478 25 8V13H20C19.2044 13 18.4413 13.3161 17.8787 13.8787C17.3161 14.4413 17 15.2044 17 16V28.4C16.9992 28.9941 17.1757 29.5749 17.507 30.068L18.426 31.442C18.5359 31.6064 18.5945 31.7997 18.5945 31.9975C18.5945 32.1953 18.5359 32.3886 18.426 32.553L17.5 33.941C17.1732 34.4325 16.9992 35.0098 17 35.6V60C17 60.7957 17.3161 61.5587 17.8787 62.1213C18.4413 62.6839 19.2044 63 20 63H44C44.7957 63 45.5587 62.6839 46.1213 62.1213C46.6839 61.5587 47 60.7957 47 60V35.6C47.0018 35.0081 46.8278 34.4289 46.5 33.936L45.577 32.552C45.4671 32.3876 45.4085 32.1943 45.4085 31.9965C45.4085 31.7987 45.4671 31.6054 45.577 31.441L46.493 30.072ZM45 28.4C44.9999 28.598 44.9411 28.7915 44.831 28.956L43.912 30.329C43.5814 30.8219 43.4049 31.402 43.4049 31.9955C43.4049 32.589 43.5814 33.1691 43.912 33.662L44.835 35.047C44.9435 35.211 45.0009 35.4034 45 35.6V41H19V35.6C18.9998 35.4028 19.0583 35.2099 19.168 35.046L20.091 33.661C20.4216 33.1681 20.5981 32.588 20.5981 31.9945C20.5981 31.401 20.4216 30.8209 20.091 30.328L19.172 28.955C19.061 28.7911 19.0011 28.5979 19 28.4V21H45V28.4ZM31 3H33V7H31V3ZM27 9H37V13H27V9ZM19 16C19 15.7348 19.1054 15.4804 19.2929 15.2929C19.4804 15.1054 19.7348 15 20 15H44C44.2652 15 44.5196 15.1054 44.7071 15.2929C44.8946 15.4804 45 15.7348 45 16V19H19V16ZM45 60C45 60.2652 44.8946 60.5196 44.7071 60.7071C44.5196 60.8946 44.2652 61 44 61H20C19.7348 61 19.4804 60.8946 19.2929 60.7071C19.1054 60.5196 19 60.2652 19 60V43H45V60Z" fill="#4D4C7D"/>
<path d="M35 39C36.3845 39 37.7378 38.5895 38.889 37.8203C40.0401 37.0511 40.9373 35.9579 41.4672 34.6788C41.997 33.3997 42.1356 31.9922 41.8655 30.6344C41.5954 29.2765 40.9287 28.0292 39.9497 27.0503C38.9708 26.0713 37.7235 25.4046 36.3656 25.1345C35.0078 24.8644 33.6003 25.003 32.3212 25.5328C31.0421 26.0627 29.9489 26.9599 29.1797 28.111C28.4105 29.2622 28 30.6155 28 32C28.0021 33.8559 28.7403 35.6351 30.0526 36.9474C31.3649 38.2597 33.1441 38.9979 35 39ZM35 27C35.9889 27 36.9556 27.2932 37.7779 27.8427C38.6001 28.3921 39.241 29.173 39.6194 30.0866C39.9978 31.0002 40.0969 32.0056 39.9039 32.9755C39.711 33.9454 39.2348 34.8363 38.5355 35.5355C37.8363 36.2348 36.9454 36.711 35.9755 36.9039C35.0055 37.0969 34.0002 36.9978 33.0866 36.6194C32.173 36.241 31.3921 35.6001 30.8427 34.7779C30.2932 33.9556 30 32.9889 30 32C30.0016 30.6744 30.5289 29.4036 31.4662 28.4662C32.4036 27.5289 33.6744 27.0016 35 27Z" fill="#4D4C7D"/>
<path d="M31.843 32.178C31.9285 32.2008 32.0165 32.2125 32.105 32.213C32.3247 32.2129 32.5382 32.1405 32.7126 32.0069C32.8871 31.8734 33.0126 31.6861 33.07 31.474C33.1854 31.0506 33.4369 30.6769 33.7856 30.4105C34.1344 30.1442 34.5611 29.9999 35 30C35.2652 30 35.5195 29.8946 35.7071 29.7071C35.8946 29.5196 36 29.2652 36 29C36 28.7348 35.8946 28.4804 35.7071 28.2929C35.5195 28.1054 35.2652 28 35 28C34.122 28.0008 33.2685 28.29 32.5709 28.8232C31.8733 29.3564 31.3702 30.104 31.139 30.951C31.1046 31.0778 31.0955 31.2101 31.1123 31.3404C31.1291 31.4707 31.1714 31.5964 31.2368 31.7104C31.3021 31.8243 31.3893 31.9243 31.4933 32.0045C31.5974 32.0847 31.7162 32.1437 31.843 32.178Z" fill="#4D4C7D"/>
<path d="M25 29C25.5933 29 26.1734 28.8241 26.6667 28.4944C27.1601 28.1648 27.5446 27.6962 27.7716 27.1481C27.9987 26.5999 28.0581 25.9967 27.9424 25.4147C27.8266 24.8328 27.5409 24.2982 27.1213 23.8787C26.7018 23.4591 26.1672 23.1734 25.5853 23.0576C25.0033 22.9419 24.4001 23.0013 23.8519 23.2284C23.3038 23.4554 22.8352 23.8399 22.5056 24.3333C22.1759 24.8266 22 25.4067 22 26C22 26.7957 22.3161 27.5587 22.8787 28.1213C23.4413 28.6839 24.2044 29 25 29ZM25 25C25.1978 25 25.3911 25.0586 25.5556 25.1685C25.72 25.2784 25.8482 25.4346 25.9239 25.6173C25.9996 25.8 26.0194 26.0011 25.9808 26.1951C25.9422 26.3891 25.847 26.5673 25.7071 26.7071C25.5673 26.847 25.3891 26.9422 25.1951 26.9808C25.0011 27.0194 24.8 26.9996 24.6173 26.9239C24.4346 26.8482 24.2784 26.72 24.1685 26.5556C24.0586 26.3911 24 26.1978 24 26C24 25.7348 24.1054 25.4804 24.2929 25.2929C24.4804 25.1054 24.7348 25 25 25Z" fill="#4D4C7D"/>
<path d="M22 38H23V39C23 39.2652 23.1054 39.5196 23.2929 39.7071C23.4804 39.8946 23.7348 40 24 40C24.2652 40 24.5196 39.8946 24.7071 39.7071C24.8946 39.5196 25 39.2652 25 39V38H26C26.2652 38 26.5196 37.8946 26.7071 37.7071C26.8946 37.5196 27 37.2652 27 37C27 36.7348 26.8946 36.4804 26.7071 36.2929C26.5196 36.1054 26.2652 36 26 36H25V35C25 34.7348 24.8946 34.4804 24.7071 34.2929C24.5196 34.1054 24.2652 34 24 34C23.7348 34 23.4804 34.1054 23.2929 34.2929C23.1054 34.4804 23 34.7348 23 35V36H22C21.7348 36 21.4804 36.1054 21.2929 36.2929C21.1054 36.4804 21 36.7348 21 37C21 37.2652 21.1054 37.5196 21.2929 37.7071C21.4804 37.8946 21.7348 38 22 38Z" fill="#4D4C7D"/>
<path d="M32 52C32.2652 52 32.5196 51.8946 32.7071 51.7071C32.8946 51.5196 33 51.2652 33 51V47C33 46.7348 32.8946 46.4804 32.7071 46.2929C32.5196 46.1054 32.2652 46 32 46C31.7348 46 31.4804 46.1054 31.2929 46.2929C31.1054 46.4804 31 46.7348 31 47V51C31 51.2652 31.1054 51.5196 31.2929 51.7071C31.4804 51.8946 31.7348 52 32 52Z" fill="#4D4C7D"/>
<path d="M22 52C22.2652 52 22.5196 51.8946 22.7071 51.7071C22.8946 51.5196 23 51.2652 23 51V47C23 46.7348 22.8946 46.4804 22.7071 46.2929C22.5196 46.1054 22.2652 46 22 46C21.7348 46 21.4804 46.1054 21.2929 46.2929C21.1054 46.4804 21 46.7348 21 47V51C21 51.2652 21.1054 51.5196 21.2929 51.7071C21.4804 51.8946 21.7348 52 22 52Z" fill="#4D4C7D"/>
<path d="M42 52C42.2652 52 42.5196 51.8946 42.7071 51.7071C42.8946 51.5196 43 51.2652 43 51V47C43 46.7348 42.8946 46.4804 42.7071 46.2929C42.5196 46.1054 42.2652 46 42 46C41.7348 46 41.4804 46.1054 41.2929 46.2929C41.1054 46.4804 41 46.7348 41 47V51C41 51.2652 41.1054 51.5196 41.2929 51.7071C41.4804 51.8946 41.7348 52 42 52Z" fill="#4D4C7D"/>
<path d="M27 51C27.2652 51 27.5196 50.8946 27.7071 50.7071C27.8946 50.5196 28 50.2652 28 50V48C28 47.7348 27.8946 47.4804 27.7071 47.2929C27.5196 47.1054 27.2652 47 27 47C26.7348 47 26.4804 47.1054 26.2929 47.2929C26.1054 47.4804 26 47.7348 26 48V50C26 50.2652 26.1054 50.5196 26.2929 50.7071C26.4804 50.8946 26.7348 51 27 51Z" fill="#4D4C7D"/>
<path d="M37 51C37.2652 51 37.5196 50.8946 37.7071 50.7071C37.8946 50.5196 38 50.2652 38 50V48C38 47.7348 37.8946 47.4804 37.7071 47.2929C37.5196 47.1054 37.2652 47 37 47C36.7348 47 36.4804 47.1054 36.2929 47.2929C36.1054 47.4804 36 47.7348 36 48V50C36 50.2652 36.1054 50.5196 36.2929 50.7071C36.4804 50.8946 36.7348 51 37 51Z" fill="#4D4C7D"/>
</svg>
