<svg width="64" height="64" viewBox="0 0 64 64" fill="none" xmlns="http://www.w3.org/2000/svg">
<path d="M27 57H20C19.7348 57 19.4804 57.1054 19.2929 57.2929C19.1054 57.4804 19 57.7348 19 58C19 58.2652 19.1054 58.5196 19.2929 58.7071C19.4804 58.8946 19.7348 59 20 59H27C27.2652 59 27.5196 58.8946 27.7071 58.7071C27.8946 58.5196 28 58.2652 28 58C28 57.7348 27.8946 57.4804 27.7071 57.2929C27.5196 57.1054 27.2652 57 27 57Z" fill="#4D4C7D"/>
<path d="M31 57H30C29.7348 57 29.4804 57.1054 29.2929 57.2929C29.1054 57.4804 29 57.7348 29 58C29 58.2652 29.1054 58.5196 29.2929 58.7071C29.4804 58.8946 29.7348 59 30 59H31C31.2652 59 31.5196 58.8946 31.7071 58.7071C31.8946 58.5196 32 58.2652 32 58C32 57.7348 31.8946 57.4804 31.7071 57.2929C31.5196 57.1054 31.2652 57 31 57Z" fill="#4D4C7D"/>
<path d="M47.507 17.389C46.4836 16.3132 45.2514 15.4578 43.8857 14.875C42.5201 14.2923 41.0498 13.9945 39.565 14H39V13C39 12.2044 38.6839 11.4413 38.1213 10.8787C37.5587 10.3161 36.7957 10 36 10H33V7H36C36.7957 7 37.5587 6.68393 38.1213 6.12132C38.6839 5.55871 39 4.79565 39 4C39 3.20435 38.6839 2.44129 38.1213 1.87868C37.5587 1.31607 36.7957 1 36 1H26C25.7348 1 25.4804 1.10536 25.2929 1.29289C25.1054 1.48043 25 1.73478 25 2V6C25 6.26522 25.1054 6.51957 25.2929 6.70711C25.4804 6.89464 25.7348 7 26 7H31V10H28C27.2044 10 26.4413 10.3161 25.8787 10.8787C25.3161 11.4413 25 12.2044 25 13V14H24.435C22.9511 14 21.4825 14.3003 20.1176 14.8827C18.7528 15.4651 17.5199 16.3177 16.4931 17.3891C15.4664 18.4605 14.6671 19.7286 14.1432 21.117C13.6194 22.5054 13.3819 23.9854 13.445 25.468L14.838 58.212C14.89 59.5011 15.4393 60.7199 16.3706 61.6126C17.302 62.5053 18.5429 63.0026 19.833 63H44.167C45.4571 63.0026 46.6981 62.5053 47.6294 61.6126C48.5607 60.7199 49.11 59.5011 49.162 58.212L50.555 25.468C50.624 23.9848 50.3893 22.5031 49.8651 21.1138C49.341 19.7245 48.5386 18.457 47.507 17.389ZM27 5V3H36C36.2652 3 36.5196 3.10536 36.7071 3.29289C36.8947 3.48043 37 3.73478 37 4C37 4.26522 36.8947 4.51957 36.7071 4.70711C36.5196 4.89464 36.2652 5 36 5H27ZM47.6 48H16.405L15.512 27H48.488L47.6 48ZM27 13C27 12.7348 27.1054 12.4804 27.2929 12.2929C27.4804 12.1054 27.7348 12 28 12H36C36.2652 12 36.5196 12.1054 36.7071 12.2929C36.8947 12.4804 37 12.7348 37 13V14H27V13ZM17.937 18.773C18.7742 17.8927 19.7824 17.1927 20.8998 16.7158C22.0172 16.239 23.2202 15.9954 24.435 16H39.565C40.7467 15.9989 41.917 16.2311 43.0088 16.6832C44.1005 17.1352 45.0924 17.7983 45.9274 18.6344C46.7625 19.4704 47.4244 20.4631 47.8751 21.5554C48.3258 22.6478 48.5565 23.8183 48.554 25H15.446C15.4326 22.6789 16.3265 20.4444 17.937 18.773ZM44.167 61H19.833C19.0585 61.0022 18.3132 60.7041 17.7538 60.1684C17.1943 59.6326 16.8643 58.9009 16.833 58.127L16.49 50H47.51L47.164 58.127C47.1327 58.9004 46.8031 59.6317 46.2444 60.1673C45.6856 60.703 44.9411 61.0014 44.167 61Z" fill="#4D4C7D"/>
<path d="M32 45C33.3845 45 34.7378 44.5895 35.889 43.8203C37.0401 43.0511 37.9373 41.9579 38.4672 40.6788C38.997 39.3997 39.1356 37.9922 38.8655 36.6344C38.5954 35.2765 37.9287 34.0292 36.9497 33.0503C35.9708 32.0713 34.7235 31.4046 33.3656 31.1345C32.0078 30.8644 30.6003 31.003 29.3212 31.5328C28.0421 32.0627 26.9489 32.9599 26.1797 34.111C25.4105 35.2622 25 36.6155 25 38C25.0021 39.8559 25.7403 41.6351 27.0526 42.9474C28.3649 44.2597 30.1441 44.9979 32 45ZM32 33C32.9889 33 33.9556 33.2932 34.7779 33.8427C35.6001 34.3921 36.241 35.173 36.6194 36.0866C36.9978 37.0002 37.0969 38.0056 36.9039 38.9755C36.711 39.9454 36.2348 40.8363 35.5355 41.5355C34.8363 42.2348 33.9454 42.711 32.9755 42.9039C32.0055 43.0969 31.0002 42.9978 30.0866 42.6194C29.173 42.241 28.3921 41.6001 27.8427 40.7779C27.2932 39.9556 27 38.9889 27 38C27.0016 36.6744 27.5289 35.4036 28.4662 34.4662C29.4036 33.5289 30.6744 33.0016 32 33Z" fill="#4D4C7D"/>
<path d="M28.843 38.178C28.9285 38.2008 29.0166 38.2125 29.105 38.213C29.3247 38.2129 29.5383 38.1405 29.7127 38.0069C29.8871 37.8734 30.0127 37.6861 30.07 37.474C30.1855 37.0506 30.4369 36.6769 30.7857 36.4105C31.1345 36.1442 31.5612 35.9999 32 36C32.2653 36 32.5196 35.8946 32.7071 35.7071C32.8947 35.5196 33 35.2652 33 35C33 34.7348 32.8947 34.4804 32.7071 34.2929C32.5196 34.1054 32.2653 34 32 34C31.122 34.0008 30.2686 34.29 29.571 34.8232C28.8734 35.3564 28.3703 36.104 28.139 36.951C28.1047 37.0778 28.0956 37.2101 28.1124 37.3404C28.1292 37.4707 28.1714 37.5964 28.2368 37.7104C28.3022 37.8243 28.3894 37.9243 28.4934 38.0045C28.5974 38.0847 28.7162 38.1437 28.843 38.178Z" fill="#4D4C7D"/>
<path d="M22 35C22.5933 35 23.1734 34.8241 23.6667 34.4944C24.1601 34.1648 24.5446 33.6962 24.7716 33.148C24.9987 32.5999 25.0581 31.9967 24.9424 31.4147C24.8266 30.8328 24.5409 30.2982 24.1213 29.8787C23.7018 29.4591 23.1672 29.1734 22.5853 29.0576C22.0033 28.9419 21.4001 29.0013 20.8519 29.2284C20.3038 29.4554 19.8352 29.8399 19.5056 30.3333C19.1759 30.8266 19 31.4067 19 32C19 32.7957 19.3161 33.5587 19.8787 34.1213C20.4413 34.6839 21.2044 35 22 35ZM22 31C22.1978 31 22.3911 31.0586 22.5556 31.1685C22.72 31.2784 22.8482 31.4346 22.9239 31.6173C22.9996 31.8 23.0194 32.0011 22.9808 32.1951C22.9422 32.3891 22.847 32.5673 22.7071 32.7071C22.5673 32.847 22.3891 32.9422 22.1951 32.9808C22.0011 33.0194 21.8 32.9996 21.6173 32.9239C21.4346 32.8482 21.2784 32.72 21.1685 32.5556C21.0586 32.3911 21 32.1978 21 32C21 31.7348 21.1054 31.4804 21.2929 31.2929C21.4804 31.1054 21.7348 31 22 31Z" fill="#4D4C7D"/>
<path d="M39 42C39 42.5933 39.1759 43.1734 39.5056 43.6667C39.8352 44.1601 40.3038 44.5446 40.852 44.7716C41.4001 44.9987 42.0033 45.0581 42.5853 44.9424C43.1672 44.8266 43.7018 44.5409 44.1213 44.1213C44.5409 43.7018 44.8266 43.1672 44.9424 42.5853C45.0581 42.0033 44.9987 41.4001 44.7716 40.852C44.5446 40.3038 44.1601 39.8352 43.6667 39.5056C43.1734 39.1759 42.5933 39 42 39C41.2044 39 40.4413 39.3161 39.8787 39.8787C39.3161 40.4413 39 41.2044 39 42ZM43 42C43 42.1978 42.9414 42.3911 42.8315 42.5556C42.7216 42.72 42.5654 42.8482 42.3827 42.9239C42.2 42.9996 41.9989 43.0194 41.8049 42.9808C41.6109 42.9422 41.4327 42.847 41.2929 42.7071C41.153 42.5673 41.0578 42.3891 41.0192 42.1951C40.9806 42.0011 41.0004 41.8 41.0761 41.6173C41.1518 41.4346 41.28 41.2784 41.4444 41.1685C41.6089 41.0586 41.8022 41 42 41C42.2652 41 42.5196 41.1054 42.7071 41.2929C42.8946 41.4804 43 41.7348 43 42Z" fill="#4D4C7D"/>
<path d="M19 44H20V45C20 45.2652 20.1054 45.5196 20.2929 45.7071C20.4804 45.8946 20.7348 46 21 46C21.2652 46 21.5196 45.8946 21.7071 45.7071C21.8946 45.5196 22 45.2652 22 45V44H23C23.2652 44 23.5196 43.8946 23.7071 43.7071C23.8946 43.5196 24 43.2652 24 43C24 42.7348 23.8946 42.4804 23.7071 42.2929C23.5196 42.1054 23.2652 42 23 42H22V41C22 40.7348 21.8946 40.4804 21.7071 40.2929C21.5196 40.1054 21.2652 40 21 40C20.7348 40 20.4804 40.1054 20.2929 40.2929C20.1054 40.4804 20 40.7348 20 41V42H19C18.7348 42 18.4804 42.1054 18.2929 42.2929C18.1054 42.4804 18 42.7348 18 43C18 43.2652 18.1054 43.5196 18.2929 43.7071C18.4804 43.8946 18.7348 44 19 44Z" fill="#4D4C7D"/>
<path d="M39 34H40V35C40 35.2652 40.1054 35.5196 40.2929 35.7071C40.4804 35.8946 40.7348 36 41 36C41.2652 36 41.5196 35.8946 41.7071 35.7071C41.8946 35.5196 42 35.2652 42 35V34H43C43.2652 34 43.5196 33.8946 43.7071 33.7071C43.8946 33.5196 44 33.2652 44 33C44 32.7348 43.8946 32.4804 43.7071 32.2929C43.5196 32.1054 43.2652 32 43 32H42V31C42 30.7348 41.8946 30.4804 41.7071 30.2929C41.5196 30.1054 41.2652 30 41 30C40.7348 30 40.4804 30.1054 40.2929 30.2929C40.1054 30.4804 40 30.7348 40 31V32H39C38.7348 32 38.4804 32.1054 38.2929 32.2929C38.1054 32.4804 38 32.7348 38 33C38 33.2652 38.1054 33.5196 38.2929 33.7071C38.4804 33.8946 38.7348 34 39 34Z" fill="#4D4C7D"/>
</svg>
