<svg width="64" height="64" viewBox="0 0 64 64" fill="none" xmlns="http://www.w3.org/2000/svg">
<path d="M48 47H41V44C41 43.7348 40.8946 43.4804 40.7071 43.2929C40.5196 43.1054 40.2652 43 40 43H35V4C35 3.20435 34.6839 2.44129 34.1213 1.87868C33.5587 1.31607 32.7956 1 32 1C31.2044 1 30.4413 1.31607 29.8787 1.87868C29.3161 2.44129 29 3.20435 29 4V43H24C23.7348 43 23.4804 43.1054 23.2929 43.2929C23.1054 43.4804 23 43.7348 23 44V47H16C15.2044 47 14.4413 47.3161 13.8787 47.8787C13.3161 48.4413 13 49.2043 13 50V62C13 62.2652 13.1054 62.5196 13.2929 62.7071C13.4804 62.8946 13.7348 63 14 63C14.2652 63 14.5196 62.8946 14.7071 62.7071C14.8946 62.5196 15 62.2652 15 62V57H22V62C22 62.2652 22.1054 62.5196 22.2929 62.7071C22.4804 62.8946 22.7348 63 23 63C23.2652 63 23.5196 62.8946 23.7071 62.7071C23.8946 62.5196 24 62.2652 24 62V57H31V62C31 62.2652 31.1054 62.5196 31.2929 62.7071C31.4804 62.8946 31.7348 63 32 63C32.2652 63 32.5196 62.8946 32.7071 62.7071C32.8946 62.5196 33 62.2652 33 62V57H40V62C40 62.2652 40.1054 62.5196 40.2929 62.7071C40.4804 62.8946 40.7348 63 41 63C41.2652 63 41.5196 62.8946 41.7071 62.7071C41.8946 62.5196 42 62.2652 42 62V57H49V62C49 62.2652 49.1054 62.5196 49.2929 62.7071C49.4804 62.8946 49.7348 63 50 63C50.2652 63 50.5196 62.8946 50.7071 62.7071C50.8946 62.5196 51 62.2652 51 62V50C51 49.2043 50.6839 48.4413 50.1213 47.8787C49.5587 47.3161 48.7957 47 48 47ZM31 4C31 3.73478 31.1054 3.48043 31.2929 3.29289C31.4804 3.10536 31.7348 3 32 3C32.2652 3 32.5196 3.10536 32.7071 3.29289C32.8946 3.48043 33 3.73478 33 4V6H31V4ZM31 8H33V43H31V8ZM15 50C15 49.7348 15.1054 49.4804 15.2929 49.2929C15.4804 49.1054 15.7348 49 16 49H24C24.2652 49 24.5196 48.8946 24.7071 48.7071C24.8946 48.5196 25 48.2652 25 48V45H39V48C39 48.2652 39.1054 48.5196 39.2929 48.7071C39.4804 48.8946 39.7348 49 40 49H48C48.2652 49 48.5196 49.1054 48.7071 49.2929C48.8946 49.4804 49 49.7348 49 50V52H15V50ZM15 55V54H49V55H15Z" fill="#4D4C7D"/>
<path d="M32 47H27C26.7348 47 26.4804 47.1054 26.2929 47.2929C26.1054 47.4804 26 47.7348 26 48C26 48.2652 26.1054 48.5196 26.2929 48.7071C26.4804 48.8946 26.7348 49 27 49H32C32.2652 49 32.5196 48.8946 32.7071 48.7071C32.8946 48.5196 33 48.2652 33 48C33 47.7348 32.8946 47.4804 32.7071 47.2929C32.5196 47.1054 32.2652 47 32 47Z" fill="#4D4C7D"/>
<path d="M36 47H35C34.7348 47 34.4804 47.1054 34.2929 47.2929C34.1054 47.4804 34 47.7348 34 48C34 48.2652 34.1054 48.5196 34.2929 48.7071C34.4804 48.8946 34.7348 49 35 49H36C36.2652 49 36.5196 48.8946 36.7071 48.7071C36.8946 48.5196 37 48.2652 37 48C37 47.7348 36.8946 47.4804 36.7071 47.2929C36.5196 47.1054 36.2652 47 36 47Z" fill="#4D4C7D"/>
<path d="M19 42C19.2652 42 19.5196 41.8947 19.7071 41.7071C19.8946 41.5196 20 41.2653 20 41V39.864C22.309 39.232 24 36.444 24 33C24 29.2 19.739 26.292 19.558 26.17C19.393 26.0591 19.1988 25.9999 19 25.9999C18.8012 25.9999 18.607 26.0591 18.442 26.17C18.261 26.292 14 29.2 14 33C14 36.444 15.691 39.232 18 39.864V41C18 41.2653 18.1054 41.5196 18.2929 41.7071C18.4804 41.8947 18.7348 42 19 42ZM16 33C16 30.941 18 29.064 19 28.253C20 29.064 22 30.941 22 33C22 35.126 21.15 36.976 20 37.682V35C20 34.7348 19.8946 34.4805 19.7071 34.2929C19.5196 34.1054 19.2652 34 19 34C18.7348 34 18.4804 34.1054 18.2929 34.2929C18.1054 34.4805 18 34.7348 18 35V37.682C16.85 36.976 16 35.126 16 33Z" fill="#4D4C7D"/>
<path d="M41.294 36.183C41.4336 36.1829 41.5717 36.1536 41.6993 36.0969C41.827 36.0403 41.9413 35.9575 42.035 35.854L42.808 35C43.4129 35.3051 44.0815 35.4624 44.759 35.459C45.8391 35.3929 46.8943 35.1068 47.8598 34.6183C48.8254 34.1297 49.681 33.449 50.374 32.618C52.931 29.803 51.729 24.788 51.674 24.575C51.6263 24.3824 51.5224 24.2083 51.3755 24.0749C51.2286 23.9415 51.0453 23.8549 50.849 23.826C50.632 23.795 45.524 23.08 42.968 25.897C40.653 28.447 40.031 31.648 41.316 33.668L40.552 34.509C40.4219 34.6524 40.3362 34.8304 40.3053 35.0215C40.2745 35.2127 40.2998 35.4087 40.3781 35.5857C40.4565 35.7627 40.5845 35.9132 40.7468 36.0189C40.909 36.1246 41.0984 36.1809 41.292 36.181L41.294 36.183ZM44.451 27.243C45.614 25.962 47.735 25.725 49.151 25.725C49.42 25.725 49.663 25.733 49.868 25.745C50.068 27.02 50.282 29.752 48.899 31.276C47.469 32.85 45.599 33.648 44.27 33.398L46.07 31.412C46.2455 31.2152 46.3362 30.957 46.3223 30.6936C46.3083 30.4303 46.191 30.1831 45.9957 30.0059C45.8004 29.8287 45.543 29.7358 45.2796 29.7474C45.0161 29.759 44.7679 29.8742 44.589 30.068L42.789 32.054C42.408 30.758 43.022 28.818 44.451 27.243Z" fill="#4D4C7D"/>
<path d="M16.207 21.271C17.4818 22.3888 19.0545 23.1112 20.733 23.35C20.9717 23.3776 21.2117 23.3916 21.452 23.392C22.3643 23.4103 23.2606 23.1508 24.022 22.648L24.896 23.389C24.9962 23.4739 25.1121 23.5382 25.2372 23.5783C25.3623 23.6184 25.494 23.6335 25.6249 23.6227C25.7558 23.6118 25.8832 23.5754 26 23.5153C26.1168 23.4552 26.2206 23.3727 26.3055 23.2725C26.3904 23.1723 26.4547 23.0564 26.4948 22.9313C26.5349 22.8062 26.55 22.6745 26.5392 22.5436C26.5284 22.4127 26.4919 22.2853 26.4318 22.1685C26.3717 22.0517 26.2892 21.9479 26.189 21.863L25.322 21.129C26.333 18.959 25.298 15.866 22.67 13.641C19.77 11.183 14.797 12.556 14.586 12.616C14.3951 12.6704 14.2246 12.7803 14.0964 12.9319C13.9682 13.0834 13.888 13.2697 13.866 13.467C13.841 13.685 13.305 18.813 16.207 21.271ZM15.815 14.388C17.083 14.147 19.806 13.836 21.377 15.166C23 16.541 23.862 18.385 23.657 19.718L21.611 17.985C21.5108 17.9001 21.3949 17.8358 21.2698 17.7957C21.1447 17.7556 21.013 17.7405 20.8821 17.7513C20.7512 17.7621 20.6238 17.7986 20.507 17.8587C20.3902 17.9188 20.2864 18.0013 20.2015 18.1015C20.1166 18.2017 20.0523 18.3176 20.0122 18.4427C19.9721 18.5678 19.957 18.6995 19.9678 18.8304C19.9787 18.9613 20.0151 19.0887 20.0752 19.2055C20.1353 19.3223 20.2178 19.4261 20.318 19.511L22.376 21.254C21.9172 21.3875 21.4357 21.4242 20.962 21.362C19.6755 21.1705 18.4726 20.6086 17.5 19.745C15.928 18.414 15.787 15.677 15.815 14.388Z" fill="#4D4C7D"/>
</svg>
