<svg width="64" height="64" viewBox="0 0 64 64" fill="none" xmlns="http://www.w3.org/2000/svg">
<path d="M57 55H52V26C52 25.8641 51.9724 25.7297 51.9188 25.6049C51.8651 25.48 51.7866 25.3675 51.688 25.274L44.8 18.756C46.0037 18.4355 47.1001 17.7997 47.9761 16.9141C48.852 16.0285 49.4758 14.9251 49.783 13.718C50.0902 12.5108 50.0697 11.2436 49.7237 10.047C49.3776 8.85035 48.7186 7.76776 47.8145 6.9109C46.9104 6.05403 45.794 5.45394 44.5806 5.17254C43.3671 4.89114 42.1006 4.93863 40.9116 5.31011C39.7227 5.68158 38.6544 6.36359 37.817 7.28575C36.9796 8.20792 36.4035 9.33682 36.148 10.556L32.684 7.27598C32.4982 7.09986 32.252 7.00169 31.996 7.00169C31.74 7.00169 31.4938 7.09986 31.308 7.27598L25.065 13.19C24.4412 12.4959 23.6847 11.9337 22.8401 11.5367C21.9956 11.1397 21.08 10.9159 20.1475 10.8785C19.2151 10.8411 18.2845 10.9908 17.4109 11.3189C16.5372 11.6469 15.7381 12.1467 15.0607 12.7886C14.3833 13.4305 13.8414 14.2016 13.4668 15.0564C13.0923 15.9112 12.8928 16.8323 12.88 17.7654C12.8673 18.6986 13.0416 19.6248 13.3926 20.4895C13.7437 21.3542 14.2644 22.1398 14.924 22.8L12.312 25.273C12.2133 25.3666 12.1347 25.4793 12.0811 25.6043C12.0274 25.7293 11.9998 25.864 12 26V55H2C1.73478 55 1.48043 55.1053 1.29289 55.2929C1.10536 55.4804 1 55.7348 1 56C1 56.2652 1.10536 56.5196 1.29289 56.7071C1.48043 56.8946 1.73478 57 2 57H57C57.2652 57 57.5196 56.8946 57.7071 56.7071C57.8946 56.5196 58 56.2652 58 56C58 55.7348 57.8946 55.4804 57.7071 55.2929C57.5196 55.1053 57.2652 55 57 55ZM43 6.99998C44.3261 6.99998 45.5979 7.52676 46.5355 8.46445C47.4732 9.40213 48 10.6739 48 12C48 13.3261 47.4732 14.5978 46.5355 15.5355C45.5979 16.4732 44.3261 17 43 17C42.863 17 42.727 16.991 42.608 16.983C41.4656 16.8895 40.3898 16.4072 39.56 15.6165C38.7302 14.8258 38.1965 13.7745 38.048 12.638C38.0158 12.4268 37.9998 12.2136 38 12C38.0016 10.6744 38.5289 9.40354 39.4662 8.4662C40.4036 7.52886 41.6744 7.00157 43 6.99998ZM20 13C21.3261 13 22.5979 13.5268 23.5355 14.4644C24.4732 15.4021 25 16.6739 25 18C25 19.3261 24.4732 20.5978 23.5355 21.5355C22.5979 22.4732 21.3261 23 20 23C18.6739 23 17.4021 22.4732 16.4645 21.5355C15.5268 20.5978 15 19.3261 15 18C15.0016 16.6744 15.5289 15.4035 16.4662 14.4662C17.4036 13.5289 18.6744 13.0016 20 13ZM28 55V45H36V55H28ZM38 55V44C38 43.7348 37.8946 43.4804 37.7071 43.2929C37.5196 43.1053 37.2652 43 37 43H27C26.7348 43 26.4804 43.1053 26.2929 43.2929C26.1054 43.4804 26 43.7348 26 44V55H14V26.43L16.512 24.051C17.5698 24.6714 18.7737 24.9989 20 25C21.1969 25.002 22.3743 24.6966 23.4192 24.113C24.4642 23.5294 25.3418 22.6872 25.9678 21.6671C26.5938 20.647 26.9474 19.4832 26.9945 18.2872C27.0416 17.0912 26.7808 15.9032 26.237 14.837L32 9.37698L36.155 13.31C36.4303 14.7427 37.1474 16.0532 38.2056 17.0576C39.2637 18.062 40.6099 18.7097 42.055 18.91L50 26.43V55H38Z" fill="#4D4C7D"/>
<path d="M62 55H60C59.7348 55 59.4804 55.1054 59.2929 55.2929C59.1054 55.4804 59 55.7348 59 56C59 56.2652 59.1054 56.5196 59.2929 56.7071C59.4804 56.8946 59.7348 57 60 57H62C62.2652 57 62.5196 56.8946 62.7071 56.7071C62.8946 56.5196 63 56.2652 63 56C63 55.7348 62.8946 55.4804 62.7071 55.2929C62.5196 55.1054 62.2652 55 62 55Z" fill="#4D4C7D"/>
<path d="M50 18C49.7348 18 49.4804 18.1054 49.2929 18.2929C49.1054 18.4804 49 18.7348 49 19C49 19.2652 49.1054 19.5196 49.2929 19.7071C49.4804 19.8946 49.7348 20 50 20H52V22C52 22.2652 52.1054 22.5196 52.2929 22.7071C52.4804 22.8946 52.7348 23 53 23C53.2652 23 53.5196 22.8946 53.7071 22.7071C53.8946 22.5196 54 22.2652 54 22V20H56C56.2652 20 56.5196 19.8946 56.7071 19.7071C56.8946 19.5196 57 19.2652 57 19C57 18.7348 56.8946 18.4804 56.7071 18.2929C56.5196 18.1054 56.2652 18 56 18H54V16C54 15.7348 53.8946 15.4804 53.7071 15.2929C53.5196 15.1054 53.2652 15 53 15C52.7348 15 52.4804 15.1054 52.2929 15.2929C52.1054 15.4804 52 15.7348 52 16V18H50Z" fill="#4D4C7D"/>
<path d="M60 20C60.2652 20 60.5196 19.8946 60.7071 19.7071C60.8946 19.5196 61 19.2652 61 19C61 18.7348 60.8946 18.4804 60.7071 18.2929C60.5196 18.1054 60.2652 18 60 18H59C58.7348 18 58.4804 18.1054 58.2929 18.2929C58.1054 18.4804 58 18.7348 58 19C58 19.2652 58.1054 19.5196 58.2929 19.7071C58.4804 19.8946 58.7348 20 59 20H60Z" fill="#4D4C7D"/>
<path d="M6 24H7V25C7 25.2652 7.10536 25.5196 7.29289 25.7071C7.48043 25.8946 7.73478 26 8 26C8.26522 26 8.51957 25.8946 8.70711 25.7071C8.89464 25.5196 9 25.2652 9 25V24H10C10.2652 24 10.5196 23.8946 10.7071 23.7071C10.8946 23.5196 11 23.2652 11 23C11 22.7348 10.8946 22.4804 10.7071 22.2929C10.5196 22.1054 10.2652 22 10 22H9V21C9 20.7348 8.89464 20.4804 8.70711 20.2929C8.51957 20.1054 8.26522 20 8 20C7.73478 20 7.48043 20.1054 7.29289 20.2929C7.10536 20.4804 7 20.7348 7 21V22H6C5.73478 22 5.48043 22.1054 5.29289 22.2929C5.10536 22.4804 5 22.7348 5 23C5 23.2652 5.10536 23.5196 5.29289 23.7071C5.48043 23.8946 5.73478 24 6 24Z" fill="#4D4C7D"/>
<path d="M20 16C20.5304 16 21.0391 16.2107 21.4142 16.5858C21.7893 16.9609 22 17.4696 22 18C22 18.2652 22.1054 18.5196 22.2929 18.7071C22.4804 18.8946 22.7348 19 23 19C23.2652 19 23.5196 18.8946 23.7071 18.7071C23.8946 18.5196 24 18.2652 24 18C24 16.9391 23.5786 15.9217 22.8284 15.1716C22.0783 14.4214 21.0609 14 20 14C19.7348 14 19.4804 14.1054 19.2929 14.2929C19.1054 14.4804 19 14.7348 19 15C19 15.2652 19.1054 15.5196 19.2929 15.7071C19.4804 15.8946 19.7348 16 20 16Z" fill="#4D4C7D"/>
<path d="M43 10C43.5304 10 44.0391 10.2107 44.4142 10.5858C44.7893 10.9609 45 11.4696 45 12C45 12.2652 45.1054 12.5196 45.2929 12.7071C45.4804 12.8946 45.7348 13 46 13C46.2652 13 46.5196 12.8946 46.7071 12.7071C46.8946 12.5196 47 12.2652 47 12C47 10.9391 46.5786 9.92172 45.8284 9.17157C45.0783 8.42143 44.0609 8 43 8C42.7348 8 42.4804 8.10536 42.2929 8.29289C42.1054 8.48043 42 8.73478 42 9C42 9.26522 42.1054 9.51957 42.2929 9.70711C42.4804 9.89464 42.7348 10 43 10Z" fill="#4D4C7D"/>
<path d="M32 15C31.2089 15 30.4355 15.2346 29.7777 15.6741C29.1199 16.1136 28.6072 16.7384 28.3045 17.4693C28.0017 18.2002 27.9225 19.0044 28.0769 19.7804C28.2312 20.5563 28.6122 21.269 29.1716 21.8284C29.731 22.3878 30.4437 22.7688 31.2196 22.9231C31.9956 23.0775 32.7998 22.9983 33.5307 22.6955C34.2616 22.3928 34.8864 21.8801 35.3259 21.2223C35.7654 20.5645 36 19.7911 36 19C36 17.9391 35.5786 16.9217 34.8284 16.1716C34.0783 15.4214 33.0609 15 32 15ZM32 21C31.6044 21 31.2178 20.8827 30.8889 20.6629C30.56 20.4432 30.3036 20.1308 30.1522 19.7654C30.0009 19.3999 29.9613 18.9978 30.0384 18.6098C30.1156 18.2219 30.3061 17.8655 30.5858 17.5858C30.8655 17.3061 31.2219 17.1156 31.6098 17.0384C31.9978 16.9613 32.3999 17.0009 32.7654 17.1522C33.1308 17.3036 33.4432 17.56 33.6629 17.8889C33.8827 18.2178 34 18.6044 34 19C34 19.5304 33.7893 20.0391 33.4142 20.4142C33.0391 20.7893 32.5304 21 32 21Z" fill="#4D4C7D"/>
<path d="M40 20C39.4067 20 38.8266 20.1759 38.3333 20.5056C37.8399 20.8352 37.4554 21.3038 37.2284 21.8519C37.0013 22.4001 36.9419 23.0033 37.0576 23.5853C37.1734 24.1672 37.4591 24.7018 37.8787 25.1213C38.2982 25.5409 38.8328 25.8266 39.4147 25.9424C39.9967 26.0581 40.5999 25.9987 41.148 25.7716C41.6962 25.5446 42.1648 25.1601 42.4944 24.6667C42.8241 24.1734 43 23.5933 43 23C43 22.2044 42.6839 21.4413 42.1213 20.8787C41.5587 20.3161 40.7957 20 40 20ZM40 24C39.8022 24 39.6089 23.9414 39.4444 23.8315C39.28 23.7216 39.1518 23.5654 39.0761 23.3827C39.0004 23.2 38.9806 22.9989 39.0192 22.8049C39.0578 22.6109 39.153 22.4327 39.2929 22.2929C39.4327 22.153 39.6109 22.0578 39.8049 22.0192C39.9989 21.9806 40.2 22.0004 40.3827 22.0761C40.5654 22.1518 40.7216 22.28 40.8315 22.4444C40.9414 22.6089 41 22.8022 41 23C41 23.2652 40.8946 23.5196 40.7071 23.7071C40.5196 23.8946 40.2652 24 40 24Z" fill="#4D4C7D"/>
</svg>
