<svg width="64" height="64" viewBox="0 0 64 64" fill="none" xmlns="http://www.w3.org/2000/svg">
<path d="M52.448 32.094L33.849 14.38C32.9204 13.4923 31.6846 12.9978 30.4 13H29V9C29 8.73478 28.8946 8.48043 28.7071 8.29289C28.5196 8.10536 28.2652 8 28 8H25V2C25 1.73478 24.8946 1.48043 24.7071 1.29289C24.5196 1.10536 24.2652 1 24 1H19C18.7348 1 18.4804 1.10536 18.2929 1.29289C18.1054 1.48043 18 1.73478 18 2V8H15C14.7348 8 14.4804 8.10536 14.2929 8.29289C14.1054 8.48043 14 8.73478 14 9V13.1C12.8714 13.3321 11.8573 13.9462 11.1287 14.8387C10.4001 15.7313 10.0015 16.8478 10 18V58C10.0016 59.3256 10.5289 60.5964 11.4662 61.5338C12.4036 62.4711 13.6744 62.9984 15 63H49C50.3256 62.9984 51.5964 62.4711 52.5338 61.5338C53.4711 60.5964 53.9984 59.3256 54 58V35.714C53.999 35.0371 53.861 34.3674 53.5943 33.7453C53.3275 33.1231 52.9376 32.5614 52.448 32.094ZM12 37H52V55H12V37ZM20 3H23V8H20V3ZM16 10H27V13H16V10ZM12 18C12 17.2044 12.3161 16.4413 12.8787 15.8787C13.4413 15.3161 14.2044 15 15 15H30.4C31.1707 14.9988 31.912 15.2954 32.469 15.828L51.069 33.542C51.4791 33.939 51.7673 34.4448 51.9 35H12V18ZM52 58C52 58.7957 51.6839 59.5587 51.1213 60.1213C50.5587 60.6839 49.7957 61 49 61H15C14.2044 61 13.4413 60.6839 12.8787 60.1213C12.3161 59.5587 12 58.7957 12 58V57H52V58Z" fill="#4D4C7D"/>
<path d="M32.172 17.929C31.6079 17.3739 30.8473 17.0642 30.0559 17.0673C29.2645 17.0704 28.5064 17.3861 27.9467 17.9457C27.387 18.5052 27.0711 19.2633 27.0678 20.0547C27.0645 20.8461 27.374 21.6068 27.929 22.171L37.829 32.071C38.1067 32.3533 38.4376 32.5779 38.8025 32.7317C39.1674 32.8855 39.5592 32.9656 39.9552 32.9672C40.3512 32.9689 40.7437 32.8921 41.1099 32.7414C41.4761 32.5906 41.8088 32.3688 42.0888 32.0888C42.3689 31.8088 42.5908 31.4762 42.7416 31.11C42.8925 30.7438 42.9693 30.3514 42.9678 29.9554C42.9662 29.5594 42.8862 29.1676 42.7325 28.8026C42.5788 28.4377 42.3543 28.1068 42.072 27.829L32.172 17.929ZM40.657 30.657C40.5641 30.75 40.4538 30.8237 40.3324 30.874C40.211 30.9244 40.0809 30.9503 39.9495 30.9503C39.8181 30.9503 39.688 30.9244 39.5666 30.874C39.4452 30.8237 39.3349 30.75 39.242 30.657L29.342 20.757C29.1545 20.5693 29.0492 20.3149 29.0493 20.0496C29.0494 19.7844 29.1549 19.53 29.3425 19.3425C29.5301 19.155 29.7846 19.0497 30.0499 19.0498C30.3151 19.0499 30.5695 19.1553 30.757 19.343L40.657 29.243C40.8445 29.4305 40.9498 29.6848 40.9498 29.95C40.9498 30.2152 40.8445 30.4695 40.657 30.657Z" fill="#4D4C7D"/>
<path d="M15 60H21C21.2652 60 21.5196 59.8946 21.7071 59.7071C21.8946 59.5196 22 59.2652 22 59C22 58.7348 21.8946 58.4804 21.7071 58.2929C21.5196 58.1054 21.2652 58 21 58H15C14.7348 58 14.4804 58.1054 14.2929 58.2929C14.1054 58.4804 14 58.7348 14 59C14 59.2652 14.1054 59.5196 14.2929 59.7071C14.4804 59.8946 14.7348 60 15 60Z" fill="#4D4C7D"/>
<path d="M24 60H25C25.2652 60 25.5196 59.8946 25.7071 59.7071C25.8946 59.5196 26 59.2652 26 59C26 58.7348 25.8946 58.4804 25.7071 58.2929C25.5196 58.1054 25.2652 58 25 58H24C23.7348 58 23.4804 58.1054 23.2929 58.2929C23.1054 58.4804 23 58.7348 23 59C23 59.2652 23.1054 59.5196 23.2929 59.7071C23.4804 59.8946 23.7348 60 24 60Z" fill="#4D4C7D"/>
</svg>
