<svg width="64" height="64" viewBox="0 0 64 64" fill="none" xmlns="http://www.w3.org/2000/svg">
<path d="M49 1H15C13.6744 1.00159 12.4036 1.52888 11.4662 2.46622C10.5289 3.40356 10.0016 4.67441 10 6V36C10 36.2652 10.1054 36.5196 10.2929 36.7071C10.4804 36.8946 10.7348 37 11 37C11.2652 37 11.5196 36.8946 11.7071 36.7071C11.8946 36.5196 12 36.2652 12 36V33H16V59C15.9992 59.1867 16.0506 59.37 16.1485 59.529C16.2465 59.688 16.387 59.8164 16.5541 59.8996C16.7213 59.9829 16.9084 60.0177 17.0943 60.0001C17.2802 59.9825 17.4575 59.9132 17.606 59.8C17.926 59.557 25.499 53.918 31.293 59.712C32.2513 60.7181 33.4049 61.518 34.6832 62.0626C35.9615 62.6071 37.3376 62.885 38.727 62.879C41.9219 62.7293 45.0055 61.6597 47.607 59.799C47.7298 59.7052 47.8292 59.5843 47.8973 59.4457C47.9655 59.307 48.0007 59.1545 48 59V33H52V36C52 36.2652 52.1054 36.5196 52.2929 36.7071C52.4804 36.8946 52.7348 37 53 37C53.2652 37 53.5196 36.8946 53.7071 36.7071C53.8946 36.5196 54 36.2652 54 36V6C53.9984 4.67441 53.4711 3.40356 52.5338 2.46622C51.5964 1.52888 50.3256 1.00159 49 1ZM12 25V22H52V25H12ZM12 6C12 5.20435 12.3161 4.44129 12.8787 3.87868C13.4413 3.31607 14.2044 3 15 3H49C49.7957 3 50.5587 3.31607 51.1213 3.87868C51.6839 4.44129 52 5.20435 52 6V20H12V6ZM12 27H16V31H12V27ZM46 58.483C44.331 59.608 37.825 63.412 32.707 58.293C27.433 53.02 20.956 55.559 18 57.2V27H46V58.483ZM48 27H52V31H48V27Z" fill="#4D4C7D"/>
<path d="M23 5H15C14.7348 5 14.4804 5.10536 14.2929 5.29289C14.1054 5.48043 14 5.73478 14 6C14 6.26522 14.1054 6.51957 14.2929 6.70711C14.4804 6.89464 14.7348 7 15 7H23C23.2652 7 23.5196 6.89464 23.7071 6.70711C23.8946 6.51957 24 6.26522 24 6C24 5.73478 23.8946 5.48043 23.7071 5.29289C23.5196 5.10536 23.2652 5 23 5Z" fill="#4D4C7D"/>
<path d="M27 5H26C25.7348 5 25.4804 5.10536 25.2929 5.29289C25.1054 5.48043 25 5.73478 25 6C25 6.26522 25.1054 6.51957 25.2929 6.70711C25.4804 6.89464 25.7348 7 26 7H27C27.2652 7 27.5196 6.89464 27.7071 6.70711C27.8946 6.51957 28 6.26522 28 6C28 5.73478 27.8946 5.48043 27.7071 5.29289C27.5196 5.10536 27.2652 5 27 5Z" fill="#4D4C7D"/>
</svg>
