<svg width="64" height="64" viewBox="0 0 64 64" fill="none" xmlns="http://www.w3.org/2000/svg">
<path d="M20 40H14C13.7348 40 13.4804 40.1054 13.2929 40.2929C13.1054 40.4804 13 40.7348 13 41C13 41.2652 13.1054 41.5196 13.2929 41.7071C13.4804 41.8946 13.7348 42 14 42H20C20.2652 42 20.5196 41.8946 20.7071 41.7071C20.8946 41.5196 21 41.2652 21 41C21 40.7348 20.8946 40.4804 20.7071 40.2929C20.5196 40.1054 20.2652 40 20 40Z" fill="#4D4C7D"/>
<path d="M24 40H23C22.7348 40 22.4804 40.1054 22.2929 40.2929C22.1054 40.4804 22 40.7348 22 41C22 41.2652 22.1054 41.5196 22.2929 41.7071C22.4804 41.8946 22.7348 42 23 42H24C24.2652 42 24.5196 41.8946 24.7071 41.7071C24.8946 41.5196 25 41.2652 25 41C25 40.7348 24.8946 40.4804 24.7071 40.2929C24.5196 40.1054 24.2652 40 24 40Z" fill="#4D4C7D"/>
<path d="M47 49H43C42.7348 49 42.4804 49.1054 42.2929 49.2929C42.1054 49.4804 42 49.7348 42 50C42 50.2652 42.1054 50.5196 42.2929 50.7071C42.4804 50.8946 42.7348 51 43 51H47C47.2652 51 47.5196 50.8946 47.7071 50.7071C47.8946 50.5196 48 50.2652 48 50C48 49.7348 47.8946 49.4804 47.7071 49.2929C47.5196 49.1054 47.2652 49 47 49Z" fill="#4D4C7D"/>
<path d="M58 54H57V52C57 51.2043 56.6839 50.4413 56.1213 49.8787C55.5587 49.3161 54.7957 49 54 49H53V46C53 45.7348 52.8946 45.4804 52.7071 45.2929C52.5196 45.1054 52.2652 45 52 45H51V43C51 42.7348 50.8946 42.4804 50.7071 42.2929C50.5196 42.1054 50.2652 42 50 42H49V12C49 11.7348 48.8946 11.4804 48.7071 11.2929C48.5196 11.1054 48.2652 11 48 11H44C43.7348 11 43.4804 11.1054 43.2929 11.2929C43.1054 11.4804 43 11.7348 43 12V42H42C41.7348 42 41.4804 42.1054 41.2929 42.2929C41.1054 42.4804 41 42.7348 41 43V45H40C39.7348 45 39.4804 45.1054 39.2929 45.2929C39.1054 45.4804 39 45.7348 39 46V49H38C37.2043 49 36.4413 49.3161 35.8787 49.8787C35.3161 50.4413 35 51.2043 35 52V54H30V51.31C29.9969 51.1963 29.9742 51.084 29.933 50.978C31.7887 49.809 33.3182 48.1892 34.3791 46.2696C35.4399 44.3501 35.9975 42.1932 36 40V39H40C40.2652 39 40.5196 38.8946 40.7071 38.7071C40.8946 38.5196 41 38.2652 41 38V32C41 31.7348 40.8946 31.4804 40.7071 31.2929C40.5196 31.1054 40.2652 31 40 31H36V21C36 17.5522 34.6304 14.2456 32.1924 11.8076C29.7544 9.36964 26.4478 8 23 8C19.5522 8 16.2456 9.36964 13.8076 11.8076C11.3696 14.2456 10 17.5522 10 21V31H6C5.73478 31 5.48043 31.1054 5.29289 31.2929C5.10536 31.4804 5 31.7348 5 32V38C5 38.2652 5.10536 38.5196 5.29289 38.7071C5.48043 38.8946 5.73478 39 6 39H10V40C10.0025 42.1932 10.5601 44.3501 11.6209 46.2696C12.6818 48.1892 14.2113 49.809 16.067 50.978C16.0258 51.084 16.0031 51.1963 16 51.31V54H2C1.73478 54 1.48043 54.1054 1.29289 54.2929C1.10536 54.4804 1 54.7348 1 55C1 55.2652 1.10536 55.5196 1.29289 55.7071C1.48043 55.8946 1.73478 56 2 56H58C58.2652 56 58.5196 55.8946 58.7071 55.7071C58.8946 55.5196 59 55.2652 59 55C59 54.7348 58.8946 54.4804 58.7071 54.2929C58.5196 54.1054 58.2652 54 58 54ZM12 21C12 18.0826 13.1589 15.2847 15.2218 13.2218C17.2847 11.1589 20.0826 10 23 10C25.9174 10 28.7153 11.1589 30.7782 13.2218C32.8411 15.2847 34 18.0826 34 21V31H32V21C32 18.6131 31.0518 16.3239 29.364 14.636C27.6761 12.9482 25.3869 12 23 12C20.6131 12 18.3239 12.9482 16.636 14.636C14.9482 16.3239 14 18.6131 14 21V31H12V21ZM30 21V31H16V21C16 19.1435 16.7375 17.363 18.0503 16.0503C19.363 14.7375 21.1435 14 23 14C24.8565 14 26.637 14.7375 27.9497 16.0503C29.2625 17.363 30 19.1435 30 21ZM7 37V33H39V37H7ZM28 54H18V52C19.5838 52.6621 21.2834 53.003 23 53.003C24.7166 53.003 26.4162 52.6621 28 52V54ZM23 51C20.0837 50.9966 17.2878 49.8365 15.2256 47.7744C13.1635 45.7122 12.0034 42.9163 12 40V39H34V40C33.9966 42.9163 32.8365 45.7122 30.7744 47.7744C28.7122 49.8365 25.9163 50.9966 23 51ZM45 13H47V42H45V13ZM43 44H49V45H43V44ZM55 54H37V52C37 51.7348 37.1054 51.4804 37.2929 51.2929C37.4804 51.1054 37.7348 51 38 51H40C40.2652 51 40.5196 50.8946 40.7071 50.7071C40.8946 50.5196 41 50.2652 41 50V47H51V50C51 50.2652 51.1054 50.5196 51.2929 50.7071C51.4804 50.8946 51.7348 51 52 51H54C54.2652 51 54.5196 51.1054 54.7071 51.2929C54.8946 51.4804 55 51.7348 55 52V54Z" fill="#4D4C7D"/>
<path d="M62 54H61C60.7348 54 60.4804 54.1054 60.2929 54.2929C60.1054 54.4804 60 54.7348 60 55C60 55.2652 60.1054 55.5196 60.2929 55.7071C60.4804 55.8946 60.7348 56 61 56H62C62.2652 56 62.5196 55.8946 62.7071 55.7071C62.8946 55.5196 63 55.2652 63 55C63 54.7348 62.8946 54.4804 62.7071 54.2929C62.5196 54.1054 62.2652 54 62 54Z" fill="#4D4C7D"/>
</svg>
