<svg width="64" height="64" viewBox="0 0 64 64" fill="none" xmlns="http://www.w3.org/2000/svg">
<path d="M50 33H47V2C47 1.73478 46.8946 1.48043 46.7071 1.29289C46.5196 1.10536 46.2652 1 46 1H18C17.7348 1 17.4804 1.10536 17.2929 1.29289C17.1054 1.48043 17 1.73478 17 2V33H14C13.7348 33 13.4804 33.1054 13.2929 33.2929C13.1054 33.4804 13 33.7348 13 34V40C13 40.2652 13.1054 40.5196 13.2929 40.7071C13.4804 40.8946 13.7348 41 14 41C14.004 44.4466 15.3749 47.7509 17.812 50.188C20.2491 52.6251 23.5534 53.996 27 54H28V60C28 60.7957 28.3161 61.5587 28.8787 62.1213C29.4413 62.6839 30.2044 63 31 63H33C33.7956 63 34.5587 62.6839 35.1213 62.1213C35.6839 61.5587 36 60.7957 36 60V54H37C40.4466 53.996 43.7509 52.6251 46.188 50.188C48.6251 47.7509 49.996 44.4466 50 41C50.2652 41 50.5196 40.8946 50.7071 40.7071C50.8946 40.5196 51 40.2652 51 40V34C51 33.7348 50.8946 33.4804 50.7071 33.2929C50.5196 33.1054 50.2652 33 50 33ZM19 3H45V33H19V3ZM15 35H49V39H15V35ZM34 60C34 60.2652 33.8946 60.5196 33.7071 60.7071C33.5196 60.8946 33.2652 61 33 61H31C30.7348 61 30.4804 60.8946 30.2929 60.7071C30.1054 60.5196 30 60.2652 30 60V54H34V60ZM37 52H27C24.0837 51.9966 21.2878 50.8365 19.2256 48.7744C17.1635 46.7122 16.0034 43.9163 16 41H48C47.9966 43.9163 46.8365 46.7122 44.7744 48.7744C42.7122 50.8365 39.9163 51.9966 37 52Z" fill="#4D4C7D"/>
<path d="M19 44H25C25.2652 44 25.5196 43.8946 25.7071 43.7071C25.8946 43.5196 26 43.2652 26 43C26 42.7348 25.8946 42.4804 25.7071 42.2929C25.5196 42.1054 25.2652 42 25 42H19C18.7348 42 18.4804 42.1054 18.2929 42.2929C18.1054 42.4804 18 42.7348 18 43C18 43.2652 18.1054 43.5196 18.2929 43.7071C18.4804 43.8946 18.7348 44 19 44Z" fill="#4D4C7D"/>
<path d="M28 44H29C29.2652 44 29.5196 43.8946 29.7071 43.7071C29.8946 43.5196 30 43.2652 30 43C30 42.7348 29.8946 42.4804 29.7071 42.2929C29.5196 42.1054 29.2652 42 29 42H28C27.7348 42 27.4804 42.1054 27.2929 42.2929C27.1054 42.4804 27 42.7348 27 43C27 43.2652 27.1054 43.5196 27.2929 43.7071C27.4804 43.8946 27.7348 44 28 44Z" fill="#4D4C7D"/>
<path d="M21.707 16.707L30.207 8.20696C30.3025 8.11471 30.3787 8.00437 30.4311 7.88236C30.4835 7.76036 30.5111 7.62914 30.5123 7.49636C30.5134 7.36358 30.4881 7.2319 30.4378 7.10901C30.3876 6.98611 30.3133 6.87446 30.2194 6.78056C30.1255 6.68667 30.0139 6.61242 29.891 6.56214C29.7681 6.51186 29.6364 6.48655 29.5036 6.48771C29.3708 6.48886 29.2396 6.51645 29.1176 6.56886C28.9956 6.62127 28.8853 6.69745 28.793 6.79296L20.293 15.293C20.1975 15.3852 20.1213 15.4956 20.0689 15.6176C20.0165 15.7396 19.9889 15.8708 19.9878 16.0036C19.9866 16.1363 20.0119 16.268 20.0622 16.3909C20.1125 16.5138 20.1867 16.6255 20.2806 16.7194C20.3745 16.8132 20.4862 16.8875 20.6091 16.9378C20.732 16.9881 20.8636 17.0134 20.9964 17.0122C21.1292 17.0111 21.2604 16.9835 21.3824 16.9311C21.5044 16.8787 21.6148 16.8025 21.707 16.707Z" fill="#4D4C7D"/>
<path d="M38.707 5.29303C38.5195 5.10556 38.2652 5.00024 38 5.00024C37.7349 5.00024 37.4805 5.10556 37.293 5.29303L21.293 21.293C21.1975 21.3853 21.1213 21.4956 21.0689 21.6176C21.0165 21.7396 20.9889 21.8708 20.9878 22.0036C20.9866 22.1364 21.0119 22.2681 21.0622 22.391C21.1125 22.5139 21.1867 22.6255 21.2806 22.7194C21.3745 22.8133 21.4862 22.8876 21.6091 22.9379C21.732 22.9881 21.8636 23.0134 21.9964 23.0123C22.1292 23.0111 22.2604 22.9835 22.3824 22.9311C22.5044 22.8787 22.6148 22.8025 22.707 22.707L38.707 6.70703C38.8945 6.5195 38.9998 6.26519 38.9998 6.00003C38.9998 5.73487 38.8945 5.48056 38.707 5.29303Z" fill="#4D4C7D"/>
<path d="M38.293 25.293L34.293 29.293C34.1975 29.3853 34.1213 29.4956 34.0689 29.6176C34.0165 29.7396 33.9889 29.8709 33.9878 30.0036C33.9866 30.1364 34.0119 30.2681 34.0622 30.391C34.1125 30.5139 34.1867 30.6255 34.2806 30.7194C34.3745 30.8133 34.4862 30.8876 34.6091 30.9379C34.732 30.9881 34.8636 31.0134 34.9964 31.0123C35.1292 31.0111 35.2604 30.9836 35.3824 30.9311C35.5044 30.8787 35.6148 30.8026 35.707 30.707L39.707 26.707C39.8892 26.5184 39.99 26.2658 39.9877 26.0036C39.9854 25.7414 39.8802 25.4906 39.6948 25.3052C39.5094 25.1198 39.2586 25.0146 38.9964 25.0124C38.7342 25.0101 38.4816 25.1109 38.293 25.293Z" fill="#4D4C7D"/>
<path d="M41.293 22.293L40.293 23.293C40.1975 23.3853 40.1213 23.4956 40.0689 23.6176C40.0165 23.7396 39.9889 23.8709 39.9878 24.0036C39.9866 24.1364 40.0119 24.2681 40.0622 24.391C40.1125 24.5139 40.1867 24.6255 40.2806 24.7194C40.3745 24.8133 40.4862 24.8876 40.6091 24.9379C40.732 24.9881 40.8636 25.0134 40.9964 25.0123C41.1292 25.0111 41.2604 24.9836 41.3824 24.9311C41.5044 24.8787 41.6148 24.8026 41.707 24.707L42.707 23.707C42.8892 23.5184 42.99 23.2658 42.9877 23.0036C42.9854 22.7414 42.8802 22.4906 42.6948 22.3052C42.5094 22.1198 42.2586 22.0146 41.9964 22.0124C41.7342 22.0101 41.4816 22.1109 41.293 22.293Z" fill="#4D4C7D"/>
</svg>
