<svg width="64" height="64" viewBox="0 0 64 64" fill="none" xmlns="http://www.w3.org/2000/svg">
<path d="M58 1H6C5.73478 1 5.48043 1.10536 5.29289 1.29289C5.10536 1.48043 5 1.73478 5 2V14C5 14.2652 5.10536 14.5196 5.29289 14.7071C5.48043 14.8946 5.73478 15 6 15H7V62C7 62.2652 7.10536 62.5196 7.29289 62.7071C7.48043 62.8946 7.73478 63 8 63H56C56.2652 63 56.5196 62.8946 56.7071 62.7071C56.8946 62.5196 57 62.2652 57 62V15H58C58.2652 15 58.5196 14.8946 58.7071 14.7071C58.8946 14.5196 59 14.2652 59 14V2C59 1.73478 58.8946 1.48043 58.7071 1.29289C58.5196 1.10536 58.2652 1 58 1ZM55 50H9V23H55V50ZM55 61H9V52H55V61ZM55 21H9V15H23V17C23 17.2652 23.1054 17.5196 23.2929 17.7071C23.4804 17.8946 23.7348 18 24 18H40C40.2652 18 40.5196 17.8946 40.7071 17.7071C40.8946 17.5196 41 17.2652 41 17V15H55V21ZM57 13H40C39.7348 13 39.4804 13.1054 39.2929 13.2929C39.1054 13.4804 39 13.7348 39 14V16H25V14C25 13.7348 24.8946 13.4804 24.7071 13.2929C24.5196 13.1054 24.2652 13 24 13H7V3H57V13Z" fill="#4D4C7D"/>
<path d="M12 59H20C20.2652 59 20.5196 58.8946 20.7071 58.7071C20.8946 58.5196 21 58.2652 21 58C21 57.7348 20.8946 57.4804 20.7071 57.2929C20.5196 57.1054 20.2652 57 20 57H12C11.7348 57 11.4804 57.1054 11.2929 57.2929C11.1054 57.4804 11 57.7348 11 58C11 58.2652 11.1054 58.5196 11.2929 58.7071C11.4804 58.8946 11.7348 59 12 59Z" fill="#4D4C7D"/>
<path d="M23 59H24C24.2652 59 24.5196 58.8946 24.7071 58.7071C24.8946 58.5196 25 58.2652 25 58C25 57.7348 24.8946 57.4804 24.7071 57.2929C24.5196 57.1054 24.2652 57 24 57H23C22.7348 57 22.4804 57.1054 22.2929 57.2929C22.1054 57.4804 22 57.7348 22 58C22 58.2652 22.1054 58.5196 22.2929 58.7071C22.4804 58.8946 22.7348 59 23 59Z" fill="#4D4C7D"/>
<path d="M32 44C33.3845 44 34.7378 43.5895 35.889 42.8203C37.0401 42.0511 37.9373 40.9579 38.4672 39.6788C38.997 38.3997 39.1356 36.9922 38.8655 35.6344C38.5954 34.2765 37.9287 33.0292 36.9497 32.0503C35.9708 31.0713 34.7235 30.4046 33.3656 30.1345C32.0078 29.8644 30.6003 30.003 29.3212 30.5328C28.0421 31.0627 26.9489 31.9599 26.1797 33.111C25.4105 34.2622 25 35.6155 25 37C25.0021 38.8559 25.7403 40.6351 27.0526 41.9474C28.3649 43.2597 30.1441 43.9979 32 44ZM32 32C32.9889 32 33.9556 32.2932 34.7779 32.8427C35.6001 33.3921 36.241 34.173 36.6194 35.0866C36.9978 36.0002 37.0969 37.0056 36.9039 37.9755C36.711 38.9454 36.2348 39.8363 35.5355 40.5355C34.8363 41.2348 33.9454 41.711 32.9755 41.9039C32.0055 42.0969 31.0002 41.9978 30.0866 41.6194C29.173 41.241 28.3921 40.6001 27.8427 39.7779C27.2932 38.9556 27 37.9889 27 37C27.0016 35.6744 27.5289 34.4036 28.4662 33.4662C29.4036 32.5289 30.6744 32.0016 32 32Z" fill="#4D4C7D"/>
<path d="M28.843 37.178C28.9285 37.2008 29.0166 37.2125 29.105 37.213C29.3245 37.2127 29.5379 37.1402 29.7121 37.0066C29.8863 36.8731 30.0117 36.6859 30.069 36.474C30.1845 36.0504 30.4361 35.6766 30.7851 35.4102C31.1341 35.1438 31.561 34.9997 32 35C32.2652 35 32.5196 34.8946 32.7071 34.7071C32.8947 34.5196 33 34.2652 33 34C33 33.7348 32.8947 33.4804 32.7071 33.2929C32.5196 33.1054 32.2652 33 32 33C31.1219 33 30.2682 33.2889 29.5706 33.8223C28.873 34.3556 28.3703 35.1036 28.14 35.951C28.0706 36.2069 28.1056 36.48 28.2374 36.7101C28.3693 36.9402 28.5871 37.1085 28.843 37.178Z" fill="#4D4C7D"/>
<path d="M22 34C22.5933 34 23.1734 33.8241 23.6667 33.4944C24.1601 33.1648 24.5446 32.6962 24.7716 32.148C24.9987 31.5999 25.0581 30.9967 24.9424 30.4147C24.8266 29.8328 24.5409 29.2982 24.1213 28.8787C23.7018 28.4591 23.1672 28.1734 22.5853 28.0576C22.0033 27.9419 21.4001 28.0013 20.8519 28.2284C20.3038 28.4554 19.8352 28.8399 19.5056 29.3333C19.1759 29.8266 19 30.4067 19 31C19 31.7957 19.3161 32.5587 19.8787 33.1213C20.4413 33.6839 21.2044 34 22 34ZM22 30C22.1978 30 22.3911 30.0586 22.5556 30.1685C22.72 30.2784 22.8482 30.4346 22.9239 30.6173C22.9996 30.8 23.0194 31.0011 22.9808 31.1951C22.9422 31.3891 22.847 31.5673 22.7071 31.7071C22.5673 31.847 22.3891 31.9422 22.1951 31.9808C22.0011 32.0194 21.8 31.9996 21.6173 31.9239C21.4346 31.8482 21.2784 31.72 21.1685 31.5556C21.0586 31.3911 21 31.1978 21 31C21 30.7348 21.1054 30.4804 21.2929 30.2929C21.4804 30.1054 21.7348 30 22 30Z" fill="#4D4C7D"/>
<path d="M40 41C40 41.5933 40.1759 42.1734 40.5056 42.6667C40.8352 43.1601 41.3038 43.5446 41.852 43.7716C42.4001 43.9987 43.0033 44.0581 43.5853 43.9424C44.1672 43.8266 44.7018 43.5409 45.1213 43.1213C45.5409 42.7018 45.8266 42.1672 45.9424 41.5853C46.0581 41.0033 45.9987 40.4001 45.7716 39.852C45.5446 39.3038 45.1601 38.8352 44.6667 38.5056C44.1734 38.1759 43.5933 38 43 38C42.2044 38 41.4413 38.3161 40.8787 38.8787C40.3161 39.4413 40 40.2044 40 41ZM44 41C44 41.1978 43.9414 41.3911 43.8315 41.5556C43.7216 41.72 43.5654 41.8482 43.3827 41.9239C43.2 41.9996 42.9989 42.0194 42.8049 41.9808C42.6109 41.9422 42.4327 41.847 42.2929 41.7071C42.153 41.5673 42.0578 41.3891 42.0192 41.1951C41.9806 41.0011 42.0004 40.8 42.0761 40.6173C42.1518 40.4346 42.28 40.2784 42.4444 40.1685C42.6089 40.0586 42.8022 40 43 40C43.2652 40 43.5196 40.1054 43.7071 40.2929C43.8946 40.4804 44 40.7348 44 41Z" fill="#4D4C7D"/>
<path d="M19 43H20V44C20 44.2652 20.1054 44.5196 20.2929 44.7071C20.4804 44.8946 20.7348 45 21 45C21.2652 45 21.5196 44.8946 21.7071 44.7071C21.8946 44.5196 22 44.2652 22 44V43H23C23.2652 43 23.5196 42.8946 23.7071 42.7071C23.8946 42.5196 24 42.2652 24 42C24 41.7348 23.8946 41.4804 23.7071 41.2929C23.5196 41.1054 23.2652 41 23 41H22V40C22 39.7348 21.8946 39.4804 21.7071 39.2929C21.5196 39.1054 21.2652 39 21 39C20.7348 39 20.4804 39.1054 20.2929 39.2929C20.1054 39.4804 20 39.7348 20 40V41H19C18.7348 41 18.4804 41.1054 18.2929 41.2929C18.1054 41.4804 18 41.7348 18 42C18 42.2652 18.1054 42.5196 18.2929 42.7071C18.4804 42.8946 18.7348 43 19 43Z" fill="#4D4C7D"/>
<path d="M39 33H40V34C40 34.2652 40.1054 34.5196 40.2929 34.7071C40.4804 34.8946 40.7348 35 41 35C41.2652 35 41.5196 34.8946 41.7071 34.7071C41.8946 34.5196 42 34.2652 42 34V33H43C43.2652 33 43.5196 32.8946 43.7071 32.7071C43.8946 32.5196 44 32.2652 44 32C44 31.7348 43.8946 31.4804 43.7071 31.2929C43.5196 31.1054 43.2652 31 43 31H42V30C42 29.7348 41.8946 29.4804 41.7071 29.2929C41.5196 29.1054 41.2652 29 41 29C40.7348 29 40.4804 29.1054 40.2929 29.2929C40.1054 29.4804 40 29.7348 40 30V31H39C38.7348 31 38.4804 31.1054 38.2929 31.2929C38.1054 31.4804 38 31.7348 38 32C38 32.2652 38.1054 32.5196 38.2929 32.7071C38.4804 32.8946 38.7348 33 39 33Z" fill="#4D4C7D"/>
</svg>
