<svg width="64" height="64" viewBox="0 0 64 64" fill="none" xmlns="http://www.w3.org/2000/svg">
<path d="M13 57H6C5.73478 57 5.48043 57.1054 5.29289 57.2929C5.10536 57.4804 5 57.7348 5 58C5 58.2652 5.10536 58.5196 5.29289 58.7071C5.48043 58.8946 5.73478 59 6 59H13C13.2652 59 13.5196 58.8946 13.7071 58.7071C13.8946 58.5196 14 58.2652 14 58C14 57.7348 13.8946 57.4804 13.7071 57.2929C13.5196 57.1054 13.2652 57 13 57Z" fill="#4D4C7D"/>
<path d="M17 57H16C15.7348 57 15.4804 57.1054 15.2929 57.2929C15.1054 57.4804 15 57.7348 15 58C15 58.2652 15.1054 58.5196 15.2929 58.7071C15.4804 58.8946 15.7348 59 16 59H17C17.2652 59 17.5196 58.8946 17.7071 58.7071C17.8946 58.5196 18 58.2652 18 58C18 57.7348 17.8946 57.4804 17.7071 57.2929C17.5196 57.1054 17.2652 57 17 57Z" fill="#4D4C7D"/>
<path d="M41 57H34C33.7348 57 33.4804 57.1054 33.2929 57.2929C33.1054 57.4804 33 57.7348 33 58C33 58.2652 33.1054 58.5196 33.2929 58.7071C33.4804 58.8946 33.7348 59 34 59H41C41.2652 59 41.5196 58.8946 41.7071 58.7071C41.8946 58.5196 42 58.2652 42 58C42 57.7348 41.8946 57.4804 41.7071 57.2929C41.5196 57.1054 41.2652 57 41 57Z" fill="#4D4C7D"/>
<path d="M45 57H44C43.7348 57 43.4804 57.1054 43.2929 57.2929C43.1054 57.4804 43 57.7348 43 58C43 58.2652 43.1054 58.5196 43.2929 58.7071C43.4804 58.8946 43.7348 59 44 59H45C45.2652 59 45.5196 58.8946 45.7071 58.7071C45.8946 58.5196 46 58.2652 46 58C46 57.7348 45.8946 57.4804 45.7071 57.2929C45.5196 57.1054 45.2652 57 45 57Z" fill="#4D4C7D"/>
<path d="M62 51H58V47C57.9976 46.2051 57.6808 45.4434 57.1187 44.8813C56.5566 44.3192 55.7949 44.0024 55 44H35C34.2051 44.0024 33.4434 44.3192 32.8813 44.8813C32.3192 45.4434 32.0024 46.2051 32 47V51H31V18C31 16.6739 30.4732 15.4021 29.5355 14.4645C28.5979 13.5268 27.3261 13 26 13H23V8C23 7.73478 22.8946 7.48043 22.7071 7.29289C22.5196 7.10536 22.2652 7 22 7H20V3H23.586L26.293 5.707C26.4816 5.88916 26.7342 5.98995 26.9964 5.98767C27.2586 5.9854 27.5094 5.88023 27.6948 5.69482C27.8802 5.50941 27.9854 5.2586 27.9877 4.9964C27.99 4.7342 27.8892 4.4816 27.707 4.293L24.707 1.293C24.5195 1.10545 24.2652 1.00006 24 1H8C7.73478 1 7.48043 1.10536 7.29289 1.29289C7.10536 1.48043 7 1.73478 7 2C7 2.26522 7.10536 2.51957 7.29289 2.70711C7.48043 2.89464 7.73478 3 8 3H12V7H10C9.73478 7 9.48043 7.10536 9.29289 7.29289C9.10536 7.48043 9 7.73478 9 8V13H6C5.34339 13 4.69321 13.1293 4.08658 13.3806C3.47995 13.6319 2.92876 14.0002 2.46447 14.4645C1.52678 15.4021 1 16.6739 1 18V58C1 59.3261 1.52678 60.5979 2.46447 61.5355C2.92876 61.9998 3.47995 62.3681 4.08658 62.6194C4.69321 62.8707 5.34339 63 6 63H26C26.815 62.9987 27.6174 62.7997 28.3385 62.42C29.0596 62.0403 29.6778 61.4912 30.14 60.82C31.7672 62.2284 33.8479 63.0024 36 63H54C56.3858 62.9963 58.6728 62.0469 60.3599 60.3599C62.0469 58.6728 62.9963 56.3858 63 54V52C63 51.7348 62.8946 51.4804 62.7071 51.2929C62.5196 51.1054 62.2652 51 62 51ZM34 47C34 46.7348 34.1054 46.4804 34.2929 46.2929C34.4804 46.1054 34.7348 46 35 46H55C55.2652 46 55.5196 46.1054 55.7071 46.2929C55.8946 46.4804 56 46.7348 56 47V51H34V47ZM3 30H29V42H3V30ZM14 3H18V7H14V3ZM11 9H21V13H11V9ZM6 15H26C26.7949 15.0024 27.5566 15.3192 28.1187 15.8813C28.6808 16.4434 28.9976 17.2051 29 18V28H3V18C3.00237 17.2051 3.31921 16.4434 3.8813 15.8813C4.4434 15.3192 5.20508 15.0024 6 15ZM26 61H6C5.20508 60.9976 4.4434 60.6808 3.8813 60.1187C3.31921 59.5566 3.00237 58.7949 3 58V44H29V51H28C27.7348 51 27.4804 51.1054 27.2929 51.2929C27.1054 51.4804 27 51.7348 27 52V54C26.9948 55.8939 27.5938 57.74 28.71 59.27C28.469 59.7858 28.0862 60.2223 27.6063 60.5287C27.1264 60.835 26.5693 60.9985 26 61ZM61 54C60.9979 55.8559 60.2597 57.6351 58.9474 58.9474C57.6351 60.2597 55.8559 60.9979 54 61H36C34.1458 60.9926 32.3696 60.2528 31.0584 58.9416C29.7472 57.6304 29.0074 55.8542 29 54V53H61V54Z" fill="#4D4C7D"/>
<path d="M15.26 31.33C14.71 31.94 12 35.06 12 37C12 38.0609 12.4214 39.0783 13.1716 39.8284C13.9217 40.5786 14.9391 41 16 41C17.0609 41 18.0783 40.5786 18.8284 39.8284C19.5786 39.0783 20 38.0609 20 37C20 35.06 17.29 31.94 16.74 31.33C16.6442 31.2304 16.5293 31.1512 16.4021 31.0971C16.2749 31.043 16.1382 31.0151 16 31.0151C15.8618 31.0151 15.7251 31.043 15.5979 31.0971C15.4707 31.1512 15.3558 31.2304 15.26 31.33ZM16 39C15.4701 38.9984 14.9623 38.7872 14.5875 38.4125C14.2128 38.0377 14.0016 37.53 14 37C14 36.36 14.94 34.87 16 33.55C17.06 34.88 18 36.38 18 37C17.9984 37.53 17.7872 38.0377 17.4125 38.4125C17.0377 38.7872 16.5299 38.9984 16 39Z" fill="#4D4C7D"/>
</svg>
