<svg width="64" height="64" viewBox="0 0 64 64" fill="none" xmlns="http://www.w3.org/2000/svg">
<path d="M57 13H54V8C54 7.73478 53.8946 7.48043 53.7071 7.29289C53.5196 7.10536 53.2652 7 53 7H51V3H55C55.2652 3 55.5196 2.89464 55.7071 2.70711C55.8946 2.51957 56 2.26522 56 2C56 1.73478 55.8946 1.48043 55.7071 1.29289C55.5196 1.10536 55.2652 1 55 1H39C38.7348 1.00006 38.4805 1.10545 38.293 1.293L35.293 4.293C35.1975 4.38525 35.1213 4.49559 35.0689 4.6176C35.0165 4.7396 34.9889 4.87082 34.9877 5.0036C34.9866 5.13638 35.0119 5.26806 35.0622 5.39095C35.1125 5.51385 35.1867 5.6255 35.2806 5.7194C35.3745 5.81329 35.4861 5.88754 35.609 5.93782C35.7319 5.9881 35.8636 6.0134 35.9964 6.01225C36.1292 6.0111 36.2604 5.98351 36.3824 5.9311C36.5044 5.87869 36.6147 5.80251 36.707 5.707L39.414 3H43V7H41C40.7348 7 40.4804 7.10536 40.2929 7.29289C40.1054 7.48043 40 7.73478 40 8V13H37C35.6744 13.0016 34.4036 13.5289 33.4662 14.4662C32.5289 15.4036 32.0016 16.6744 32 18V53.041C31.3194 52.1201 30.3434 51.4607 29.235 51.173C28.624 49.6935 27.6663 48.3827 26.4425 47.3509C25.2188 46.3192 23.7649 45.5967 22.2035 45.2446C20.642 44.8924 19.0188 44.9209 17.4707 45.3275C15.9225 45.7341 14.4949 46.507 13.308 47.581C12.5981 47.2006 11.8054 47.001 11 47C9.79073 47.0016 8.62288 47.4407 7.71211 48.2362C6.80135 49.0317 6.20919 50.1299 6.045 51.328C4.7034 51.7908 3.56927 52.7142 2.84409 53.9341C2.11891 55.154 1.84962 56.5915 2.08406 57.9912C2.3185 59.3908 3.04149 60.6621 4.1246 61.5792C5.20771 62.4962 6.58082 62.9996 8 63H34.46C34.6022 62.9987 34.7424 62.967 34.8714 62.9072C35.0004 62.8473 35.1152 62.7607 35.208 62.653C35.7788 62.8784 36.3864 62.996 37 63H57C58.3256 62.9984 59.5964 62.4711 60.5338 61.5338C61.4711 60.5964 61.9984 59.3256 62 58V18C61.9984 16.6744 61.4711 15.4036 60.5338 14.4662C59.5964 13.5289 58.3256 13.0016 57 13ZM45 3H49V7H45V3ZM42 9H52V13H42V9ZM37 15H57C57.7956 15 58.5587 15.3161 59.1213 15.8787C59.6839 16.4413 60 17.2044 60 18V28H34V18C34 17.2044 34.3161 16.4413 34.8787 15.8787C35.4413 15.3161 36.2043 15 37 15ZM60 42H34V30H60V42ZM4 57C4.00168 56.0774 4.32168 55.1837 4.90596 54.4697C5.49023 53.7557 6.30299 53.2652 7.207 53.081C7.43304 53.0349 7.63617 52.912 7.78197 52.7332C7.92778 52.5544 8.00727 52.3307 8.007 52.1C8.00873 52.0665 8.00638 52.0329 8 52C7.99639 51.438 8.15174 50.8864 8.44814 50.4088C8.74453 49.9313 9.16989 49.5473 9.67514 49.3011C10.1804 49.0549 10.745 48.9565 11.3037 49.0174C11.8624 49.0782 12.3926 49.2958 12.833 49.645C13.03 49.7955 13.2758 49.8675 13.5229 49.847C13.7699 49.8265 14.0005 49.7149 14.17 49.534C14.9138 48.7316 15.8159 48.0921 16.8194 47.6559C17.8228 47.2198 18.9059 46.9964 20 47C21.6615 47.0033 23.281 47.5227 24.6346 48.4862C25.9882 49.4498 27.009 50.8101 27.556 52.379C27.6172 52.5547 27.7262 52.7098 27.8707 52.8269C28.0152 52.944 28.1895 53.0185 28.374 53.042C29.0904 53.1298 29.7509 53.4738 30.2336 54.0104C30.7162 54.5471 30.9885 55.2403 31 55.962C31 55.998 30.989 56.104 30.989 56.14C30.9891 56.3624 31.0632 56.5784 31.1998 56.7538C31.3363 56.9293 31.5275 57.0543 31.743 57.109C32.3872 57.2712 32.9589 57.6435 33.3677 58.1671C33.7765 58.6907 33.999 59.3357 34 60C34.0002 60.3409 33.9413 60.6792 33.826 61H8C6.93913 61 5.92172 60.5786 5.17157 59.8284C4.42142 59.0783 4 58.0609 4 57ZM57 61H37C36.633 60.9975 36.2696 60.9273 35.928 60.793C35.9735 60.5311 35.9975 60.2659 36 60C35.9986 59.2278 35.8171 58.4667 35.4699 57.777C35.1227 57.0872 34.6194 56.4881 34 56.027V44H60V58C60 58.7957 59.6839 59.5587 59.1213 60.1213C58.5587 60.6839 57.7956 61 57 61Z" fill="#4D4C7D"/>
<path d="M53 57H46C45.7348 57 45.4804 57.1054 45.2929 57.2929C45.1054 57.4804 45 57.7348 45 58C45 58.2652 45.1054 58.5196 45.2929 58.7071C45.4804 58.8946 45.7348 59 46 59H53C53.2652 59 53.5196 58.8946 53.7071 58.7071C53.8946 58.5196 54 58.2652 54 58C54 57.7348 53.8946 57.4804 53.7071 57.2929C53.5196 57.1054 53.2652 57 53 57Z" fill="#4D4C7D"/>
<path d="M57 57H56C55.7348 57 55.4804 57.1054 55.2929 57.2929C55.1054 57.4804 55 57.7348 55 58C55 58.2652 55.1054 58.5196 55.2929 58.7071C55.4804 58.8946 55.7348 59 56 59H57C57.2652 59 57.5196 58.8946 57.7071 58.7071C57.8946 58.5196 58 58.2652 58 58C58 57.7348 57.8946 57.4804 57.7071 57.2929C57.5196 57.1054 57.2652 57 57 57Z" fill="#4D4C7D"/>
<path d="M47 41C48.0609 41 49.0783 40.5786 49.8284 39.8285C50.5786 39.0783 51 38.0609 51 37C51 35.059 48.288 31.938 47.744 31.332C47.6478 31.2317 47.5323 31.1519 47.4044 31.0974C47.2766 31.0429 47.139 31.0148 47 31.0148C46.861 31.0148 46.7234 31.0429 46.5956 31.0974C46.4677 31.1519 46.3522 31.2317 46.256 31.332C45.712 31.938 43 35.059 43 37C43 38.0609 43.4214 39.0783 44.1716 39.8285C44.9217 40.5786 45.9391 41 47 41ZM47 33.549C48.062 34.881 49 36.38 49 37C49 37.5305 48.7893 38.0392 48.4142 38.4142C48.0391 38.7893 47.5304 39 47 39C46.4696 39 45.9609 38.7893 45.5858 38.4142C45.2107 38.0392 45 37.5305 45 37C45 36.363 45.939 34.875 47 33.549Z" fill="#4D4C7D"/>
<path d="M18 28C19.0609 28 20.0783 27.5786 20.8284 26.8285C21.5786 26.0783 22 25.0609 22 24C22 22.059 19.288 18.938 18.744 18.332C18.6478 18.2317 18.5323 18.1519 18.4044 18.0974C18.2766 18.0429 18.139 18.0148 18 18.0148C17.861 18.0148 17.7234 18.0429 17.5956 18.0974C17.4677 18.1519 17.3522 18.2317 17.256 18.332C16.712 18.938 14 22.059 14 24C14 25.0609 14.4214 26.0783 15.1716 26.8285C15.9217 27.5786 16.9391 28 18 28ZM18 20.549C19.062 21.881 20 23.38 20 24C20 24.5305 19.7893 25.0392 19.4142 25.4142C19.0391 25.7893 18.5304 26 18 26C17.4696 26 16.9609 25.7893 16.5858 25.4142C16.2107 25.0392 16 24.5305 16 24C16 23.363 16.939 21.875 18 20.549Z" fill="#4D4C7D"/>
<path d="M24 39C25.0609 39 26.0783 38.5786 26.8284 37.8285C27.5786 37.0783 28 36.0609 28 35C28 33.059 25.288 29.938 24.744 29.332C24.6478 29.2317 24.5323 29.1519 24.4044 29.0974C24.2766 29.0429 24.139 29.0148 24 29.0148C23.861 29.0148 23.7234 29.0429 23.5956 29.0974C23.4677 29.1519 23.3522 29.2317 23.256 29.332C22.712 29.938 20 33.059 20 35C20 36.0609 20.4214 37.0783 21.1716 37.8285C21.9217 38.5786 22.9391 39 24 39ZM24 31.549C25.062 32.881 26 34.38 26 35C26 35.5305 25.7893 36.0392 25.4142 36.4142C25.0391 36.7893 24.5304 37 24 37C23.4696 37 22.9609 36.7893 22.5858 36.4142C22.2107 36.0392 22 35.5305 22 35C22 34.363 22.939 32.875 24 31.549Z" fill="#4D4C7D"/>
<path d="M14 44C15.0609 44 16.0783 43.5786 16.8284 42.8285C17.5786 42.0783 18 41.0609 18 40C18 38.059 15.288 34.938 14.744 34.332C14.6478 34.2317 14.5323 34.1519 14.4044 34.0974C14.2766 34.0429 14.139 34.0148 14 34.0148C13.861 34.0148 13.7234 34.0429 13.5956 34.0974C13.4677 34.1519 13.3522 34.2317 13.256 34.332C12.712 34.938 10 38.059 10 40C10 41.0609 10.4214 42.0783 11.1716 42.8285C11.9217 43.5786 12.9391 44 14 44ZM14 36.549C15.062 37.881 16 39.38 16 40C16 40.5305 15.7893 41.0392 15.4142 41.4142C15.0391 41.7893 14.5304 42 14 42C13.4696 42 12.9609 41.7893 12.5858 41.4142C12.2107 41.0392 12 40.5305 12 40C12 39.363 12.939 37.875 14 36.549Z" fill="#4D4C7D"/>
<path d="M22.476 49.366C22.353 49.3163 22.2213 49.2915 22.0886 49.2932C21.9559 49.2948 21.8248 49.3229 21.7031 49.3757C21.5814 49.4285 21.4713 49.5051 21.3795 49.6008C21.2876 49.6966 21.2157 49.8097 21.168 49.9335C21.1203 50.0574 21.0977 50.1895 21.1016 50.3221C21.1054 50.4548 21.1356 50.5853 21.1904 50.7062C21.2453 50.827 21.3236 50.9358 21.4209 51.026C21.5181 51.1163 21.6324 51.1863 21.757 51.232C22.5093 51.5233 23.1387 52.0642 23.54 52.764C23.6279 52.9163 23.7545 53.0427 23.9069 53.1305C24.0593 53.2183 24.2321 53.2644 24.408 53.264C24.5835 53.264 24.756 53.2178 24.908 53.13C25.06 53.0423 25.1862 52.916 25.274 52.764C25.3618 52.612 25.408 52.4395 25.408 52.264C25.408 52.0885 25.3618 51.916 25.274 51.764C24.6432 50.668 23.6556 49.8216 22.476 49.366Z" fill="#4D4C7D"/>
</svg>
