<svg width="64" height="64" viewBox="0 0 64 64" fill="none" xmlns="http://www.w3.org/2000/svg">
<path d="M50 13.1V9C50 8.73478 49.8946 8.48043 49.7071 8.29289C49.5196 8.10536 49.2652 8 49 8H46V2C46 1.73478 45.8946 1.48043 45.7071 1.29289C45.5196 1.10536 45.2652 1 45 1H40C39.7348 1 39.4804 1.10536 39.2929 1.29289C39.1054 1.48043 39 1.73478 39 2V8H36C35.7348 8 35.4804 8.10536 35.2929 8.29289C35.1054 8.48043 35 8.73478 35 9V13H33.6C32.3158 12.9977 31.0804 13.4918 30.152 14.379L11.552 32.094C11.0627 32.5617 10.673 33.1234 10.4063 33.7455C10.1396 34.3676 10.0014 35.0372 10 35.714V58C10.0016 59.3256 10.5289 60.5964 11.4662 61.5338C12.4036 62.4711 13.6744 62.9984 15 63H49C50.3256 62.9984 51.5964 62.4711 52.5338 61.5338C53.4711 60.5964 53.9984 59.3256 54 58V18C53.9985 16.8478 53.5999 15.7313 52.8713 14.8387C52.1427 13.9462 51.1286 13.3321 50 13.1ZM41 3H44V8H41V3ZM37 10H48V13H37V10ZM52 58C52 58.7957 51.6839 59.5587 51.1213 60.1213C50.5587 60.6839 49.7957 61 49 61H15C14.2044 61 13.4413 60.6839 12.8787 60.1213C12.3161 59.5587 12 58.7957 12 58V35.714C12.0006 35.3079 12.0834 34.9061 12.2434 34.5328C12.4034 34.1595 12.6373 33.8225 12.931 33.542L31.531 15.828C32.0879 15.2953 32.8293 14.9986 33.6 15H49C49.7957 15 50.5587 15.3161 51.1213 15.8787C51.6839 16.4413 52 17.2044 52 18V58Z" fill="#4D4C7D"/>
<path d="M49 23H39.2C38.9434 23.0002 38.6968 23.099 38.511 23.276L22.311 38.705C22.2128 38.7983 22.1346 38.9106 22.0812 39.0351C22.0277 39.1595 22.0001 39.2936 22 39.429V56C22 56.2652 22.1054 56.5196 22.2929 56.7071C22.4804 56.8946 22.7348 57 23 57H49C49.2652 57 49.5196 56.8946 49.7071 56.7071C49.8946 56.5196 50 56.2652 50 56V24C50 23.7348 49.8946 23.4804 49.7071 23.2929C49.5196 23.1054 49.2652 23 49 23ZM48 55H24V39.857L39.6 25H48V55Z" fill="#4D4C7D"/>
<path d="M21.929 32.071C22.4916 32.6334 23.2545 32.9494 24.05 32.9494C24.8455 32.9494 25.6084 32.6334 26.171 32.071L36.071 22.171C36.3496 21.8924 36.5707 21.5617 36.7215 21.1977C36.8722 20.8337 36.9499 20.4435 36.9499 20.0495C36.9499 19.6555 36.8722 19.2653 36.7215 18.9013C36.5707 18.5373 36.3496 18.2066 36.071 17.928C35.4998 17.3821 34.7401 17.0775 33.95 17.0775C33.1599 17.0775 32.4002 17.3821 31.829 17.928L21.929 27.828C21.6504 28.1066 21.4293 28.4373 21.2786 28.8013C21.1278 29.1653 21.0501 29.5555 21.0501 29.9495C21.0501 30.3435 21.1278 30.7337 21.2786 31.0977C21.4293 31.4617 21.6504 31.7924 21.929 32.071ZM23.343 29.243L33.243 19.343C33.3352 19.2475 33.4456 19.1713 33.5676 19.1189C33.6896 19.0665 33.8208 19.0389 33.9536 19.0377C34.0864 19.0366 34.2181 19.0619 34.341 19.1122C34.4639 19.1625 34.5755 19.2367 34.6694 19.3306C34.7633 19.4245 34.8375 19.5361 34.8878 19.659C34.9381 19.7819 34.9634 19.9136 34.9622 20.0464C34.9611 20.1792 34.9335 20.3104 34.8811 20.4324C34.8287 20.5544 34.7525 20.6647 34.657 20.757L24.757 30.657C24.5668 30.839 24.3137 30.9405 24.0505 30.9405C23.7873 30.9405 23.5342 30.839 23.344 30.657C23.1568 30.4695 23.0517 30.2154 23.0517 29.9505C23.0517 29.6856 23.1568 29.4315 23.344 29.244L23.343 29.243Z" fill="#4D4C7D"/>
<path d="M21 58H15C14.7348 58 14.4804 58.1054 14.2929 58.2929C14.1054 58.4804 14 58.7348 14 59C14 59.2652 14.1054 59.5196 14.2929 59.7071C14.4804 59.8946 14.7348 60 15 60H21C21.2652 60 21.5196 59.8946 21.7071 59.7071C21.8946 59.5196 22 59.2652 22 59C22 58.7348 21.8946 58.4804 21.7071 58.2929C21.5196 58.1054 21.2652 58 21 58Z" fill="#4D4C7D"/>
<path d="M25 58H24C23.7348 58 23.4804 58.1054 23.2929 58.2929C23.1054 58.4804 23 58.7348 23 59C23 59.2652 23.1054 59.5196 23.2929 59.7071C23.4804 59.8946 23.7348 60 24 60H25C25.2652 60 25.5196 59.8946 25.7071 59.7071C25.8946 59.5196 26 59.2652 26 59C26 58.7348 25.8946 58.4804 25.7071 58.2929C25.5196 58.1054 25.2652 58 25 58Z" fill="#4D4C7D"/>
<path d="M33 38C31.6155 38 30.2622 38.4105 29.111 39.1797C27.9599 39.9489 27.0627 41.0421 26.5328 42.3212C26.003 43.6003 25.8644 45.0078 26.1345 46.3656C26.4046 47.7235 27.0713 48.9708 28.0503 49.9497C29.0292 50.9287 30.2765 51.5954 31.6344 51.8655C32.9922 52.1356 34.3997 51.997 35.6788 51.4672C36.9579 50.9373 38.0511 50.0401 38.8203 48.889C39.5895 47.7378 40 46.3845 40 45C39.9979 43.1441 39.2597 41.3649 37.9474 40.0526C36.6351 38.7403 34.8559 38.0021 33 38ZM33 50C32.0111 50 31.0444 49.7068 30.2222 49.1573C29.3999 48.6079 28.759 47.827 28.3806 46.9134C28.0022 45.9998 27.9032 44.9945 28.0961 44.0245C28.289 43.0546 28.7652 42.1637 29.4645 41.4645C30.1637 40.7652 31.0546 40.289 32.0246 40.0961C32.9945 39.9031 33.9998 40.0022 34.9134 40.3806C35.8271 40.759 36.6079 41.3999 37.1574 42.2221C37.7068 43.0444 38 44.0111 38 45C37.9984 46.3256 37.4711 47.5964 36.5338 48.5338C35.5964 49.4711 34.3256 49.9984 33 50Z" fill="#4D4C7D"/>
<path d="M33 41C32.7348 41 32.4804 41.1054 32.2929 41.2929C32.1054 41.4804 32 41.7348 32 42C32 42.2652 32.1054 42.5196 32.2929 42.7071C32.4804 42.8946 32.7348 43 33 43C33.4389 42.9999 33.8656 43.1442 34.2143 43.4105C34.5631 43.6769 34.8146 44.0506 34.93 44.474C34.9873 44.6861 35.1129 44.8734 35.2873 45.0069C35.4618 45.1405 35.6753 45.2129 35.895 45.213C35.9835 45.2126 36.0715 45.2009 36.157 45.178C36.4124 45.1079 36.6295 44.9393 36.7607 44.7092C36.8919 44.4792 36.9266 44.2065 36.857 43.951C36.6259 43.1046 36.1234 42.3575 35.4267 41.8244C34.7299 41.2913 33.8773 41.0017 33 41Z" fill="#4D4C7D"/>
<path d="M43 42C43.5933 42 44.1734 41.8241 44.6667 41.4944C45.1601 41.1648 45.5446 40.6962 45.7716 40.148C45.9987 39.5999 46.0581 38.9967 45.9424 38.4147C45.8266 37.8328 45.5409 37.2982 45.1213 36.8787C44.7018 36.4591 44.1672 36.1734 43.5853 36.0576C43.0033 35.9419 42.4001 36.0013 41.852 36.2284C41.3038 36.4554 40.8352 36.8399 40.5056 37.3333C40.1759 37.8266 40 38.4067 40 39C40 39.7957 40.3161 40.5587 40.8787 41.1213C41.4413 41.6839 42.2044 42 43 42ZM43 38C43.1978 38 43.3911 38.0586 43.5556 38.1685C43.72 38.2784 43.8482 38.4346 43.9239 38.6173C43.9996 38.8 44.0194 39.0011 43.9808 39.1951C43.9422 39.3891 43.847 39.5673 43.7071 39.7071C43.5673 39.847 43.3891 39.9422 43.1951 39.9808C43.0011 40.0194 42.8 39.9996 42.6173 39.9239C42.4346 39.8482 42.2784 39.72 42.1685 39.5556C42.0586 39.3911 42 39.1978 42 39C42 38.7348 42.1054 38.4804 42.2929 38.2929C42.4804 38.1054 42.7348 38 43 38Z" fill="#4D4C7D"/>
<path d="M45 49V48C45 47.7348 44.8946 47.4804 44.7071 47.2929C44.5196 47.1054 44.2652 47 44 47C43.7348 47 43.4804 47.1054 43.2929 47.2929C43.1054 47.4804 43 47.7348 43 48V49H42C41.7348 49 41.4804 49.1054 41.2929 49.2929C41.1054 49.4804 41 49.7348 41 50C41 50.2652 41.1054 50.5196 41.2929 50.7071C41.4804 50.8946 41.7348 51 42 51H43V52C43 52.2652 43.1054 52.5196 43.2929 52.7071C43.4804 52.8946 43.7348 53 44 53C44.2652 53 44.5196 52.8946 44.7071 52.7071C44.8946 52.5196 45 52.2652 45 52V51H46C46.2652 51 46.5196 50.8946 46.7071 50.7071C46.8946 50.5196 47 50.2652 47 50C47 49.7348 46.8946 49.4804 46.7071 49.2929C46.5196 49.1054 46.2652 49 46 49H45Z" fill="#4D4C7D"/>
</svg>
