<svg width="64" height="64" viewBox="0 0 64 64" fill="none" xmlns="http://www.w3.org/2000/svg">
<path d="M62 32H31.267L23.581 24.23C22.7272 23.3669 21.7075 22.6854 20.5834 22.2267C19.4593 21.7679 18.254 21.5413 17.04 21.5606C15.8261 21.5798 14.6286 21.8445 13.5196 22.3386C12.4106 22.8328 11.4131 23.5462 10.587 24.436L3.564 32H2C1.8641 31.9998 1.72958 32.0273 1.60467 32.0809C1.47975 32.1344 1.36706 32.2128 1.27348 32.3114C1.17989 32.4099 1.10737 32.5265 1.06035 32.654C1.01333 32.7815 0.992799 32.9173 1 33.053L1.8 48.263C1.86742 49.543 2.42382 50.7482 3.3543 51.6297C4.28477 52.5112 5.51825 53.0018 6.8 53H27.206C28.4865 53.0003 29.7184 52.5092 30.6476 51.628C31.5767 50.7468 32.1324 49.5428 32.2 48.264L32.534 41.939L62.065 40C62.3188 39.9835 62.5568 39.8709 62.7304 39.6851C62.9041 39.4993 63.0005 39.2543 63 39V33C63 32.7348 62.8946 32.4804 62.7071 32.2929C62.5196 32.1054 62.2652 32 62 32ZM61 35H3.107L3.054 34H61V35ZM12.053 25.8C12.6955 25.108 13.4714 24.5532 14.3339 24.1689C15.1964 23.7847 16.1277 23.5789 17.0719 23.5639C18.016 23.549 18.9534 23.7252 19.8276 24.082C20.7019 24.4388 21.4949 24.9687 22.159 25.64L28.454 32H6.293L12.053 25.8ZM31.515 40C31.2708 40.0161 31.0409 40.1211 30.869 40.2953C30.697 40.4694 30.5949 40.7006 30.582 40.945L30.2 48.158C30.1595 48.926 29.8256 49.649 29.2674 50.1779C28.7091 50.7068 27.969 51.0011 27.2 51H6.8C6.03082 51.0011 5.29062 50.7066 4.73232 50.1775C4.17401 49.6485 3.84026 48.9251 3.8 48.157L3.212 37H61V38.063L31.515 40Z" fill="#4D4C7D"/>
<path d="M14 47H6C5.73478 47 5.48043 47.1054 5.29289 47.2929C5.10536 47.4804 5 47.7348 5 48C5 48.2652 5.10536 48.5196 5.29289 48.7071C5.48043 48.8946 5.73478 49 6 49H14C14.2652 49 14.5196 48.8946 14.7071 48.7071C14.8946 48.5196 15 48.2652 15 48C15 47.7348 14.8946 47.4804 14.7071 47.2929C14.5196 47.1054 14.2652 47 14 47Z" fill="#4D4C7D"/>
<path d="M18 47H17C16.7348 47 16.4804 47.1054 16.2929 47.2929C16.1054 47.4804 16 47.7348 16 48C16 48.2652 16.1054 48.5196 16.2929 48.7071C16.4804 48.8946 16.7348 49 17 49H18C18.2652 49 18.5196 48.8946 18.7071 48.7071C18.8946 48.5196 19 48.2652 19 48C19 47.7348 18.8946 47.4804 18.7071 47.2929C18.5196 47.1054 18.2652 47 18 47Z" fill="#4D4C7D"/>
<path d="M6 21H7V22C7 22.2652 7.10536 22.5196 7.29289 22.7071C7.48043 22.8946 7.73478 23 8 23C8.26522 23 8.51957 22.8946 8.70711 22.7071C8.89464 22.5196 9 22.2652 9 22V21H10C10.2652 21 10.5196 20.8946 10.7071 20.7071C10.8946 20.5196 11 20.2652 11 20C11 19.7348 10.8946 19.4804 10.7071 19.2929C10.5196 19.1054 10.2652 19 10 19H9V18C9 17.7348 8.89464 17.4804 8.70711 17.2929C8.51957 17.1054 8.26522 17 8 17C7.73478 17 7.48043 17.1054 7.29289 17.2929C7.10536 17.4804 7 17.7348 7 18V19H6C5.73478 19 5.48043 19.1054 5.29289 19.2929C5.10536 19.4804 5 19.7348 5 20C5 20.2652 5.10536 20.5196 5.29289 20.7071C5.48043 20.8946 5.73478 21 6 21Z" fill="#4D4C7D"/>
<path d="M12 15H14V17C14 17.2652 14.1054 17.5196 14.2929 17.7071C14.4804 17.8946 14.7348 18 15 18C15.2652 18 15.5196 17.8946 15.7071 17.7071C15.8946 17.5196 16 17.2652 16 17V15H18C18.2652 15 18.5196 14.8946 18.7071 14.7071C18.8946 14.5196 19 14.2652 19 14C19 13.7348 18.8946 13.4804 18.7071 13.2929C18.5196 13.1054 18.2652 13 18 13H16V11C16 10.7348 15.8946 10.4804 15.7071 10.2929C15.5196 10.1054 15.2652 10 15 10C14.7348 10 14.4804 10.1054 14.2929 10.2929C14.1054 10.4804 14 10.7348 14 11V13H12C11.7348 13 11.4804 13.1054 11.2929 13.2929C11.1054 13.4804 11 13.7348 11 14C11 14.2652 11.1054 14.5196 11.2929 14.7071C11.4804 14.8946 11.7348 15 12 15Z" fill="#4D4C7D"/>
<path d="M21 15H22C22.2652 15 22.5196 14.8946 22.7071 14.7071C22.8946 14.5196 23 14.2652 23 14C23 13.7348 22.8946 13.4804 22.7071 13.2929C22.5196 13.1054 22.2652 13 22 13H21C20.7348 13 20.4804 13.1054 20.2929 13.2929C20.1054 13.4804 20 13.7348 20 14C20 14.2652 20.1054 14.5196 20.2929 14.7071C20.4804 14.8946 20.7348 15 21 15Z" fill="#4D4C7D"/>
</svg>
