<svg width="64" height="64" viewBox="0 0 64 64" fill="none" xmlns="http://www.w3.org/2000/svg">
<path d="M45.22 28.755L37.22 19.955C37.4391 19.908 37.6357 19.7879 37.7775 19.6143C37.9192 19.4407 37.9977 19.2241 38 19V15C38 14.7348 37.8946 14.4804 37.7071 14.2929C37.5196 14.1054 37.2652 14 37 14H36V12C36 11.2044 36.3161 10.4413 36.8787 9.87868C37.4413 9.31607 38.2044 9 39 9H41C41.2652 9 41.5196 8.89464 41.7071 8.70711C41.8946 8.51957 42 8.26522 42 8V2C42 1.73478 41.8946 1.48043 41.7071 1.29289C41.5196 1.10536 41.2652 1 41 1H26C25.7348 1 25.4804 1.10536 25.2929 1.29289C25.1054 1.48043 25 1.73478 25 2H22C21.7348 2 21.4804 2.10536 21.2929 2.29289C21.1054 2.48043 21 2.73478 21 3V7C21 7.26522 21.1054 7.51957 21.2929 7.70711C21.4804 7.89464 21.7348 8 22 8H24.586L21.293 11.293C21.1975 11.3852 21.1213 11.4956 21.0689 11.6176C21.0165 11.7396 20.9889 11.8708 20.9878 12.0036C20.9866 12.1364 21.0119 12.2681 21.0622 12.391C21.1125 12.5139 21.1867 12.6255 21.2806 12.7194C21.3745 12.8133 21.4862 12.8875 21.609 12.9378C21.7319 12.9881 21.8636 13.0134 21.9964 13.0123C22.1292 13.0111 22.2604 12.9835 22.3824 12.9311C22.5044 12.8787 22.6148 12.8025 22.707 12.707L26.414 9H28V14H27C26.7348 14 26.4804 14.1054 26.2929 14.2929C26.1054 14.4804 26 14.7348 26 15V19C26.0021 19.2243 26.0804 19.4411 26.2222 19.6149C26.364 19.7887 26.5607 19.909 26.78 19.956L18.78 28.756C18.2774 29.3074 17.9991 30.0269 18 30.773V58C18.0016 59.3256 18.5289 60.5964 19.4662 61.5338C20.4036 62.4711 21.6744 62.9984 23 63H41C42.3256 62.9984 43.5964 62.4711 44.5338 61.5338C45.4711 60.5964 45.9984 59.3256 46 58V30.773C46.0007 30.0266 45.7225 29.3069 45.22 28.755ZM20 36H44V47H20V36ZM23 4H25V6H23V4ZM29 7H27V3H40V7H39C37.6744 7.00159 36.4036 7.52888 35.4662 8.46622C34.5289 9.40356 34.0016 10.6744 34 12V14H30V8C30 7.73478 29.8946 7.48043 29.7071 7.29289C29.5196 7.10536 29.2652 7 29 7ZM28 16H36V18H28V16ZM20 30.773C20.0004 30.5243 20.0935 30.2848 20.261 30.101L29.442 20H34.558L43.74 30.1C43.9072 30.2839 43.9999 30.5235 44 30.772V34H20V30.773ZM44 58C44 58.7957 43.6839 59.5587 43.1213 60.1213C42.5587 60.6839 41.7957 61 41 61H23C22.2044 61 21.4413 60.6839 20.8787 60.1213C20.3161 59.5587 20 58.7957 20 58V49H44V58Z" fill="#4D4C7D"/>
<path d="M23 59H29C29.2652 59 29.5196 58.8946 29.7071 58.7071C29.8946 58.5196 30 58.2652 30 58C30 57.7348 29.8946 57.4804 29.7071 57.2929C29.5196 57.1054 29.2652 57 29 57H23C22.7348 57 22.4804 57.1054 22.2929 57.2929C22.1054 57.4804 22 57.7348 22 58C22 58.2652 22.1054 58.5196 22.2929 58.7071C22.4804 58.8946 22.7348 59 23 59Z" fill="#4D4C7D"/>
<path d="M32 59H33C33.2652 59 33.5196 58.8946 33.7071 58.7071C33.8946 58.5196 34 58.2652 34 58C34 57.7348 33.8946 57.4804 33.7071 57.2929C33.5196 57.1054 33.2652 57 33 57H32C31.7348 57 31.4804 57.1054 31.2929 57.2929C31.1054 57.4804 31 57.7348 31 58C31 58.2652 31.1054 58.5196 31.2929 58.7071C31.4804 58.8946 31.7348 59 32 59Z" fill="#4D4C7D"/>
</svg>
