<svg width="64" height="64" viewBox="0 0 64 64" fill="none" xmlns="http://www.w3.org/2000/svg">
<path d="M38 18.76V15C38 14.7348 37.8947 14.4804 37.7071 14.2929C37.5196 14.1054 37.2652 14 37 14H36V12C36 11.2044 36.3161 10.4413 36.8787 9.87868C37.4413 9.31607 38.2044 9 39 9H41C41.2652 9 41.5196 8.89464 41.7071 8.70711C41.8947 8.51957 42 8.26522 42 8V2C42 1.73478 41.8947 1.48043 41.7071 1.29289C41.5196 1.10536 41.2652 1 41 1H26C25.7348 1 25.4804 1.10536 25.2929 1.29289C25.1054 1.48043 25 1.73478 25 2H22C21.7348 2 21.4804 2.10536 21.2929 2.29289C21.1054 2.48043 21 2.73478 21 3V7C21 7.26522 21.1054 7.51957 21.2929 7.70711C21.4804 7.89464 21.7348 8 22 8H24.586L21.293 11.293C21.1975 11.3852 21.1213 11.4956 21.0689 11.6176C21.0165 11.7396 20.9889 11.8708 20.9878 12.0036C20.9866 12.1364 21.0119 12.2681 21.0622 12.391C21.1125 12.5139 21.1867 12.6255 21.2806 12.7194C21.3745 12.8133 21.4862 12.8875 21.6091 12.9378C21.732 12.9881 21.8636 13.0134 21.9964 13.0123C22.1292 13.0111 22.2604 12.9835 22.3824 12.9311C22.5044 12.8787 22.6148 12.8025 22.707 12.707L26.414 9H28V14H27C26.7348 14 26.4804 14.1054 26.2929 14.2929C26.1054 14.4804 26 14.7348 26 15V18.76C21.3704 19.9545 17.2032 22.505 14.033 26.0842C10.8628 29.6634 8.83428 34.1081 8.20758 38.8481C7.58087 43.5881 8.3846 48.4073 10.5156 52.6874C12.6467 56.9675 16.0079 60.5133 20.168 62.87C20.189 62.882 20.214 62.887 20.236 62.898C20.258 62.909 20.288 62.92 20.316 62.931C20.4258 62.9738 20.5422 62.9972 20.66 63H43.34C43.4578 62.9972 43.5742 62.9738 43.684 62.931C43.712 62.92 43.738 62.91 43.764 62.898C43.79 62.886 43.811 62.882 43.832 62.87C47.9921 60.5133 51.3533 56.9675 53.4844 52.6874C55.6154 48.4073 56.4192 43.5881 55.7924 38.8481C55.1657 34.1081 53.1372 29.6634 49.967 26.0842C46.7969 22.505 42.6297 19.9545 38 18.76ZM23 4H25V6H23V4ZM29 7H27V3H40V7H39C37.6744 7.00159 36.4036 7.52888 35.4662 8.46622C34.5289 9.40356 34.0016 10.6744 34 12V14H30V8C30 7.73478 29.8947 7.48043 29.7071 7.29289C29.5196 7.10536 29.2652 7 29 7ZM28 18V16H36V18H28ZM32 20C35.9384 20.0027 39.8039 21.0618 43.1936 23.0669C46.5833 25.072 49.3731 27.9497 51.272 31.4C47.353 30.3 38.657 28.55 31.553 32.1C24.416 35.669 15.101 33.245 12.231 32.351C14.0411 28.6493 16.8532 25.5295 20.3478 23.3462C23.8425 21.1629 27.8794 20.0035 32 20ZM43.073 61H20.927C16.4257 58.3835 12.9997 54.2536 11.2598 49.3464C9.51995 44.4392 9.5792 39.0736 11.427 34.206C15.0156 35.3608 18.7574 35.9696 22.527 36.012C25.9525 36.084 29.348 35.3611 32.447 33.9C40.312 29.966 50.822 33.312 52.433 33.865C54.3864 38.7587 54.5158 44.1915 52.7976 49.1726C51.0794 54.1537 47.6281 58.3514 43.073 61Z" fill="#4D4C7D"/>
<path d="M28 57H21C20.7348 57 20.4804 57.1054 20.2929 57.2929C20.1054 57.4804 20 57.7348 20 58C20 58.2652 20.1054 58.5196 20.2929 58.7071C20.4804 58.8946 20.7348 59 21 59H28C28.2652 59 28.5196 58.8946 28.7071 58.7071C28.8946 58.5196 29 58.2652 29 58C29 57.7348 28.8946 57.4804 28.7071 57.2929C28.5196 57.1054 28.2652 57 28 57Z" fill="#4D4C7D"/>
<path d="M32 57H31C30.7348 57 30.4804 57.1054 30.2929 57.2929C30.1054 57.4804 30 57.7348 30 58C30 58.2652 30.1054 58.5196 30.2929 58.7071C30.4804 58.8946 30.7348 59 31 59H32C32.2652 59 32.5196 58.8946 32.7071 58.7071C32.8946 58.5196 33 58.2652 33 58C33 57.7348 32.8946 57.4804 32.7071 57.2929C32.5196 57.1054 32.2652 57 32 57Z" fill="#4D4C7D"/>
</svg>
