<svg width="64" height="64" viewBox="0 0 64 64" fill="none" xmlns="http://www.w3.org/2000/svg">
<path d="M54 1H10C9.73478 1 9.48043 1.10536 9.29289 1.29289C9.10536 1.48043 9 1.73478 9 2V62C9 62.2652 9.10536 62.5196 9.29289 62.7071C9.48043 62.8946 9.73478 63 10 63H54C54.2652 63 54.5196 62.8946 54.7071 62.7071C54.8946 62.5196 55 62.2652 55 62V2C55 1.73478 54.8946 1.48043 54.7071 1.29289C54.5196 1.10536 54.2652 1 54 1ZM11 3H53V11H11V3ZM53 61H11V13H53V61Z" fill="#4D4C7D"/>
<path d="M32 52C35.7578 52 39.4313 50.8857 42.5558 48.7979C45.6804 46.7102 48.1156 43.7428 49.5537 40.271C50.9918 36.7992 51.368 32.9789 50.6349 29.2933C49.9018 25.6077 48.0922 22.2222 45.435 19.565C42.7778 16.9078 39.3924 15.0982 35.7067 14.3651C32.0211 13.632 28.2008 14.0082 24.729 15.4463C21.2572 16.8844 18.2898 19.3196 16.2021 22.4442C14.1143 25.5687 13 29.2422 13 33C13.0056 38.0374 15.0091 42.8669 18.5711 46.4289C22.1331 49.9909 26.9626 51.9944 32 52ZM32 16C35.3623 16 38.6491 16.997 41.4447 18.865C44.2403 20.733 46.4193 23.388 47.706 26.4944C48.9926 29.6007 49.3293 33.0189 48.6734 36.3165C48.0174 39.6142 46.3983 42.6433 44.0208 45.0208C41.6433 47.3983 38.6142 49.0174 35.3165 49.6734C32.0189 50.3293 28.6007 49.9926 25.4944 48.706C22.388 47.4193 19.733 45.2403 17.865 42.4447C15.997 39.6491 15 36.3623 15 33C15.005 28.4929 16.7977 24.1718 19.9847 20.9847C23.1718 17.7977 27.4929 16.005 32 16Z" fill="#4D4C7D"/>
<path d="M32 49C35.1645 49 38.2579 48.0616 40.8891 46.3035C43.5203 44.5454 45.5711 42.0466 46.7821 39.1229C47.9931 36.1993 48.3099 32.9823 47.6926 29.8786C47.0752 26.7749 45.5513 23.9239 43.3137 21.6863C41.0761 19.4487 38.2251 17.9248 35.1214 17.3074C32.0177 16.6901 28.8007 17.0069 25.8771 18.2179C22.9534 19.4289 20.4546 21.4797 18.6965 24.1109C16.9384 26.7421 16 29.8355 16 33C16.005 37.2419 17.6924 41.3087 20.6918 44.3082C23.6913 47.3077 27.7581 48.995 32 49ZM32 19C34.7689 19 37.4757 19.8211 39.778 21.3594C42.0803 22.8978 43.8747 25.0843 44.9343 27.6424C45.9939 30.2006 46.2712 33.0155 45.731 35.7313C45.1908 38.447 43.8574 40.9416 41.8995 42.8995C39.9416 44.8574 37.447 46.1908 34.7313 46.731C32.0155 47.2712 29.2006 46.9939 26.6424 45.9343C24.0843 44.8747 21.8978 43.0803 20.3594 40.778C18.8211 38.4757 18 35.7689 18 33C18.004 29.2882 19.4802 25.7295 22.1049 23.1049C24.7295 20.4802 28.2882 19.004 32 19Z" fill="#4D4C7D"/>
<path d="M23 33C23.0029 30.6139 23.9521 28.3265 25.6393 26.6393C27.3265 24.9521 29.6139 24.0029 32 24C32.2652 24 32.5196 23.8946 32.7071 23.7071C32.8946 23.5196 33 23.2652 33 23C33 22.7348 32.8946 22.4804 32.7071 22.2929C32.5196 22.1054 32.2652 22 32 22C29.0837 22.0034 26.2878 23.1635 24.2256 25.2256C22.1635 27.2878 21.0034 30.0837 21 33C21 33.2652 21.1054 33.5196 21.2929 33.7071C21.4804 33.8946 21.7348 34 22 34C22.2652 34 22.5196 33.8946 22.7071 33.7071C22.8946 33.5196 23 33.2652 23 33Z" fill="#4D4C7D"/>
<path d="M14 16H18C18.2652 16 18.5196 15.8946 18.7071 15.7071C18.8946 15.5196 19 15.2652 19 15C19 14.7348 18.8946 14.4804 18.7071 14.2929C18.5196 14.1054 18.2652 14 18 14H14C13.7348 14 13.4804 14.1054 13.2929 14.2929C13.1054 14.4804 13 14.7348 13 15C13 15.2652 13.1054 15.5196 13.2929 15.7071C13.4804 15.8946 13.7348 16 14 16Z" fill="#4D4C7D"/>
<path d="M14 19H15C15.2652 19 15.5196 18.8946 15.7071 18.7071C15.8946 18.5196 16 18.2652 16 18C16 17.7348 15.8946 17.4804 15.7071 17.2929C15.5196 17.1054 15.2652 17 15 17H14C13.7348 17 13.4804 17.1054 13.2929 17.2929C13.1054 17.4804 13 17.7348 13 18C13 18.2652 13.1054 18.5196 13.2929 18.7071C13.4804 18.8946 13.7348 19 14 19Z" fill="#4D4C7D"/>
<path d="M45 50C45 50.5933 45.1759 51.1734 45.5056 51.6667C45.8352 52.1601 46.3038 52.5446 46.852 52.7716C47.4001 52.9987 48.0033 53.0581 48.5853 52.9424C49.1672 52.8266 49.7018 52.5409 50.1213 52.1213C50.5409 51.7018 50.8266 51.1672 50.9424 50.5853C51.0581 50.0033 50.9987 49.4001 50.7716 48.852C50.5446 48.3038 50.1601 47.8352 49.6667 47.5056C49.1734 47.1759 48.5933 47 48 47C47.2044 47 46.4413 47.3161 45.8787 47.8787C45.3161 48.4413 45 49.2044 45 50ZM49 50C49 50.1978 48.9414 50.3911 48.8315 50.5556C48.7216 50.72 48.5654 50.8482 48.3827 50.9239C48.2 50.9996 47.9989 51.0194 47.8049 50.9808C47.6109 50.9422 47.4327 50.847 47.2929 50.7071C47.153 50.5673 47.0578 50.3891 47.0192 50.1951C46.9806 50.0011 47.0004 49.8 47.0761 49.6173C47.1518 49.4346 47.28 49.2784 47.4444 49.1685C47.6089 49.0586 47.8022 49 48 49C48.2652 49 48.5196 49.1054 48.7071 49.2929C48.8946 49.4804 49 49.7348 49 50Z" fill="#4D4C7D"/>
<path d="M13 60H51C51.2652 60 51.5196 59.8946 51.7071 59.7071C51.8946 59.5196 52 59.2652 52 59V55C52 54.7348 51.8946 54.4804 51.7071 54.2929C51.5196 54.1054 51.2652 54 51 54H13C12.7348 54 12.4804 54.1054 12.2929 54.2929C12.1054 54.4804 12 54.7348 12 55V59C12 59.2652 12.1054 59.5196 12.2929 59.7071C12.4804 59.8946 12.7348 60 13 60ZM14 56H50V58H14V56Z" fill="#4D4C7D"/>
<path d="M20 4H14C13.7348 4 13.4804 4.10536 13.2929 4.29289C13.1054 4.48043 13 4.73478 13 5V9C13 9.26522 13.1054 9.51957 13.2929 9.70711C13.4804 9.89464 13.7348 10 14 10H20C20.2652 10 20.5196 9.89464 20.7071 9.70711C20.8946 9.51957 21 9.26522 21 9V5C21 4.73478 20.8946 4.48043 20.7071 4.29289C20.5196 4.10536 20.2652 4 20 4ZM19 8H15V6H19V8Z" fill="#4D4C7D"/>
<path d="M37 4H23C22.7348 4 22.4804 4.10536 22.2929 4.29289C22.1054 4.48043 22 4.73478 22 5V9C22 9.26522 22.1054 9.51957 22.2929 9.70711C22.4804 9.89464 22.7348 10 23 10H37C37.2652 10 37.5196 9.89464 37.7071 9.70711C37.8946 9.51957 38 9.26522 38 9V5C38 4.73478 37.8946 4.48043 37.7071 4.29289C37.5196 4.10536 37.2652 4 37 4ZM36 8H24V6H36V8Z" fill="#4D4C7D"/>
<path d="M50 4H40C39.7348 4 39.4804 4.10536 39.2929 4.29289C39.1054 4.48043 39 4.73478 39 5C39 5.26522 39.1054 5.51957 39.2929 5.70711C39.4804 5.89464 39.7348 6 40 6H50C50.2652 6 50.5196 5.89464 50.7071 5.70711C50.8946 5.51957 51 5.26522 51 5C51 4.73478 50.8946 4.48043 50.7071 4.29289C50.5196 4.10536 50.2652 4 50 4Z" fill="#4D4C7D"/>
<path d="M50 8H40C39.7348 8 39.4804 8.10536 39.2929 8.29289C39.1054 8.48043 39 8.73478 39 9C39 9.26522 39.1054 9.51957 39.2929 9.70711C39.4804 9.89464 39.7348 10 40 10H50C50.2652 10 50.5196 9.89464 50.7071 9.70711C50.8946 9.51957 51 9.26522 51 9C51 8.73478 50.8946 8.48043 50.7071 8.29289C50.5196 8.10536 50.2652 8 50 8Z" fill="#4D4C7D"/>
</svg>
