<svg width="64" height="64" viewBox="0 0 64 64" fill="none" xmlns="http://www.w3.org/2000/svg">
<path d="M62 28H58.949C58.7415 23.4803 57.0772 19.1491 54.2049 15.6533C51.3326 12.1575 47.4063 9.68485 43.0127 8.6047C38.6191 7.52455 33.9939 7.89488 29.8281 9.66037C25.6623 11.4259 22.1795 14.4918 19.9 18.4C18.3503 17.969 16.7248 17.8845 15.1388 18.1526C13.5527 18.4206 12.0452 19.0346 10.7233 19.951C9.40134 20.8673 8.2974 22.0636 7.48989 23.4547C6.68239 24.8458 6.19112 26.3977 6.051 28H2C1.73478 28 1.48043 28.1054 1.29289 28.2929C1.10536 28.4805 1 28.7348 1 29V35C1 35.2653 1.10536 35.5196 1.29289 35.7071C1.48043 35.8947 1.73478 36 2 36H5V60C5 60.7957 5.31607 61.5587 5.87868 62.1214C6.44129 62.684 7.20435 63 8 63H56C56.7957 63 57.5587 62.684 58.1213 62.1214C58.6839 61.5587 59 60.7957 59 60V36H62C62.2652 36 62.5196 35.8947 62.7071 35.7071C62.8946 35.5196 63 35.2653 63 35V29C63 28.7348 62.8946 28.4805 62.7071 28.2929C62.5196 28.1054 62.2652 28 62 28ZM38 10C42.8612 10.008 47.5346 11.8784 51.0592 15.2264C54.5837 18.5744 56.6915 23.1456 56.949 28H48.949C48.7036 25.2653 47.4438 22.7214 45.4174 20.8687C43.391 19.016 40.7447 17.9887 37.999 17.9887C35.2533 17.9887 32.607 19.016 30.5806 20.8687C28.5542 22.7214 27.2944 25.2653 27.049 28H19.049C19.3066 23.1453 21.4146 18.5738 24.9396 15.2257C28.4645 11.8776 33.1384 10.0075 38 10ZM46.941 28H29.059C29.3115 25.8057 30.3621 23.7809 32.0108 22.311C33.6595 20.8411 35.7912 20.0289 38 20.0289C40.2088 20.0289 42.3405 20.8411 43.9892 22.311C45.6379 23.7809 46.6885 25.8057 46.941 28ZM17 20C17.6539 20.0075 18.305 20.086 18.942 20.234C17.8162 22.6763 17.174 25.3136 17.051 28H8.059C8.30724 25.8015 9.35568 23.771 11.0046 22.2957C12.6534 20.8204 14.7875 20.0033 17 20ZM57 60C57 60.2653 56.8946 60.5196 56.7071 60.7071C56.5196 60.8947 56.2652 61 56 61H8C7.73478 61 7.48043 60.8947 7.29289 60.7071C7.10536 60.5196 7 60.2653 7 60V36H57V60ZM61 34H3V30H61V34Z" fill="#4D4C7D"/>
<path d="M14 13H15V14C15 14.2652 15.1054 14.5196 15.2929 14.7071C15.4804 14.8946 15.7348 15 16 15C16.2652 15 16.5196 14.8946 16.7071 14.7071C16.8946 14.5196 17 14.2652 17 14V13H18C18.2652 13 18.5196 12.8946 18.7071 12.7071C18.8946 12.5196 19 12.2652 19 12C19 11.7348 18.8946 11.4804 18.7071 11.2929C18.5196 11.1054 18.2652 11 18 11H17V10C17 9.73478 16.8946 9.48043 16.7071 9.29289C16.5196 9.10536 16.2652 9 16 9C15.7348 9 15.4804 9.10536 15.2929 9.29289C15.1054 9.48043 15 9.73478 15 10V11H14C13.7348 11 13.4804 11.1054 13.2929 11.2929C13.1054 11.4804 13 11.7348 13 12C13 12.2652 13.1054 12.5196 13.2929 12.7071C13.4804 12.8946 13.7348 13 14 13Z" fill="#4D4C7D"/>
<path d="M20 7H22V9C22 9.26522 22.1054 9.51957 22.2929 9.70711C22.4804 9.89464 22.7348 10 23 10C23.2652 10 23.5196 9.89464 23.7071 9.70711C23.8946 9.51957 24 9.26522 24 9V7H26C26.2652 7 26.5196 6.89464 26.7071 6.70711C26.8946 6.51957 27 6.26522 27 6C27 5.73478 26.8946 5.48043 26.7071 5.29289C26.5196 5.10536 26.2652 5 26 5H24V3C24 2.73478 23.8946 2.48043 23.7071 2.29289C23.5196 2.10536 23.2652 2 23 2C22.7348 2 22.4804 2.10536 22.2929 2.29289C22.1054 2.48043 22 2.73478 22 3V5H20C19.7348 5 19.4804 5.10536 19.2929 5.29289C19.1054 5.48043 19 5.73478 19 6C19 6.26522 19.1054 6.51957 19.2929 6.70711C19.4804 6.89464 19.7348 7 20 7Z" fill="#4D4C7D"/>
<path d="M29 7H30C30.2652 7 30.5196 6.89464 30.7071 6.70711C30.8946 6.51957 31 6.26522 31 6C31 5.73478 30.8946 5.48043 30.7071 5.29289C30.5196 5.10536 30.2652 5 30 5H29C28.7348 5 28.4804 5.10536 28.2929 5.29289C28.1054 5.48043 28 5.73478 28 6C28 6.26522 28.1054 6.51957 28.2929 6.70711C28.4804 6.89464 28.7348 7 29 7Z" fill="#4D4C7D"/>
<path d="M39 59H50C50.2652 59 50.5196 58.8946 50.7071 58.7071C50.8946 58.5196 51 58.2652 51 58C51 57.7348 50.8946 57.4804 50.7071 57.2929C50.5196 57.1054 50.2652 57 50 57H39C38.7348 57 38.4804 57.1054 38.2929 57.2929C38.1054 57.4804 38 57.7348 38 58C38 58.2652 38.1054 58.5196 38.2929 58.7071C38.4804 58.8946 38.7348 59 39 59Z" fill="#4D4C7D"/>
<path d="M53 59H54C54.2652 59 54.5196 58.8946 54.7071 58.7071C54.8946 58.5196 55 58.2652 55 58C55 57.7348 54.8946 57.4804 54.7071 57.2929C54.5196 57.1054 54.2652 57 54 57H53C52.7348 57 52.4804 57.1054 52.2929 57.2929C52.1054 57.4804 52 57.7348 52 58C52 58.2652 52.1054 58.5196 52.2929 58.7071C52.4804 58.8946 52.7348 59 53 59Z" fill="#4D4C7D"/>
</svg>
