<svg width="64" height="64" viewBox="0 0 64 64" fill="none" xmlns="http://www.w3.org/2000/svg">
<path d="M48.149 3.751C48.0828 3.00261 47.7397 2.30586 47.1869 1.79707C46.6341 1.28827 45.9113 1.00405 45.16 1H18.84C18.0887 1.00384 17.366 1.28803 16.8133 1.79688C16.2606 2.30574 15.9178 3.00261 15.852 3.751L11.185 59.751C11.1506 60.1645 11.2023 60.5806 11.3368 60.973C11.4714 61.3655 11.6859 61.7258 11.9668 62.0311C12.2477 62.3365 12.5889 62.5802 12.9688 62.747C13.3487 62.9138 13.7591 62.9999 14.174 63H49.826C50.2409 62.9999 50.6513 62.9138 51.0312 62.747C51.4111 62.5802 51.7523 62.3365 52.0332 62.0311C52.3141 61.7258 52.5286 61.3655 52.6632 60.973C52.7977 60.5806 52.8494 60.1645 52.815 59.751L48.149 3.751ZM50.562 60.677C50.4688 60.7794 50.3551 60.861 50.2283 60.9166C50.1015 60.9723 49.9645 61.0007 49.826 61H14.174C14.0354 61.0005 13.8982 60.9721 13.7711 60.9168C13.6441 60.8614 13.5299 60.7802 13.4359 60.6784C13.3418 60.5766 13.27 60.4563 13.2249 60.3252C13.1798 60.1941 13.1625 60.0551 13.174 59.917L17.842 3.917C17.8608 3.66564 17.9747 3.43089 18.1605 3.26053C18.3462 3.09017 18.59 2.99701 18.842 3H45.16C45.4119 2.99749 45.6554 3.09081 45.841 3.26108C46.0267 3.43134 46.1407 3.66581 46.16 3.917L50.827 59.917C50.8388 60.0552 50.8212 60.1943 50.7756 60.3253C50.7299 60.4562 50.6571 60.5761 50.562 60.677Z" fill="#4D4C7D"/>
<path d="M26 11H38C38.7956 11 39.5587 10.6839 40.1213 10.1213C40.6839 9.55871 41 8.79565 41 8C41 7.20435 40.6839 6.44129 40.1213 5.87868C39.5587 5.31607 38.7956 5 38 5H26C25.2044 5 24.4413 5.31607 23.8787 5.87868C23.3161 6.44129 23 7.20435 23 8C23 8.79565 23.3161 9.55871 23.8787 10.1213C24.4413 10.6839 25.2044 11 26 11ZM26 7H38C38.2652 7 38.5196 7.10536 38.7071 7.29289C38.8946 7.48043 39 7.73478 39 8C39 8.26522 38.8946 8.51957 38.7071 8.70711C38.5196 8.89464 38.2652 9 38 9H26C25.7348 9 25.4804 8.89464 25.2929 8.70711C25.1054 8.51957 25 8.26522 25 8C25 7.73478 25.1054 7.48043 25.2929 7.29289C25.4804 7.10536 25.7348 7 26 7Z" fill="#4D4C7D"/>
<path d="M32.878 21.521C32.784 21.3734 32.6542 21.2518 32.5007 21.1676C32.3473 21.0834 32.175 21.0393 32 21.0393C31.825 21.0393 31.6527 21.0834 31.4993 21.1676C31.3458 21.2518 31.216 21.3734 31.122 21.521L19.122 43.521C19.0389 43.6733 18.9968 43.8447 19 44.0181C19.0031 44.1916 19.0514 44.3613 19.1399 44.5105C19.2285 44.6597 19.3544 44.7833 19.5052 44.8691C19.656 44.9549 19.8265 45.0001 20 45H44C44.1735 45.0001 44.344 44.9549 44.4948 44.8691C44.6456 44.7833 44.7715 44.6597 44.8601 44.5105C44.9487 44.3613 44.9969 44.1916 45 44.0181C45.0032 43.8447 44.9611 43.6733 44.878 43.521L32.878 21.521ZM21.685 43L32 24.088L42.315 43H21.685Z" fill="#4D4C7D"/>
<path d="M31 31V35C31 35.2652 31.1054 35.5196 31.2929 35.7071C31.4804 35.8946 31.7348 36 32 36C32.2652 36 32.5196 35.8946 32.7071 35.7071C32.8946 35.5196 33 35.2652 33 35V31C33 30.7348 32.8946 30.4804 32.7071 30.2929C32.5196 30.1054 32.2652 30 32 30C31.7348 30 31.4804 30.1054 31.2929 30.2929C31.1054 30.4804 31 30.7348 31 31Z" fill="#4D4C7D"/>
<path d="M32 37C31.7348 37 31.4804 37.1054 31.2929 37.2929C31.1054 37.4804 31 37.7348 31 38V39C31 39.2652 31.1054 39.5196 31.2929 39.7071C31.4804 39.8946 31.7348 40 32 40C32.2652 40 32.5196 39.8946 32.7071 39.7071C32.8946 39.5196 33 39.2652 33 39V38C33 37.7348 32.8946 37.4804 32.7071 37.2929C32.5196 37.1054 32.2652 37 32 37Z" fill="#4D4C7D"/>
<path d="M23 57H16C15.7348 57 15.4804 57.1054 15.2929 57.2929C15.1054 57.4804 15 57.7348 15 58C15 58.2652 15.1054 58.5196 15.2929 58.7071C15.4804 58.8946 15.7348 59 16 59H23C23.2652 59 23.5196 58.8946 23.7071 58.7071C23.8946 58.5196 24 58.2652 24 58C24 57.7348 23.8946 57.4804 23.7071 57.2929C23.5196 57.1054 23.2652 57 23 57Z" fill="#4D4C7D"/>
<path d="M27 57H26C25.7348 57 25.4804 57.1054 25.2929 57.2929C25.1054 57.4804 25 57.7348 25 58C25 58.2652 25.1054 58.5196 25.2929 58.7071C25.4804 58.8946 25.7348 59 26 59H27C27.2652 59 27.5196 58.8946 27.7071 58.7071C27.8946 58.5196 28 58.2652 28 58C28 57.7348 27.8946 57.4804 27.7071 57.2929C27.5196 57.1054 27.2652 57 27 57Z" fill="#4D4C7D"/>
</svg>
