<svg width="64" height="64" viewBox="0 0 64 64" fill="none" xmlns="http://www.w3.org/2000/svg">
<path d="M28 30C28.5523 30 29 29.5523 29 29C29 28.4477 28.5523 28 28 28C27.4477 28 27 28.4477 27 29C27 29.5523 27.4477 30 28 30Z" fill="#4D4C7D"/>
<path d="M28 38C28.5523 38 29 37.5523 29 37C29 36.4477 28.5523 36 28 36C27.4477 36 27 36.4477 27 37C27 37.5523 27.4477 38 28 38Z" fill="#4D4C7D"/>
<path d="M36 30C36.5523 30 37 29.5523 37 29C37 28.4477 36.5523 28 36 28C35.4477 28 35 28.4477 35 29C35 29.5523 35.4477 30 36 30Z" fill="#4D4C7D"/>
<path d="M36 38C36.5523 38 37 37.5523 37 37C37 36.4477 36.5523 36 36 36C35.4477 36 35 36.4477 35 37C35 37.5523 35.4477 38 36 38Z" fill="#4D4C7D"/>
<path d="M32 30C31.4067 30 30.8266 30.1759 30.3333 30.5056C29.8399 30.8352 29.4554 31.3038 29.2284 31.8519C29.0013 32.4001 28.9419 33.0033 29.0576 33.5853C29.1734 34.1672 29.4591 34.7018 29.8787 35.1213C30.2982 35.5409 30.8328 35.8266 31.4147 35.9424C31.9967 36.0581 32.5999 35.9987 33.148 35.7716C33.6962 35.5446 34.1648 35.1601 34.4944 34.6667C34.8241 34.1734 35 33.5933 35 33C35 32.2044 34.6839 31.4413 34.1213 30.8787C33.5587 30.3161 32.7957 30 32 30ZM32 34C31.8022 34 31.6089 33.9414 31.4444 33.8315C31.28 33.7216 31.1518 33.5654 31.0761 33.3827C31.0004 33.2 30.9806 32.9989 31.0192 32.8049C31.0578 32.6109 31.153 32.4327 31.2929 32.2929C31.4327 32.153 31.6109 32.0578 31.8049 32.0192C31.9989 31.9806 32.2 32.0004 32.3827 32.0761C32.5654 32.1518 32.7216 32.28 32.8315 32.4444C32.9414 32.6089 33 32.8022 33 33C33 33.2652 32.8946 33.5196 32.7071 33.7071C32.5196 33.8946 32.2652 34 32 34Z" fill="#4D4C7D"/>
<path d="M32 7C26.8577 7 21.8309 8.52487 17.5552 11.3818C13.2795 14.2387 9.94702 18.2994 7.97914 23.0502C6.01127 27.8011 5.49638 33.0288 6.49959 38.0723C7.50281 43.1159 9.97907 47.7486 13.6152 51.3848C17.2514 55.0209 21.8842 57.4972 26.9277 58.5004C31.9712 59.5036 37.1989 58.9887 41.9498 57.0209C46.7007 55.053 50.7613 51.7205 53.6182 47.4448C56.4751 43.1691 58 38.1423 58 33C57.9921 26.1068 55.2502 19.4982 50.376 14.624C45.5018 9.74977 38.8932 7.00794 32 7ZM32 57C27.2533 57 22.6131 55.5924 18.6663 52.9553C14.7195 50.3181 11.6434 46.5698 9.8269 42.1844C8.0104 37.799 7.53512 32.9734 8.46116 28.3178C9.38721 23.6623 11.673 19.3859 15.0294 16.0294C18.3859 12.673 22.6623 10.3872 27.3178 9.46115C31.9734 8.53511 36.799 9.01039 41.1844 10.8269C45.5698 12.6434 49.3181 15.7195 51.9553 19.6663C54.5924 23.6131 56 28.2532 56 33C55.9926 39.3629 53.4617 45.4631 48.9624 49.9624C44.4631 54.4616 38.3629 56.9926 32 57Z" fill="#4D4C7D"/>
<path d="M4 16C4 16.2652 4.10536 16.5196 4.29289 16.7071C4.48043 16.8946 4.73478 17 5 17C5.26522 17 5.51957 16.8946 5.70711 16.7071C5.89464 16.5196 6 16.2652 6 16V14H8C8.26522 14 8.51957 13.8946 8.70711 13.7071C8.89464 13.5196 9 13.2652 9 13C9 12.7348 8.89464 12.4804 8.70711 12.2929C8.51957 12.1054 8.26522 12 8 12H6V10C6 9.73478 5.89464 9.48043 5.70711 9.29289C5.51957 9.10536 5.26522 9 5 9C4.73478 9 4.48043 9.10536 4.29289 9.29289C4.10536 9.48043 4 9.73478 4 10V12H2C1.73478 12 1.48043 12.1054 1.29289 12.2929C1.10536 12.4804 1 12.7348 1 13C1 13.2652 1.10536 13.5196 1.29289 13.7071C1.48043 13.8946 1.73478 14 2 14H4V16Z" fill="#4D4C7D"/>
<path d="M11 14H12C12.2652 14 12.5196 13.8946 12.7071 13.7071C12.8946 13.5196 13 13.2652 13 13C13 12.7348 12.8946 12.4804 12.7071 12.2929C12.5196 12.1054 12.2652 12 12 12H11C10.7348 12 10.4804 12.1054 10.2929 12.2929C10.1054 12.4804 10 12.7348 10 13C10 13.2652 10.1054 13.5196 10.2929 13.7071C10.4804 13.8946 10.7348 14 11 14Z" fill="#4D4C7D"/>
<path d="M62 18H61V17C61 16.7348 60.8946 16.4804 60.7071 16.2929C60.5196 16.1054 60.2652 16 60 16C59.7348 16 59.4804 16.1054 59.2929 16.2929C59.1054 16.4804 59 16.7348 59 17V18H58C57.7348 18 57.4804 18.1054 57.2929 18.2929C57.1054 18.4804 57 18.7348 57 19C57 19.2652 57.1054 19.5196 57.2929 19.7071C57.4804 19.8946 57.7348 20 58 20H59V21C59 21.2652 59.1054 21.5196 59.2929 21.7071C59.4804 21.8946 59.7348 22 60 22C60.2652 22 60.5196 21.8946 60.7071 21.7071C60.8946 21.5196 61 21.2652 61 21V20H62C62.2652 20 62.5196 19.8946 62.7071 19.7071C62.8946 19.5196 63 19.2652 63 19C63 18.7348 62.8946 18.4804 62.7071 18.2929C62.5196 18.1054 62.2652 18 62 18Z" fill="#4D4C7D"/>
<path d="M51.293 12.707C51.4565 12.8705 51.6716 12.9724 51.9016 12.9951C52.1317 13.0179 52.3626 12.9603 52.555 12.832C53.2553 12.2912 54.1152 11.9978 55 11.9978C55.8848 11.9978 56.7447 12.2912 57.445 12.832C57.6374 12.9605 57.8683 13.0183 58.0985 12.9956C58.3287 12.9729 58.544 12.8711 58.7076 12.7076C58.8711 12.544 58.9729 12.3288 58.9956 12.0985C59.0183 11.8683 58.9605 11.6374 58.832 11.445C58.2911 10.7447 57.9977 9.88485 57.9977 9.00001C57.9977 8.11517 58.2911 7.25531 58.832 6.55501C58.9617 6.36065 59.0193 6.127 58.9947 5.89462C58.9701 5.66225 58.8649 5.44583 58.6974 5.28293C58.5298 5.12003 58.3105 5.02094 58.0776 5.00287C57.8446 4.9848 57.6126 5.04889 57.422 5.18401C56.7423 5.75102 55.8852 6.06159 55 6.06159C54.1148 6.06159 53.2577 5.75102 52.578 5.18401C52.3873 5.04889 52.1554 4.9848 51.9224 5.00287C51.6895 5.02094 51.4702 5.12003 51.3026 5.28293C51.1351 5.44583 51.0299 5.66225 51.0053 5.89462C50.9807 6.127 51.0383 6.36065 51.168 6.55501C51.7089 7.25531 52.0022 8.11517 52.0022 9.00001C52.0022 9.88485 51.7089 10.7447 51.168 11.445C51.0397 11.6374 50.9821 11.8683 51.0049 12.0984C51.0276 12.3285 51.1295 12.5435 51.293 12.707ZM53.893 7.94201C54.622 8.09901 55.376 8.09901 56.105 7.94201C55.9664 8.66113 55.9705 9.40046 56.117 10.118C55.3793 9.96734 54.6187 9.96734 53.881 10.118C54.0278 9.40053 54.0312 8.66119 53.893 7.94201Z" fill="#4D4C7D"/>
<path d="M9.83199 49.555C9.96171 49.3607 10.0193 49.127 9.99468 48.8946C9.97008 48.6623 9.86489 48.4458 9.69735 48.2829C9.52982 48.12 9.31053 48.0209 9.07756 48.0029C8.84458 47.9848 8.61264 48.0489 8.42199 48.184C7.74227 48.751 6.88516 49.0616 5.99999 49.0616C5.11483 49.0616 4.25771 48.751 3.57799 48.184C3.38735 48.0489 3.1554 47.9848 2.92243 48.0029C2.68946 48.0209 2.47017 48.12 2.30263 48.2829C2.1351 48.4458 2.02991 48.6623 2.00531 48.8946C1.98072 49.127 2.03827 49.3607 2.16799 49.555C2.70885 50.2553 3.00224 51.1152 3.00224 52C3.00224 52.8849 2.70885 53.7447 2.16799 54.445C2.0395 54.6374 1.98168 54.8683 2.00437 55.0985C2.02706 55.3288 2.12886 55.544 2.29244 55.7076C2.45601 55.8711 2.67124 55.9729 2.90145 55.9956C3.13167 56.0183 3.36263 55.9605 3.55499 55.832C4.25529 55.2912 5.11515 54.9978 5.99999 54.9978C6.88483 54.9978 7.7447 55.2912 8.44499 55.832C8.63736 55.9605 8.86832 56.0183 9.09853 55.9956C9.32875 55.9729 9.54398 55.8711 9.70755 55.7076C9.87113 55.544 9.97293 55.3288 9.99562 55.0985C10.0183 54.8683 9.96049 54.6374 9.83199 54.445C9.29114 53.7447 8.99774 52.8849 8.99774 52C8.99774 51.1152 9.29114 50.2553 9.83199 49.555ZM5.99999 53.005C5.6245 53.0054 5.24998 53.0433 4.88199 53.118C5.02847 52.4005 5.03255 51.6611 4.89399 50.942C5.62297 51.099 6.37702 51.099 7.10599 50.942C6.96744 51.6611 6.97152 52.4005 7.11799 53.118C6.75001 53.0433 6.37549 53.0054 5.99999 53.005Z" fill="#4D4C7D"/>
<path d="M32 10C27.451 10 23.0042 11.3489 19.2219 13.8762C15.4396 16.4035 12.4916 19.9956 10.7508 24.1983C9.00997 28.401 8.55449 33.0255 9.44195 37.4871C10.3294 41.9486 12.5199 46.0468 15.7366 49.2635C18.9532 52.4801 23.0514 54.6706 27.5129 55.5581C31.9745 56.4455 36.599 55.99 40.8017 54.2492C45.0044 52.5084 48.5965 49.5604 51.1238 45.7781C53.6511 41.9958 55 37.549 55 33C54.9931 26.9021 52.5677 21.056 48.2559 16.7441C43.944 12.4323 38.0979 10.0069 32 10ZM48.091 19.531C48.076 19.544 48.057 19.547 48.043 19.56L39.179 27.584C38.6988 26.952 38.1377 26.3859 37.51 25.9L45.346 16.847C45.3523 16.837 45.3579 16.8267 45.363 16.816C46.3529 17.6363 47.266 18.545 48.091 19.531ZM52.612 29.031L40.439 29.9C40.37 29.714 40.291 29.532 40.21 29.35L49.3 21.12C50.9393 23.4991 52.0671 26.1936 52.612 29.031ZM53 33C53 33.673 52.961 34.336 52.9 34.993C52.887 34.993 52.876 34.983 52.862 34.982L40.929 34.133C41.0218 33.3806 41.0184 32.6195 40.919 31.868L52.862 31.018C52.876 31.018 52.887 31.009 52.9 31.007C52.961 31.664 53 32.327 53 33ZM49.385 44.765L40.16 36.78C40.262 36.56 40.3553 36.3343 40.44 36.103L52.612 36.97C52.0779 39.7608 50.9798 42.4133 49.385 44.765ZM35.779 41.159L43.765 50.385C41.4118 51.9805 38.7576 53.0786 35.965 53.612L35.1 41.44C35.332 41.355 35.558 41.262 35.779 41.159ZM30.433 39.822C29.0836 39.5121 27.8565 38.8091 26.9067 37.8017C25.9569 36.7944 25.3271 35.528 25.0971 34.1628C24.867 32.7975 25.047 31.3947 25.6142 30.1317C26.1814 28.8688 27.1104 27.8024 28.2837 27.0674C29.457 26.3324 30.8219 25.9619 32.2058 26.0026C33.5897 26.0434 34.9305 26.4936 36.0585 27.2964C37.1865 28.0991 38.0511 29.2184 38.543 30.5125C39.0349 31.8067 39.132 33.2177 38.822 34.567C38.4047 36.3753 37.287 37.9442 35.7142 38.9293C34.1415 39.9145 32.2422 40.2356 30.433 39.822ZM28.9 41.44L28.03 53.612C25.2374 53.0786 22.5832 51.9805 20.23 50.385L28.211 41.165C28.437 41.267 28.666 41.355 28.9 41.44ZM11.388 36.97L23.561 36.1C23.645 36.329 23.742 36.552 23.844 36.773L14.615 44.762C13.0206 42.4112 11.9225 39.7598 11.388 36.97ZM11 33C11 32.327 11.039 31.664 11.1 31.007C11.113 31.007 11.124 31.017 11.138 31.018L23.071 31.867C22.9783 32.6194 22.9816 33.3805 23.081 34.132L11.138 34.982C11.124 34.982 11.113 34.991 11.1 34.993C11.039 34.336 11 33.673 11 33ZM14.615 21.235L23.836 29.216C23.736 29.437 23.645 29.666 23.56 29.897L11.388 29.03C11.9221 26.2392 13.0202 23.5867 14.615 21.235ZM28.224 24.845L20.235 15.615C22.5882 14.0195 25.2424 12.9214 28.035 12.388L28.9 24.561C28.668 24.646 28.445 24.742 28.224 24.845ZM35.1 24.56L35.967 12.388C38.7596 12.9214 41.4138 14.0195 43.767 15.615L35.786 24.835C35.563 24.733 35.334 24.645 35.1 24.56ZM33.993 12.1C33.993 12.113 33.983 12.124 33.982 12.138L33.132 24.071C32.3799 23.9786 31.6192 23.9823 30.868 24.082L30.018 12.138C30.018 12.124 30.009 12.113 30.007 12.1C30.664 12.038 31.327 12 32 12C32.673 12 33.336 12.039 33.993 12.1ZM18.637 16.813C18.6421 16.8237 18.6478 16.834 18.654 16.844L26.488 25.893C25.8928 26.3576 25.3582 26.8951 24.897 27.493L15.844 19.656C15.834 19.6497 15.8237 19.6441 15.813 19.639C16.6631 18.6101 17.6087 17.6639 18.637 16.813ZM15.814 46.364C15.823 46.356 15.835 46.354 15.844 46.346L24.893 38.513C25.3576 39.108 25.8951 39.6422 26.493 40.103L18.657 49.156C18.6508 49.166 18.6451 49.1763 18.64 49.187C17.6113 48.337 16.6651 47.3918 15.814 46.364ZM30.007 53.9C30.007 53.887 30.017 53.876 30.018 53.862L30.868 41.923C31.619 42.029 32.3811 42.029 33.132 41.923L33.982 53.863C33.982 53.877 33.991 53.888 33.993 53.901C33.336 53.963 32.673 54.001 32 54.001C31.327 54.001 30.664 53.961 30.007 53.9ZM45.363 49.188C45.3579 49.1773 45.3523 49.167 45.346 49.157L37.512 40.107C38.1099 39.6458 38.6475 39.1113 39.112 38.516L48.159 46.347C48.168 46.355 48.18 46.357 48.189 46.365C47.3379 47.3925 46.3917 48.3383 45.363 49.188Z" fill="#4D4C7D"/>
</svg>
