<svg width="64" height="64" viewBox="0 0 64 64" fill="none" xmlns="http://www.w3.org/2000/svg">
<path d="M60 15H57V12C57 11.7348 56.8946 11.4804 56.7071 11.2929C56.5196 11.1054 56.2652 11 56 11H8C7.73478 11 7.48043 11.1054 7.29289 11.2929C7.10536 11.4804 7 11.7348 7 12V15H4C3.73478 15 3.48043 15.1054 3.29289 15.2929C3.10536 15.4804 3 15.7348 3 16V20C3.00159 21.3256 3.52888 22.5964 4.46622 23.5338C5.40356 24.4711 6.67441 24.9984 8 25H29V41H28C27.7348 41 27.4804 41.1054 27.2929 41.2929C27.1054 41.4804 27 41.7348 27 42V58C27 59.3261 27.5268 60.5979 28.4645 61.5355C29.4021 62.4732 30.6739 63 32 63C33.3261 63 34.5979 62.4732 35.5355 61.5355C36.4732 60.5979 37 59.3261 37 58V42C37 41.7348 36.8946 41.4804 36.7071 41.2929C36.5196 41.1054 36.2652 41 36 41H35V25H56C57.3256 24.9984 58.5964 24.4711 59.5338 23.5338C60.4711 22.5964 60.9984 21.3256 61 20V16C61 15.7348 60.8946 15.4804 60.7071 15.2929C60.5196 15.1054 60.2652 15 60 15ZM9 13H55V15H9V13ZM35 58C35 58.7957 34.6839 59.5587 34.1213 60.1213C33.5587 60.6839 32.7956 61 32 61C31.2044 61 30.4413 60.6839 29.8787 60.1213C29.3161 59.5587 29 58.7957 29 58V43H35V58ZM33 41H31V25H33V41ZM59 20C59 20.7956 58.6839 21.5587 58.1213 22.1213C57.5587 22.6839 56.7957 23 56 23H8C7.20435 23 6.44129 22.6839 5.87868 22.1213C5.31607 21.5587 5 20.7956 5 20V17H59V20Z" fill="#4D4C7D"/>
<path d="M17 18H7C6.73478 18 6.48043 18.1054 6.29289 18.2929C6.10536 18.4804 6 18.7348 6 19C6 19.2652 6.10536 19.5196 6.29289 19.7071C6.48043 19.8946 6.73478 20 7 20H17C17.2652 20 17.5196 19.8946 17.7071 19.7071C17.8946 19.5196 18 19.2652 18 19C18 18.7348 17.8946 18.4804 17.7071 18.2929C17.5196 18.1054 17.2652 18 17 18Z" fill="#4D4C7D"/>
<path d="M22 18H20C19.7348 18 19.4804 18.1054 19.2929 18.2929C19.1054 18.4804 19 18.7348 19 19C19 19.2652 19.1054 19.5196 19.2929 19.7071C19.4804 19.8946 19.7348 20 20 20H22C22.2652 20 22.5196 19.8946 22.7071 19.7071C22.8946 19.5196 23 19.2652 23 19C23 18.7348 22.8946 18.4804 22.7071 18.2929C22.5196 18.1054 22.2652 18 22 18Z" fill="#4D4C7D"/>
<path d="M8 4C8.26522 4 8.51957 3.89464 8.70711 3.70711C8.89464 3.51957 9 3.26522 9 3V2C9 1.73478 8.89464 1.48043 8.70711 1.29289C8.51957 1.10536 8.26522 1 8 1C7.73478 1 7.48043 1.10536 7.29289 1.29289C7.10536 1.48043 7 1.73478 7 2V3C7 3.26522 7.10536 3.51957 7.29289 3.70711C7.48043 3.89464 7.73478 4 8 4Z" fill="#4D4C7D"/>
<path d="M8 10C8.26522 10 8.51957 9.89464 8.70711 9.70711C8.89464 9.51957 9 9.26522 9 9V6C9 5.73478 8.89464 5.48043 8.70711 5.29289C8.51957 5.10536 8.26522 5 8 5C7.73478 5 7.48043 5.10536 7.29289 5.29289C7.10536 5.48043 7 5.73478 7 6V9C7 9.26522 7.10536 9.51957 7.29289 9.70711C7.48043 9.89464 7.73478 10 8 10Z" fill="#4D4C7D"/>
<path d="M16 10C16.2652 10 16.5196 9.89464 16.7071 9.70711C16.8946 9.51957 17 9.26522 17 9V2C17 1.73478 16.8946 1.48043 16.7071 1.29289C16.5196 1.10536 16.2652 1 16 1C15.7348 1 15.4804 1.10536 15.2929 1.29289C15.1054 1.48043 15 1.73478 15 2V9C15 9.26522 15.1054 9.51957 15.2929 9.70711C15.4804 9.89464 15.7348 10 16 10Z" fill="#4D4C7D"/>
<path d="M24 10C24.2652 10 24.5196 9.89464 24.7071 9.70711C24.8946 9.51957 25 9.26522 25 9V4C25 3.73478 24.8946 3.48043 24.7071 3.29289C24.5196 3.10536 24.2652 3 24 3C23.7348 3 23.4804 3.10536 23.2929 3.29289C23.1054 3.48043 23 3.73478 23 4V9C23 9.26522 23.1054 9.51957 23.2929 9.70711C23.4804 9.89464 23.7348 10 24 10Z" fill="#4D4C7D"/>
<path d="M12 10C12.2652 10 12.5196 9.89464 12.7071 9.70711C12.8946 9.51957 13 9.26522 13 9V5C13 4.73478 12.8946 4.48043 12.7071 4.29289C12.5196 4.10536 12.2652 4 12 4C11.7348 4 11.4804 4.10536 11.2929 4.29289C11.1054 4.48043 11 4.73478 11 5V9C11 9.26522 11.1054 9.51957 11.2929 9.70711C11.4804 9.89464 11.7348 10 12 10Z" fill="#4D4C7D"/>
<path d="M20 10C20.2652 10 20.5196 9.89464 20.7071 9.70711C20.8946 9.51957 21 9.26522 21 9V8C21 7.73478 20.8946 7.48043 20.7071 7.29289C20.5196 7.10536 20.2652 7 20 7C19.7348 7 19.4804 7.10536 19.2929 7.29289C19.1054 7.48043 19 7.73478 19 8V9C19 9.26522 19.1054 9.51957 19.2929 9.70711C19.4804 9.89464 19.7348 10 20 10Z" fill="#4D4C7D"/>
<path d="M20 6C20.2652 6 20.5196 5.89464 20.7071 5.70711C20.8946 5.51957 21 5.26522 21 5V2C21 1.73478 20.8946 1.48043 20.7071 1.29289C20.5196 1.10536 20.2652 1 20 1C19.7348 1 19.4804 1.10536 19.2929 1.29289C19.1054 1.48043 19 1.73478 19 2V5C19 5.26522 19.1054 5.51957 19.2929 5.70711C19.4804 5.89464 19.7348 6 20 6Z" fill="#4D4C7D"/>
<path d="M28 4C28.2652 4 28.5196 3.89464 28.7071 3.70711C28.8946 3.51957 29 3.26522 29 3V2C29 1.73478 28.8946 1.48043 28.7071 1.29289C28.5196 1.10536 28.2652 1 28 1C27.7348 1 27.4804 1.10536 27.2929 1.29289C27.1054 1.48043 27 1.73478 27 2V3C27 3.26522 27.1054 3.51957 27.2929 3.70711C27.4804 3.89464 27.7348 4 28 4Z" fill="#4D4C7D"/>
<path d="M28 10C28.2652 10 28.5196 9.89464 28.7071 9.70711C28.8946 9.51957 29 9.26522 29 9V6C29 5.73478 28.8946 5.48043 28.7071 5.29289C28.5196 5.10536 28.2652 5 28 5C27.7348 5 27.4804 5.10536 27.2929 5.29289C27.1054 5.48043 27 5.73478 27 6V9C27 9.26522 27.1054 9.51957 27.2929 9.70711C27.4804 9.89464 27.7348 10 28 10Z" fill="#4D4C7D"/>
<path d="M36 10C36.2652 10 36.5196 9.89464 36.7071 9.70711C36.8946 9.51957 37 9.26522 37 9V2C37 1.73478 36.8946 1.48043 36.7071 1.29289C36.5196 1.10536 36.2652 1 36 1C35.7348 1 35.4804 1.10536 35.2929 1.29289C35.1054 1.48043 35 1.73478 35 2V9C35 9.26522 35.1054 9.51957 35.2929 9.70711C35.4804 9.89464 35.7348 10 36 10Z" fill="#4D4C7D"/>
<path d="M44 10C44.2652 10 44.5196 9.89464 44.7071 9.70711C44.8946 9.51957 45 9.26522 45 9V4C45 3.73478 44.8946 3.48043 44.7071 3.29289C44.5196 3.10536 44.2652 3 44 3C43.7348 3 43.4804 3.10536 43.2929 3.29289C43.1054 3.48043 43 3.73478 43 4V9C43 9.26522 43.1054 9.51957 43.2929 9.70711C43.4804 9.89464 43.7348 10 44 10Z" fill="#4D4C7D"/>
<path d="M32 10C32.2652 10 32.5196 9.89464 32.7071 9.70711C32.8946 9.51957 33 9.26522 33 9V5C33 4.73478 32.8946 4.48043 32.7071 4.29289C32.5196 4.10536 32.2652 4 32 4C31.7348 4 31.4804 4.10536 31.2929 4.29289C31.1054 4.48043 31 4.73478 31 5V9C31 9.26522 31.1054 9.51957 31.2929 9.70711C31.4804 9.89464 31.7348 10 32 10Z" fill="#4D4C7D"/>
<path d="M40 10C40.2652 10 40.5196 9.89464 40.7071 9.70711C40.8946 9.51957 41 9.26522 41 9V8C41 7.73478 40.8946 7.48043 40.7071 7.29289C40.5196 7.10536 40.2652 7 40 7C39.7348 7 39.4804 7.10536 39.2929 7.29289C39.1054 7.48043 39 7.73478 39 8V9C39 9.26522 39.1054 9.51957 39.2929 9.70711C39.4804 9.89464 39.7348 10 40 10Z" fill="#4D4C7D"/>
<path d="M40 6C40.2652 6 40.5196 5.89464 40.7071 5.70711C40.8946 5.51957 41 5.26522 41 5V2C41 1.73478 40.8946 1.48043 40.7071 1.29289C40.5196 1.10536 40.2652 1 40 1C39.7348 1 39.4804 1.10536 39.2929 1.29289C39.1054 1.48043 39 1.73478 39 2V5C39 5.26522 39.1054 5.51957 39.2929 5.70711C39.4804 5.89464 39.7348 6 40 6Z" fill="#4D4C7D"/>
<path d="M48 4C48.2652 4 48.5196 3.89464 48.7071 3.70711C48.8946 3.51957 49 3.26522 49 3V2C49 1.73478 48.8946 1.48043 48.7071 1.29289C48.5196 1.10536 48.2652 1 48 1C47.7348 1 47.4804 1.10536 47.2929 1.29289C47.1054 1.48043 47 1.73478 47 2V3C47 3.26522 47.1054 3.51957 47.2929 3.70711C47.4804 3.89464 47.7348 4 48 4Z" fill="#4D4C7D"/>
<path d="M48 10C48.2652 10 48.5196 9.89464 48.7071 9.70711C48.8946 9.51957 49 9.26522 49 9V6C49 5.73478 48.8946 5.48043 48.7071 5.29289C48.5196 5.10536 48.2652 5 48 5C47.7348 5 47.4804 5.10536 47.2929 5.29289C47.1054 5.48043 47 5.73478 47 6V9C47 9.26522 47.1054 9.51957 47.2929 9.70711C47.4804 9.89464 47.7348 10 48 10Z" fill="#4D4C7D"/>
<path d="M56 10C56.2652 10 56.5196 9.89464 56.7071 9.70711C56.8946 9.51957 57 9.26522 57 9V2C57 1.73478 56.8946 1.48043 56.7071 1.29289C56.5196 1.10536 56.2652 1 56 1C55.7348 1 55.4804 1.10536 55.2929 1.29289C55.1054 1.48043 55 1.73478 55 2V9C55 9.26522 55.1054 9.51957 55.2929 9.70711C55.4804 9.89464 55.7348 10 56 10Z" fill="#4D4C7D"/>
<path d="M52 10C52.2652 10 52.5196 9.89464 52.7071 9.70711C52.8946 9.51957 53 9.26522 53 9V5C53 4.73478 52.8946 4.48043 52.7071 4.29289C52.5196 4.10536 52.2652 4 52 4C51.7348 4 51.4804 4.10536 51.2929 4.29289C51.1054 4.48043 51 4.73478 51 5V9C51 9.26522 51.1054 9.51957 51.2929 9.70711C51.4804 9.89464 51.7348 10 52 10Z" fill="#4D4C7D"/>
</svg>
