<svg width="64" height="64" viewBox="0 0 64 64" fill="none" xmlns="http://www.w3.org/2000/svg">
<path d="M51 39H49V36C49 35.7348 48.8946 35.4804 48.7071 35.2929C48.5196 35.1054 48.2652 35 48 35H16C15.7348 35 15.4804 35.1054 15.2929 35.2929C15.1054 35.4804 15 35.7348 15 36V39H13C12.7348 39 12.4804 39.1054 12.2929 39.2929C12.1054 39.4804 12 39.7348 12 40V46C12 46.7956 12.3161 47.5587 12.8787 48.1213C13.4413 48.6839 14.2044 49 15 49H29V62C29 62.2652 29.1054 62.5196 29.2929 62.7071C29.4804 62.8946 29.7348 63 30 63H34C34.2652 63 34.5196 62.8946 34.7071 62.7071C34.8946 62.5196 35 62.2652 35 62V49H49C49.7957 49 50.5587 48.6839 51.1213 48.1213C51.6839 47.5587 52 46.7956 52 46V40C52 39.7348 51.8946 39.4804 51.7071 39.2929C51.5196 39.1054 51.2652 39 51 39ZM17 37H47V39H17V37ZM33 61H31V49H33V61ZM50 46C50 46.2652 49.8946 46.5196 49.7071 46.7071C49.5196 46.8946 49.2652 47 49 47H15C14.7348 47 14.4804 46.8946 14.2929 46.7071C14.1054 46.5196 14 46.2652 14 46V44H24C24.2652 44 24.5196 43.8946 24.7071 43.7071C24.8946 43.5196 25 43.2652 25 43C25 42.7348 24.8946 42.4804 24.7071 42.2929C24.5196 42.1054 24.2652 42 24 42H14V41H50V46Z" fill="#4D4C7D"/>
<path d="M29 42H27C26.7348 42 26.4804 42.1054 26.2929 42.2929C26.1054 42.4804 26 42.7348 26 43C26 43.2652 26.1054 43.5196 26.2929 43.7071C26.4804 43.8946 26.7348 44 27 44H29C29.2652 44 29.5196 43.8946 29.7071 43.7071C29.8946 43.5196 30 43.2652 30 43C30 42.7348 29.8946 42.4804 29.7071 42.2929C29.5196 42.1054 29.2652 42 29 42Z" fill="#4D4C7D"/>
<path d="M16 34C16.2652 34 16.5196 33.8946 16.7071 33.7071C16.8946 33.5196 17 33.2652 17 33V2C17 1.73478 16.8946 1.48043 16.7071 1.29289C16.5196 1.10536 16.2652 1 16 1C15.7348 1 15.4804 1.10536 15.2929 1.29289C15.1054 1.48043 15 1.73478 15 2V33C15 33.2652 15.1054 33.5196 15.2929 33.7071C15.4804 33.8946 15.7348 34 16 34Z" fill="#4D4C7D"/>
<path d="M24 24C24.2652 24 24.5196 23.8946 24.7071 23.7071C24.8946 23.5196 25 23.2652 25 23V10C25 9.73478 24.8946 9.48043 24.7071 9.29289C24.5196 9.10536 24.2652 9 24 9C23.7348 9 23.4804 9.10536 23.2929 9.29289C23.1054 9.48043 23 9.73478 23 10V23C23 23.2652 23.1054 23.5196 23.2929 23.7071C23.4804 23.8946 23.7348 24 24 24Z" fill="#4D4C7D"/>
<path d="M20 34C20.2652 34 20.5196 33.8946 20.7071 33.7071C20.8946 33.5196 21 33.2652 21 33V32C21 31.7348 20.8946 31.4804 20.7071 31.2929C20.5196 31.1054 20.2652 31 20 31C19.7348 31 19.4804 31.1054 19.2929 31.2929C19.1054 31.4804 19 31.7348 19 32V33C19 33.2652 19.1054 33.5196 19.2929 33.7071C19.4804 33.8946 19.7348 34 20 34Z" fill="#4D4C7D"/>
<path d="M20 30C20.2652 30 20.5196 29.8946 20.7071 29.7071C20.8946 29.5196 21 29.2652 21 29V26C21 25.7348 20.8946 25.4804 20.7071 25.2929C20.5196 25.1054 20.2652 25 20 25C19.7348 25 19.4804 25.1054 19.2929 25.2929C19.1054 25.4804 19 25.7348 19 26V29C19 29.2652 19.1054 29.5196 19.2929 29.7071C19.4804 29.8946 19.7348 30 20 30Z" fill="#4D4C7D"/>
<path d="M28 10C28.2652 10 28.5196 9.89464 28.7071 9.70711C28.8946 9.51957 29 9.26522 29 9V8C29 7.73478 28.8946 7.48043 28.7071 7.29289C28.5196 7.10536 28.2652 7 28 7C27.7348 7 27.4804 7.10536 27.2929 7.29289C27.1054 7.48043 27 7.73478 27 8V9C27 9.26522 27.1054 9.51957 27.2929 9.70711C27.4804 9.89464 27.7348 10 28 10Z" fill="#4D4C7D"/>
<path d="M28 16C28.2652 16 28.5196 15.8946 28.7071 15.7071C28.8946 15.5196 29 15.2652 29 15V12C29 11.7348 28.8946 11.4804 28.7071 11.2929C28.5196 11.1054 28.2652 11 28 11C27.7348 11 27.4804 11.1054 27.2929 11.2929C27.1054 11.4804 27 11.7348 27 12V15C27 15.2652 27.1054 15.5196 27.2929 15.7071C27.4804 15.8946 27.7348 16 28 16Z" fill="#4D4C7D"/>
<path d="M36 24C36.2652 24 36.5196 23.8946 36.7071 23.7071C36.8946 23.5196 37 23.2652 37 23V5C37 4.73478 36.8946 4.48043 36.7071 4.29289C36.5196 4.10536 36.2652 4 36 4C35.7348 4 35.4804 4.10536 35.2929 4.29289C35.1054 4.48043 35 4.73478 35 5V23C35 23.2652 35.1054 23.5196 35.2929 23.7071C35.4804 23.8946 35.7348 24 36 24Z" fill="#4D4C7D"/>
<path d="M44 34C44.2652 34 44.5196 33.8946 44.7071 33.7071C44.8946 33.5196 45 33.2652 45 33V23C45 22.7348 44.8946 22.4804 44.7071 22.2929C44.5196 22.1054 44.2652 22 44 22C43.7348 22 43.4804 22.1054 43.2929 22.2929C43.1054 22.4804 43 22.7348 43 23V33C43 33.2652 43.1054 33.5196 43.2929 33.7071C43.4804 33.8946 43.7348 34 44 34Z" fill="#4D4C7D"/>
<path d="M32 34C32.2652 34 32.5196 33.8946 32.7071 33.7071C32.8946 33.5196 33 33.2652 33 33V26C33 25.7348 32.8946 25.4804 32.7071 25.2929C32.5196 25.1054 32.2652 25 32 25C31.7348 25 31.4804 25.1054 31.2929 25.2929C31.1054 25.4804 31 25.7348 31 26V33C31 33.2652 31.1054 33.5196 31.2929 33.7071C31.4804 33.8946 31.7348 34 32 34Z" fill="#4D4C7D"/>
<path d="M40 24C40.2652 24 40.5196 23.8946 40.7071 23.7071C40.8946 23.5196 41 23.2652 41 23V22C41 21.7348 40.8946 21.4804 40.7071 21.2929C40.5196 21.1054 40.2652 21 40 21C39.7348 21 39.4804 21.1054 39.2929 21.2929C39.1054 21.4804 39 21.7348 39 22V23C39 23.2652 39.1054 23.5196 39.2929 23.7071C39.4804 23.8946 39.7348 24 40 24Z" fill="#4D4C7D"/>
<path d="M40 20C40.2652 20 40.5196 19.8946 40.7071 19.7071C40.8946 19.5196 41 19.2652 41 19V16C41 15.7348 40.8946 15.4804 40.7071 15.2929C40.5196 15.1054 40.2652 15 40 15C39.7348 15 39.4804 15.1054 39.2929 15.2929C39.1054 15.4804 39 15.7348 39 16V19C39 19.2652 39.1054 19.5196 39.2929 19.7071C39.4804 19.8946 39.7348 20 40 20Z" fill="#4D4C7D"/>
<path d="M48 28C48.2652 28 48.5196 27.8946 48.7071 27.7071C48.8946 27.5196 49 27.2652 49 27V2C49 1.73478 48.8946 1.48043 48.7071 1.29289C48.5196 1.10536 48.2652 1 48 1C47.7348 1 47.4804 1.10536 47.2929 1.29289C47.1054 1.48043 47 1.73478 47 2V27C47 27.2652 47.1054 27.5196 47.2929 27.7071C47.4804 27.8946 47.7348 28 48 28Z" fill="#4D4C7D"/>
<path d="M48 34C48.2652 34 48.5196 33.8946 48.7071 33.7071C48.8946 33.5196 49 33.2652 49 33V30C49 29.7348 48.8946 29.4804 48.7071 29.2929C48.5196 29.1054 48.2652 29 48 29C47.7348 29 47.4804 29.1054 47.2929 29.2929C47.1054 29.4804 47 29.7348 47 30V33C47 33.2652 47.1054 33.5196 47.2929 33.7071C47.4804 33.8946 47.7348 34 48 34Z" fill="#4D4C7D"/>
</svg>
