<svg width="26" height="25" viewBox="0 0 26 25" fill="none" xmlns="http://www.w3.org/2000/svg">
    <path d="M24.4922 5.69533L19.8047 1.00783C19.7317 0.935418 19.6451 0.878133 19.5499 0.839254C19.4547 0.800376 19.3528 0.780669 19.25 0.781263H3.625C3.0034 0.781263 2.40726 1.02819 1.96772 1.46773C1.52818 1.90727 1.28125 2.50341 1.28125 3.12501V21.875C1.28125 22.4966 1.52818 23.0928 1.96772 23.5323C2.40726 23.9718 3.0034 24.2188 3.625 24.2188H22.375C22.9966 24.2188 23.5927 23.9718 24.0323 23.5323C24.4718 23.0928 24.7188 22.4966 24.7188 21.875V6.25001C24.7193 6.1472 24.6996 6.04527 24.6608 5.95009C24.6219 5.8549 24.5646 5.76833 24.4922 5.69533ZM16.125 2.34376V7.03126H9.875V2.34376H16.125ZM6.75 22.6563V17.1875C6.75 16.9803 6.83231 16.7816 6.97882 16.6351C7.12534 16.4886 7.32405 16.4063 7.53125 16.4063H18.4688C18.676 16.4063 18.8747 16.4886 19.0212 16.6351C19.1677 16.7816 19.25 16.9803 19.25 17.1875V22.6563H6.75ZM23.1562 21.875C23.1562 22.0822 23.0739 22.2809 22.9274 22.4274C22.7809 22.574 22.5822 22.6563 22.375 22.6563H20.8125V17.1875C20.8125 16.5659 20.5656 15.9698 20.126 15.5302C19.6865 15.0907 19.0904 14.8438 18.4688 14.8438H7.53125C6.90965 14.8438 6.31351 15.0907 5.87397 15.5302C5.43443 15.9698 5.1875 16.5659 5.1875 17.1875V22.6563H3.625C3.4178 22.6563 3.21909 22.574 3.07257 22.4274C2.92606 22.2809 2.84375 22.0822 2.84375 21.875V3.12501C2.84375 2.91781 2.92606 2.7191 3.07257 2.57259C3.21909 2.42607 3.4178 2.34376 3.625 2.34376H8.3125V7.03126C8.3125 7.44566 8.47712 7.84309 8.77015 8.13612C9.06317 8.42914 9.4606 8.59376 9.875 8.59376H16.125C16.5394 8.59376 16.9368 8.42914 17.2299 8.13612C17.5229 7.84309 17.6875 7.44566 17.6875 7.03126V2.34376H18.9297L23.1562 6.57033V21.875Z" fill="black"/>
</svg>
